<svg width="26" height="27" fill="none" xmlns="http://www.w3.org/2000/svg"><path fill-rule="evenodd" clip-rule="evenodd" d="m1.778 0 1.095 2.07a23.674 23.674 0 0 0 10.912 10.375l1.577.907-1.53.882A28.097 28.097 0 0 0 2.566 25.25l-.823 1.463L0 25.733l.823-1.463a30.097 30.097 0 0 1 10.444-10.868A25.674 25.674 0 0 1 1.106 3.005L.01.935 1.778 0Z" fill="#201F1F"/><path fill-rule="evenodd" clip-rule="evenodd" d="m11.778.286 1.095 2.07a23.674 23.674 0 0 0 10.912 10.376l1.577.906-1.53.882a28.096 28.096 0 0 0-11.266 11.017L11.743 27 10 26.02l.823-1.464a30.097 30.097 0 0 1 10.444-10.868A25.674 25.674 0 0 1 11.106 3.291L10.01 1.222l1.768-.936Z" fill="#201F1F"/></svg>