<svg width="26" height="27" viewBox="0 0 26 27" fill="none" xmlns="http://www.w3.org/2000/svg">
<path fill-rule="evenodd" clip-rule="evenodd" d="M1.77774 0L2.87317 2.06914C5.28417 6.62326 9.11521 10.2664 13.7847 12.4455L15.3618 13.3516L13.8324 14.234C9.1031 16.7563 5.19394 20.5788 2.56619 25.2503L1.74315 26.7135L0 25.733L0.823042 24.2698C3.33107 19.8111 6.92884 16.0745 11.2668 13.4017C6.96049 10.9941 3.4264 7.38867 1.10559 3.00492L0.0101612 0.935775L1.77774 0Z" fill="#201F1F"/>
<path fill-rule="evenodd" clip-rule="evenodd" d="M11.7777 0.286377L12.8732 2.35552C15.2842 6.90963 19.1152 10.5528 23.7847 12.7319L25.3618 13.6379L23.8324 14.5204C19.1031 17.0427 15.1939 20.8651 12.5662 25.5367L11.7432 26.9999L10 26.0194L10.823 24.5562C13.3311 20.0975 16.9288 16.3609 21.2668 13.6881C16.9605 11.2805 13.4264 7.67505 11.1056 3.2913L10.0102 1.22215L11.7777 0.286377Z" fill="#201F1F"/>
</svg>
