<svg width="31" height="33" fill="none" xmlns="http://www.w3.org/2000/svg"><path fill-rule="evenodd" clip-rule="evenodd" d="m2.578.5 1.298 2.452a28.06 28.06 0 0 0 12.932 12.3l1.87 1.073-1.813 1.046A33.3 33.3 0 0 0 3.512 30.428l-.975 1.734L.47 31l.975-1.734a35.672 35.672 0 0 1 12.378-12.881A30.43 30.43 0 0 1 1.781 4.061L.483 1.609 2.578.5Z" fill="#201F1F"/><path fill-rule="evenodd" clip-rule="evenodd" d="m14.43.836 1.298 2.452a28.06 28.06 0 0 0 12.932 12.3l1.87 1.073-1.814 1.046a33.301 33.301 0 0 0-13.352 13.057l-.976 1.734-2.066-1.162.976-1.734A35.672 35.672 0 0 1 25.676 16.72 30.43 30.43 0 0 1 13.633 4.398l-1.299-2.453L14.43.835Z" fill="#201F1F"/></svg>