<svg width="26" height="26" fill="none" xmlns="http://www.w3.org/2000/svg"><path d="M24.032 26.008c-2.827 0-5.667-.657-8.52-1.972-2.853-1.314-5.474-3.169-7.863-5.563-2.39-2.394-4.241-5.015-5.556-7.863C.78 7.762.122 4.924.122 2.097c0-.454.15-.832.45-1.135A1.52 1.52 0 0 1 1.697.508h4.892c.379 0 .713.123 1.002.37.29.248.474.553.553.916l.86 4.414c.059.41.046.761-.038 1.056a1.57 1.57 0 0 1-.456.74l-3.464 3.373a20.81 20.81 0 0 0 1.91 2.898c.717.91 1.492 1.78 2.327 2.609a25.89 25.89 0 0 0 2.625 2.293 26.36 26.36 0 0 0 3.003 1.97l3.366-3.395c.235-.244.52-.415.853-.513a2.45 2.45 0 0 1 1.04-.073l4.165.849c.379.1.688.293.927.58.24.286.36.61.36.974v4.864c0 .45-.152.825-.455 1.125-.302.3-.68.45-1.135.45ZM3.982 9.248l2.676-2.561a.267.267 0 0 0 .094-.159.351.351 0 0 0-.007-.188L6.093 2.99a.309.309 0 0 0-.101-.174.29.29 0 0 0-.188-.057H2.597a.196.196 0 0 0-.145.057.196.196 0 0 0-.057.145A19.187 19.187 0 0 0 3.98 9.248Zm13.05 12.964c.993.463 2.03.817 3.11 1.063 1.08.245 2.09.39 3.028.437.057 0 .105-.02.144-.058a.195.195 0 0 0 .058-.144v-3.156a.29.29 0 0 0-.058-.188.308.308 0 0 0-.173-.1l-3.15-.64a.237.237 0 0 0-.152-.008.367.367 0 0 0-.137.094l-2.67 2.7Z" fill="#201F1F"/></svg>