<svg xmlns="http://www.w3.org/2000/svg" viewBox="0 0 73 110" style="enable-background:new 0 0 73 110" xml:space="preserve"><path d="M63.2 55c.1-.6.2-1.1.1-1.5-.1-.1-.2-.2-.2 0-.2.5-.5.9-.8 1.2-.1.1-.3 0-.3-.2 0 0 0-.1-.1-.1-.1.1-.2.2-.4.2-.3 0-.4-.2-.3-.5l.6-.9c0-.1-.1-.1-.1-.1-.7.7-1.1 1-1.5 1-.2 0-.2-.1-.1-.2s.1-.2.2-.3h-.1c-.4.3-.8.4-1 0l-.3-.9c0-.1.1-.1.2-.1h.1c.4-.8.9-.7 1.3-.3.2.2.3.1.5 0 .3-.2.5-.4.6-.7 0-.1-.1-.2-.2-.1 0 .1-.1.1-.1.1-.3.4-.4.6-.7.5-.1 0-.2-.1-.3-.1l-.2-.2c-.1-.2.1-.4.3-.3.2.1.4.1.4 0-.1-.2-.1-.2 0-.3 0 0 .1 0 .1-.1s0-.1-.1-.2-.2-.2.1-.3c.3-.1.6-.2.9-.4.2-.1.4-.3.5-.5.1-.2 0-.2-.1-.2-.1.1-.2.3-.4.4-.1.1-.2.2-.4.2-.2.1-.3 0-.2-.3.1-.3.3-.6.5-.9l.2-.2c.3-.2.5.1.6.3.2.5.2 1.1.1 1.6s-.4 1-.8 1.4l-.1.1-.1.1c-.1.1 0 .1.1.1h.1c.7-.2 1.5-1.2 1.2-3.2 0-.2 0-.2.2-.2 1.1.4 1.2 1.5.6 3 0 .1 0 .1.1.1.7 0 .9.1.8.5-.4 2.2-.8 2.6-1.3 2.6-.1.2-.2.2-.2-.1zm-27.3 50c.1 0 .2.1.2.1v.1c-.2.5-.7.8-1.1 1.1-.7.5-1.3 1.1-1.3 2.1 0 .1-.2 0-.2 0-1.8-.7-2.5-1.7-2.6-3.1-.3.5-.7.8-1.1 1.1-.4.3-.8.6-1.1 1.1-.2.3-.2.7-.2 1.1 0 .1-.1.1-.2.1-2.9-.9-3.7-3.2-3.6-5.3.2-2.8 1.8-4.1 3.7-5h-.1c-1-.1-2.8-.3-2-3.8-1.1-.1-1.7-.8-1.7-1.4V93c0-.4.2-.7.4-1 .7-.8 2.4-.3 2 1.8.5-.1 1.1-.2 1.6-.4.6-.3 1.2-.7 1.6-1.2.4-.5.7-1.1.9-1.8h.1c2.2.8 3.1 2.2 3.1 4.2v8c.1 1.9 1 2.2 1.6 2.4zm-7.3-7.1c.5 0 .9-.3 1.3-.6s.6-.8.7-1.3c.1-1.3-.7-2.2-1.9-1.8-.6.2-1.1.3-1.7.4-.3.9-.5 2.3.1 2.7.2.2.5.3.8.4.2.3.4.3.7.2zm2.1-.4c-.3.4-.7.7-1 .9-.4.3-.8.5-1 .9v.1c-.7 1.3-.7 4.2 0 5.4.6.9 2.1.6 2.1-1.1v-6.2zm13.8-1.3s.1.1.1 0c.3-1.6 1.1-2.5 1.9-3.5.4-.5.9-1.1 1.3-1.7 0-.1-.1-.2-.1-.1-1.3 1.1-2.5 1.5-3.5-.1 0-.1-.2 0-.2.1-.2.6-.7 1.1-1.2 1.6-.4.4-.8.9-1 1.3-.2-1.4-1-2.4-2.9-3.1h-.1c-.1 1.3-.7 1.7-1.4 2.1-.5.3-.9.6-1.1 1.2h.1c0 .1 0 .1.1.1h.1c.2 0 .5 0 .7.1.2.1.4.2.6.4.2.2.3.4.4.6.1.2.1.4.1.7l-.1 7.2c0 .8-.6 2-1.1 2.2-.3.1-.1.2.3.3 1.3.3 2 1.1 2.9 2 .3.3.6.7 1 1 0 0 .2.1.2 0 .1-1.1.9-1.7 1.7-2.3.4-.3.8-.6 1.1-.9.4-.5.7-1 .8-1.6.1-.6.2-1.2 0-1.8-.2-.9-1.8-1.2-1.6.4 0 .1.1.2.1.3.3.6.9 1.7-.1 2.3-.6.4-1.7-.4-1.7-2.2v-6.7c0-2.5 2.2-2.8 2.6.1zm-7.8-20.8c0-.1-.1-.1 0 0l-.3.6c-.1.2-.2.3-.3.5v.1c.1 0 .3.1.3 0 .2-.4.3-.8.3-1.2zm-14.5 28.8c-2.5.2-4.8.5-6.2 1.8-.8.8-1.3 1.9-1.3 3 0 .1-.1.1-.1.1-.6-.4-1.3-.7-2-1-.9-.4-1.9-.7-2.9-1-1 1.1-2.2 2-3.6 2.6-2.6 1.1-4.8.3-5-2.2-.2-2.6 1.7-4.4 5-4.8 1.9-.2 3.9-.1 5.8.3.8-1.8-3.8-4.3-4.8-2.6 0 .1-.1.1-.2 0-1.1-1.2-.3-2.5 1-3-.3-.1-.6-.1-1 0-.3.1-.6.2-.9.4-1.1.9-1.3 2.7 0 3.4.2.1.4.2.7.3.2 0 .1.2.1.2-.3 0-.5.1-.8.1-3.7-.1-4.3-5.7 0-7.2.1 0 .3-.1.4-.1 0-3.7 2.6-4.9 5.4-6.1.2-.1.5-.2.7-.3.5-.2 1-.5 1.5-.7V86c-.4.4-.9.6-1.5.8-1.4.5-3 .4-4.6.3-.7 0-1.3-.1-1.9-.1h-.7c-5 .5-3 6.8.2 4.2.1-.1.3-.2.5-.2.4 0 .4.5 0 .8C2.7 94.2-.7 90.5.2 87c.3-1.3 1.1-2.4 2.1-3.2 1.1-.8 2.4-1.2 3.7-1.1 1.3 0 2.5.4 3.6 1 .9.6 1.9 1.1 3 1.4.3.1.5.1.8 0 .3-.1.5-.2.7-.3 0-2 .6-2.7 1.3-2.4.8.3.5 1.5-.7 2.8v1.4c.5-.3.9-.6 1.3-1 .4-.5.7-1.1.8-1.7h.1c2.8 1 4.7 2.6 4.9 5.2.2 3.9-1.7 5.7-4.7 6-.4 0-.3.4 0 .4h2.2c2.3 0 2.7 1.4 2.7 2.7v4.1c0 .3 0 .6.1.9.1.5.1.7.1 1zM9 106.8c-.9-.3-1.9-.4-2.9-.3-1.7.1-3 .8-2.9 1.9.1 1.2 1.5 1.2 2.9.6 1.1-.5 2.1-1.2 2.9-2.2zM14.1 88c-.5.1-1 .3-1.5.6-2.1 1.3-1.7 4.1-.4 6.5.2.3.3.7.4 1 .8 2 1 4.3 0 6.6v.1c0 .1-.1.2-.1.2h.2c.5.1 1 .2 1.5.4V88zm.6 6.9h.5c.3 0 .6-.1.8-.3 1.5-1.1 1.9-5.3 0-6.4-.4-.2-.8-.3-1.3-.3v7zm2.9 9.7c-.2-.6-.3-1.3-.3-1.9v-4.6c0-.7-.3-1.5-1.3-1.5h-1.3v7c.3.1.7.2 1 .3.1 0 .2.1.3.1.5.2.9.3 1.4.5 0 .1.1.1.2.1zm-5-59.8c-.5.3-1 .8-1.3 1.3-.1.2 0 .2.1.2.3-.4.8-.7 1.2-.9.9-.4 2-.3 2.6 1 .1.2.1.2.3.1.4-.3.2-.8-.3-1.4-.1-.1 0-.3.2-.2.4.3.5.8.6 1.3.1.4.1.8.4 1 .1.1.2.1.3 0 .1-.2.1-.3.1-.5 0-.1.2-.1.2 0 0 .5 0 1-.2 1.5-.2.8-.9.7-1.2.4-.1-.1 0-.2 0-.2h.5c.3 0 .5-.2.3-.6-.4-.9-1.2-1.1-1.6-.3-.3.7-.2 2.2 1.2 2.4.7.1 1.5-.4 1.6-1.9 0 0 .1-.1.1 0-.1.3-.1.6 0 1 .1.2.2.3.4.2.5-.2.5-1 .4-2.1 0-.4-.3-.7-.6-1l-.2-.2c-.1-.1 0-.2.2-.1.1 0 .1.1.2.2 0 .1.1.2.2.2.3.3.8 0 .5-.4-.3-.6-.8-1.2-1.3-1.6-.2-.2-.5-.2-.8-.1-.3 0-.5.1-.8 0-.1 0-.1-.3 0-.3.3-.1.5 0 .8 0 .3 0 .6.1.9 0 .6-.2.4-.9-.2-1-.2-.1-.4 0-.6 0-.2.1-.4.1-.6 0-.1-.1 0-.2 0-.2 1.5 0 2.4-.5 2.9-1 .2-.2.4-.6.4-.9 0-.3-.1-.7-.3-.9 0-.1-.1-.1-.2-.2-.7-.7-1.5 0-1.3.6.3 1 .1 1.5-1.6 1.8-1.3.2-2.5.7-3.7 1.3-.2.1-.5.3-.7.5-.1.1 0 .1 0 .2 0 0 .1 0 0 .1-.6.6-.8 1-.7 1.3l.1.1c.4-.3.8-.7 1.2-.9.8-.5 1.4-.6 1.9-.3v.1c-.4-.1-1.1.1-1.6.4zm-2.9 7.7c.4 2.2.8 2.6 1.3 2.6.2 0 .3 0 .3-.3-.1-.6-.2-1.1-.1-1.5 0-.1.2-.2.2 0 .2.5.5.9.8 1.2.2.1.3 0 .3-.2 0 0 0-.1.1-.1.1.1.2.2.4.2.3 0 .4-.2.3-.5l-.6-.9c-.1-.1.1-.1.1-.1.7.7 1.1 1 1.5 1 .2 0 .2-.1.1-.2s-.1-.2-.2-.3h.1c.4.2.8.3 1 0l.3-.9c0-.1-.1-.1-.2-.1h-.1c-.4-.8-.9-.7-1.3-.3-.2.2-.3.1-.5 0-.3-.2-.5-.4-.6-.7 0-.1.1-.2.2-.1v.1c.3.4.5.7.7.6.1 0 .2-.1.3-.1l.2-.2c.1-.2-.1-.4-.3-.3-.2.1-.4.1-.4 0 .1-.2.1-.2 0-.3 0 0-.1 0-.1-.1s0-.1.1-.2.2-.2-.1-.3c-.3-.1-.6-.2-.9-.4-.2-.1-.4-.3-.5-.5-.1-.2 0-.2.1-.2.1.1.2.3.4.4.1.1.2.2.4.2.2.1.3 0 .2-.3-.1-.3-.3-.6-.5-.9l-.2-.2c-.3-.2-.5.1-.6.3-.2.5-.2 1.1-.1 1.6s.4 1 .8 1.4l.1.1.1.1c0 .1 0 .1-.1.1h-.1C11.9 52 11 51 11.4 49c0-.1 0-.2-.2-.2-1.1.4-1.2 1.5-.6 3 0 .1 0 .1-.1.1-.7.1-.9.3-.8.6zm48.7 7.1c-.1.1-.2.2-.3.4v.5c0 .1.1.1.2.1s.1 0 .1.1c.3.2-.4.5-.8-.4-.1-.2.1-.4.3-.6l.2-.2h-.2v-.1c1.5.1 2.2-.4 2.4-1.9 0-.2.1-.2.3-.3.2 0 .5-.1.9-.5 0 0 .2-.1.2.1 0 .5-.5.7-.9.8-.2.1-.3.1-.3.2v.2c.1.2.2.2.3.3l.3.3c.1.2-.1.2-.2.3 0 0-.1 0-.1.1 0 .4.1.7.3.8.2 0 .3 0 .4-.1.1 0 .2 0 .2-.1.1 0 .3 0 .3-.1.1-.2-.1-.3-.2-.5 0 0-.1-.1-.1-.2-.1-.1-.1-.2-.1-.3v-.3l.1-.1c.1-.1.2-.1.3-.1.2 0 .4-.1.5-.5.1-.5 0-.7-.1-1-.1-.2-.1-.3-.1-.5 0-.3.3-.2.5-.2 0 0 .1 0 .1-.1v-.3c0-.2-.1-.4-.1-.7h-.1c-.1.1-.2.3-.4.3-.2.1-.3.1-.5.1h-.1c-.1 0-.1 0-.2.1-1.5 2.3-3.9 3-6.1 1.5 0 0 0-.1.1-.1 2.3 1 4.3.7 5.9-1.7 0 0 0-.1-.1-.1-.3 0-.4-.1-.4-.3 0 0 0-.1-.1-.1-.3.1-.5.1-.8 0-.3-.1-.5-.2-.7-.4-.2.2 0 .4.1.7v.1c-.3 0-.6-.2-.5-.5v-.1l-.1-.1c-.1 0-.1-.1-.1-.2s-.1-.2-.1-.2c-.1-.1-.1 0-.2 0s-.1.1-.2.1H58c-.1 0-.3-.1-.4 0v.4c0 .1-.1.1-.1 0h-.1v.4c0 .4.2.6.6.7 0 0 .1 0 .1.1v.2l-.1.1h-.4c.1.3.5 1 1.9.4.1 0 .1.1.1.2-.7.6-2.4.3-2.4-.8 0-.2-.1-.4-.4-.3V55c-.1-.1-.1 0-.1 0 0 .1-.1.1-.1.2 0 .2 0 .3-.1.5h-.1c-.3-.1-.3-.4-.2-.8v-.2c-.2-.3-.5-.5-.9-.5-.1 0-.2 0-.3.1l-.2.2c-.1.5-.1 1 0 1.4 0 .1-.1.1-.2.1-.2-.2-.4-.5-.5-.8-.1-.3-.1-.7 0-1 0-.2.2-.2.3-.2.1 0 .2-.1.3-.1.3-.2.7-.8.3-1.3-.3-.3-1.4-.4-2 .1l-.1.1c-1.1 1.3-1.1 3.3-.2 4.3l.3.3c.6.5 1.4.9 2.2 1.2l.2.1c.2 0 .2 0 .1-.1l-.3-.2c-.3-.1-.5-.3-.7-.6-.2-.2-.3-.5-.4-.8.2.5.5.8.9 1.1.7.4 1.5.5 2.3.4.1 0 .1 0 .1.1-.1.2-.3.3-.6.4-.4.2-.8.3-.5 1.1.1 0 .1-.1.1-.1 0-.1.1-.2.3-.2 0 0 .2 0 .1.1-.5.8-.6 1.3 0 1.8h.1c0-.2 0-.4.2-.5h.2c.5.8 1.6.5 1.7-.2.4-1-.2-1.5-.6-1.4zm14.2 45.5c-.8-.4-1.5-.6-1.5-2.3v-8c0-2-.8-3.4-3-4.1H68c-.2 1.3-1.2 1.9-2 2.4-.5.3-1 .7-1.2 1.1-.1-1.7-.8-2.9-2.8-3.5 0 0-.1 0-.1.1-.1 1-.5 1.3-1.1 1.8-.4.3-.9.7-1.4 1.5-.1.1 0 .1.1.1 1.1-.1 1.6.6 1.6 1.7v6.5c0 .8-.4 2.4-1.2 2.8v.2c.9 0 1.8 1 2.7 2 .5.5 1 1 1.4 1.3.1 0 .2 0 .2-.1.1-1 .6-1.5 1.2-2 .3-.3.6-.5.9-.9l.1-.1c.2-.2.3-.3-.1-.4-.8-.3-1.5-.6-1.5-2.2v-6.1c0-3.1 2.6-2.9 2.6-.7v8.2c0 3.1 1.1 3.7 2.8 4.4.1 0 .2-.1.2-.1.1-1 .6-1.4 1.2-1.9.3-.2.6-.5.9-.9l.1-.1c.3-.5.4-.6 0-.7zM25.7 68.3c-.1.8.1.8.3.9h.1c-.1-.2-.1-.5 0-.7 0-.2.1-.5.3-.7.1-.1.1-.3 0-.3-.3.1-.4.1-.5-.4 0-.1-.2-.1-.4 0s-.6-.1-1-.4c-.4-.4-.7-.9-.8-1.4 0-.7.3-1.1.8-1 .3 0 .5.2.7.3.1.1 0 .3 0 .4-.1.1-.1.2-.2.3v.4c.1.3.4.1.5-.1.3-.6.7-1.2 1.2-1.6.2-.1.4-.2.5-.3.6-.3 1.3-.4 2-.3.5.1 1 .2 1.5.4l.4.2.3.2c.1 0 .1.2 0 .2h-.3l-.4.1c-.5.1-1.1.2-1.5.6-.2.2-.3.4-.4.6-.1.2-.1.5 0 .7 0 0 .1.1.2 0s.1-.3.2-.4c.3-.6.9-1 1.5-1.2.1 0 .3-.1.4-.1.6-.1 1.2-.1 1.8 0 .1 0 0-.1-.1-.2-1.1-.8-1.2-1.7-.5-2.6-.1 0-.1-.1-.2-.1-.1-.1-.2-.1-.3-.2-.3.5-.4.9-.4 1.3 0 .3 0 .5-.3.5H31c-.2 0-.3-.1-.4-.1-.4-.1-.5-.4-.5-.6-.1-.1-.1-.3-.3-.4-.2-.2-.5-.4-.7-.6-.1-.1-.2-.2-.3-.4-.1-.1-.1-.3-.1-.5s.2-.2.4-.2c.3 0 .6 0 .8-.1l-.7-.5c-.5.3-1.2.5-1.6.4-.1 0-.2.1-.1.2.3.3.6.6.6.9 0 .2 0 .3-.1.5-.1.1-.2.3-.3.4 0 0-.2.2-.2 0s-.2-.2-.2 0c0 .1-.1.2-.1.3-.1.3-.4.5-.6.7-.1.1-.3.2-.4.2h-.4c-.1 0-.1-.1-.1-.1 0-.3.1-.6 0-.9 0-.1-.2 0-.3.1-.1.1-.2.1-.2.1-.2 0-.2-.4-.2-.7.1-.2.2-.3.4-.4.1 0 .1-.1.2-.1.1-.1.2-.3.2-.5s0-.4-.1-.5c0 0-.2-.1-.2 0-.2.2-.1.3-.1.5v.2h-.1c-.1 0-.2-.1-.2-.1-.1-.1-.1-.1-.1-.2-.1-.5-.2-.8-.4-1l-.1-.1c-.1 0-.2 0-.1.1.1.2.2.3.3.5.2.3.3.7.3 1.1 0 .4-.2.5-.3.4 0 0-.1 0-.1-.1l-.1-.1s-.2-.1-.2 0c.1.5 0 .9-.4.9-.1 0-.2.1-.2.1l-.1.1s-.1 0-.2-.1c-.4-.4-.3-.7-.3-1.1v-.5c0-.1-.1-.2-.1-.3-.1-.2-.3-.4-.1-1.1.1-.4-.2-.5-.9-.8h-.1s-.1 0-.1.1l-.1.1v.1c0 .2.1.3.2.4.1.1.1.2-.2.2-.1 0 0 .1 0 .1.4.2.6.4.3.5.3.3.4.6.2.8-.1.1-.2.1-.3 0-.1 0-.1-.1-.2-.2l-.1-.1c-.4-.3-.8-.7-1.2-.7 0 0-.1.1 0 .1.4.3.7.5.5.9-.1.1-.1.2-.2.1-.4-.3-.8-.5-1.1-.4-.1 0-.2.1-.2.2-.1.9 0 1.5.2 1.7.1.1.3.1.4 0 .2-.6.4-.8.8-.6.8.7.9 1.3-.1 1.7-.4 0-.7 0-1-.2-.6-.3-1.1-.9-1.4-2.2-.1-.6 0-1.1.3-1.7.3-.5.6-.9 1.1-1.2.4-.3.8-.5 1.2-.7.3-.2.7-.3 1-.5.2-.1.3-.2.3-.4 0 0 0-.1.1-.2 0-.1.1-.1.1-.2.1-.2.2-.3.2-.6 0-.1.2-.1.3-.1.1.1.1.1.1.2.1.2.2.3.4.3.1 0 .2-.1.2-.3 0-.1.1-.2.2-.3H24.1c.1 0 .1-.1.1-.2 0 0 0-.1.1-.1 0-.1.1-.1.1-.1-1.4-1.9-2.1-4.5-1.6-8.1 0-.2 0-.4.1-.6.6-4.6 1.4-10.6 1-13.6l-2.1.3c-.7.1-1.5.3-2.2.5-.5.1-1 .4-1.4.7-.9.6-1.2 1.5-.4 2.5 0 0 .1 0 .1-.1.1-.1.2-.2.4-.1.3-.1.3 0 .3.3v.2c.4 0 .8-.4-.1-.9-.5-.3.3-.9.9-.6.1.1.2.1.2.2.1.1.1.2.1.3v.7c0 .2-.1.4-.3.6-.2.2-.4.2-.6.2-1.5 0-2.7-1.2-1.4-3.5-1.1.1-1.8.9-2.3 2.8 0 .1-.2.3-.3.1-.9.1-.8-.4-.8-1 0-.1.1-.3 0-.2-.8.7-1.3 1.6-1.3 2.7 0 .1 0 .3.1.4l.3.3c.3.3.2.5-.2.5.3 0 .4.2.5.4.1.2.2.3.5.1.2-.2.1-.4 0-.6-.1-.2-.2-.4.2-.5 0-.1-.1-.5-.2-.4-.2.2-.4.1-.3 0 0-.5.2-.8.6-.7 1.1.2 1.7 1.7.1 2.8-.3.2-.6.3-.9.3-.3 0-.6-.1-.9-.4-.4-.4-.7-.9-.8-1.5-.9.1-.6-1.2.6-2.9 0-.1.1-.1.1-.2l.1-.1v-.2s-.1 0-.1.1c-.1.1-.2.1-.2 0s0-.3.1-.4c0-.1.1-.2.2-.3.5-.5 1-.9 1.6-1.3.4-.3-.1-1-.6-.7-.3.2-.6.4-.9.7-.2.1-.3.3-.4.4-.2.3-.2.6-.3 1-.1.3-.1.6-.3.8-.1.1-.4.2-.3-.6 0-.1 0-.2-.1-.1-.3.3-.3.5-.3.9v.3c0 .3-.2.6-.3.8l-.3.6s0 .1-.1.1c-.1-.1-.2-.1-.3-.2-.1-.1-.1-.2-.2-.3-.1.2-.3.3-.5.4-.3.2-.4.2-.4-.2.4-1.7 1.5-3.2 3.7-4.6l.9-.5c.5-.3.8-.1.9 0 .1 0 .1.1.1 0 .1-.6.6-.3 1.2.2.1 0 .1-.1.1-.1 0-.1 0-.1-.1-.2s-.1-.3 0-.4c.1-.1.8 0 1.4.1.3.1.6.1.8.1-.5-.2-.7-.3-.7-.4-.7-.1-.9-.3-.8-.7-.3-.1-.3-.4-.2-.7-1.1-.9-1.9-.6-1.9.3 0 .1-.1.2-.3.1-.2-.2-.3-.4-.4-.6-.1-.2-.1-.5-.1-.7 0-.1-.1-.1-.2-.1s-.2 0-.2-.2.3-.5.6-.8c-.1-.1-.2-.1-.3-.1-.1 0-.1 0-.1-.1 0-.2.1-.3.1-.4.1-.1.1-.2.1-.3.1-.5.4-.8.5-.6.3.3.4.1.4 0s.1-.2.2-.1c.1 0 .1.1.2.1.1.1.2.1.2.1.1 0 .1 0 .2-.1l.1-.1c.1-.1.2-.1.3 0 .1 0 .2.1.3.1h.5c.1 0 .1.1.1.2s0 .2.3.3c.1 0 .1.3.1.3-.1.1-.2.2-.2.3-.1.1-.1.3-.1.4 0 .1 0 .3.1.4.1.1.1.2.3.3.5-.1.8.1.9.6.4.1.9.1 1.3 0-.9-.5-1.7-1.1-1.6-1.9.2-.8 1.1-1.2 1.6-.8h.1l.1.1c.1.2.2.3.1.5s-.1.4-.2.5c-.1.2-.2.3-.4.3h-.4c.1.2.1.3.3.4s.3.2.4.3c.5.3 1 .3 1.6.3-.4-.3-.8-.7-1.2-1l3.8-5.3 1.2.6c.6.3 1.1.5 1.7.7.1-.2.1-.4.1-.6 0-.2 0-.4-.1-.6-.1-.2-.4-.2-.6-.1H25.3l-.1-.1V23.3c-.2-.1-.4-.1-.7-.1h-.6c-.4 0-.5-.3-.4-.8.1-.9.5-1.5 1.1-1.8.4-.1.8-.1 1.2 0h.1s.1 0 .1-.1v-.2c-.1-.2-.1-.3 0-.3v-.1c-.8-.5-.7-1.5-.1-1.4-.1-.6-.2-1.2.4-1.4.2-.1.3 0 .2.2h-.1s-.1 0-.1.1.1.1.1.1h.1c.1 0 .1.1 0 .2h-.1c-.1.1-.2.1-.1.2h.5c.3.1.4.5.2.8v.1l.3-.3c.3-.3.6-.1.7.4.2-.3.5-.2.6.2 0 .2.1.3.2.5.1.1.2.3.4.4.2.1.3.1.5.2-.4-.4-.6-.7-.3-.9-.1-.1-.1-.2-.1-.3v-.3c0-.1.1-.1.1-.2.1-.1.1-.1.2-.1h.2c.1 0 .2.1.2.1.1.1.3.2.4.3.1.1.2.2.3.2.1.1.3.2.4.3.2.2.5.2.8.2.3 0 .6-.1.8-.3 0 0 .1-.2 0-.2-.2 0-.7-.2-.4-.6.9-1.1 1.2-2.2.3-3.1-.2-.2-.5-.3-.8-.4-.3 0-.6 0-.9.2l-.3.3c-.1.1-.1.3-.1.4v.1s.1 0 .1-.1c.1-.1.2-.1.3-.1h.3c.1 0 .2.1.3.2.1.1.1.2.2.3v.3c0 .2-.1.3-.3.4-.1.1-.3.2-.5.2h-.4c-.1 0-.3-.1-.4-.2-.3-.4-.4-.8-.3-1.2.1-.4.3-.8.7-1.1.1-.1.3-.2.4-.3.4-.2.8-.3 1.2-.2.1-.7.7-.5 1.5-.2 0-.1.1-.1.1-.2s.1-.1.2-.1c.1-.1.3-.1.4-.1-.2-.1-.3-.1-.4-.2-.2-.1-.3-.4-.2-.5.1-.1 0-.2 0-.2 0-.1-.1-.2 0-.2.1-.2.1-.3.3-.3.2 0 .3.1.4.2 0 0 .1 0 .1.1.1-.4.3-.3.5-.1 0-.6.2-.8.7-.4v-.4c0-.2.1-.2.3-.1.1 0 .1.1.2.1 0-.2.1-.4.2-.6 0-.1.1-.2.2-.3.1-.1.2-.1.3-.1.1 0 .2.1.3.1.1.1.2.2.2.3.1.2.2.4.2.7 0 0 .1 0 .1-.1.3-.1.4-.1.4.2V12c.5-.4.7-.2.7.4.2-.3.5-.4.5 0h.1c.5-.2.6-.2.7.1v.2c0 .1-.1.2 0 .3.2.2-.2.5-.7.7.1 0 .3 0 .4.1l.3.3c.6-.2 1.2-.4 1.4-.2 0 0 .1.1.1.2v.2c.4 0 .8.1 1.2.2.2.1.3.2.4.3.4.3.6.7.7 1.1.1.4 0 .9-.3 1.2-.1.1-.2.2-.4.2h-.4c-.2 0-.3-.1-.5-.2-.1-.1-.2-.3-.3-.4v-.3c0-.1.1-.2.2-.3.1-.1.2-.1.3-.2h.3c.1 0 .2.1.3.1 0 0 .1 0 .1.1v-.2c-.1-.3-.2-.5-.4-.7-.2-.1-.5-.2-.7-.2-.2 0-.5.1-.7.2-.1 0-.2.1-.2.2-.8.8-.7 1.9.2 3 0 0 0 .1.1.1.2.3.1.4-.1.5-.1 0-.2.1-.3.1-.1 0 0 .2 0 .2.1.1.2.1.3.1.2.1.5.2.7.1.2 0 .5-.1.7-.2h.1c.1-.1.2-.1.4-.2.1-.1.3-.2.4-.3.1-.1.2-.1.3-.2.1-.1.1-.1.2-.1h.2c.1 0 .2.1.2.1.1.1.1.1.1.2v.4c0 .1-.1.2-.1.3.3.2.1.5-.3.9.2 0 .3-.1.4-.1.2-.1.3-.2.4-.4.1-.1.2-.3.2-.5.1-.5.4-.5.6-.2.1-.5.4-.7.7-.4l.3.3V19c-.2-.4-.1-.7.2-.8h.5c0-.1 0-.1-.1-.2 0 0-.1 0-.1-.1-.1-.1-.1-.1 0-.2h.2l-.1-.1s-.1 0-.1-.1c-.1-.2 0-.3.2-.2.6.3.5.9.4 1.4.6-.1.7.9-.1 1.4-.1 0 0 .1 0 .1 0 .1.1.2 0 .3v.2l.1.1h.1c.4-.1.8-.1 1.2 0 .6.2 1 .8 1.1 1.8.1.4-.1.8-.4.8h-.6c-.2 0-.4 0-.7.1-.1 0 0 .1 0 .2v.2s0 .1-.1.1H48.3c-.3 0-.5-.1-.6.1-.1.2-.1.4-.1.6 0 .2.1.4.1.6.6-.2 1.1-.4 1.7-.7.4-.2.8-.4 1.2-.7l2 2.7 1.8 2.5c-.4.3-.8.7-1.2 1 .5.1 1.1 0 1.6-.3.2-.1.3-.2.4-.3.1-.1.2-.3.3-.4h-.4c-.1 0-.2-.1-.3-.2-.1-.1-.2-.3-.2-.5s0-.4.1-.5l.1-.1c.5-.4 1.5 0 1.6.8.1.7-.6 1.3-1.6 1.9.4.1.9.1 1.3 0 .1-.6.4-.7.9-.6l.3-.3c.1-.1.1-.3.1-.4 0-.1 0-.3-.1-.4-.1-.1-.1-.2-.2-.3 0-.1 0-.3.1-.3.3-.1.3-.2.3-.3 0-.1 0-.1.1-.2h.5c.1 0 .2 0 .3-.1.1-.1.2-.1.3 0l.1.1c.1.1.1.1.2.1s.2-.1.3-.1c.1 0 .1-.1.2-.1.1-.1.1 0 .2.1 0 .1.1.3.4 0 .2-.2.4.1.5.6 0 .1.1.2.1.3.1.1.1.2.1.4 0 .1-.1.1-.1.1-.1 0-.2 0-.3.1.3.2.6.6.6.8 0 .1-.1.1-.2.2-.1 0-.2 0-.2.1 0 .2 0 .5-.1.7-.1.2-.2.4-.4.6-.2.1-.3 0-.3-.1-.1-.8-.8-1.2-1.9-.3.1.4.1.6-.4.7.2.3-.1.6-.8.7.1.2-.2.3-.7.4.2 0 .5-.1.8-.1l1.4-.2c.1.1 0 .3-.1.4v.2c.6-.4 1.1-.8 1.2-.2 0 .1.1.1.1 0 .1-.1.4-.2.9 0l.6.3c.1.1.2.1.3.2 2.2 1.4 3.3 2.9 3.7 4.6.1.4-.1.4-.4.2-.2-.1-.3-.2-.5-.4-.1.3-.3.5-.4.6 0 0-.1 0-.1-.1l-.3-.6c-.1-.2-.3-.5-.3-.8v-.3c0-.4 0-.6-.3-.9-.1-.1-.1 0-.1.1.1.8-.2.8-.3.6-.2-.2-.2-.5-.3-.9-.1-.3-.1-.7-.3-.9-.1-.2-.3-.3-.4-.4-.3-.2-.6-.5-.9-.7-.5-.3-1.1.3-.6.7.5.4 1.1.8 1.6 1.3.1.1.2.2.2.3 0 .1.1.3.1.4 0 .1-.1 0-.2 0 0 0-.1 0-.1-.1v.1l.1.1c0 .1.1.1.1.2 1.2 1.7 1.5 3.1.6 2.9-.1.6-.4 1.1-.8 1.5-.2.2-.6.4-.9.4-.3 0-.7-.1-.9-.3-1.6-1.1-.9-2.6.1-2.8.4-.1.6.2.7.7 0 .2-.2.3-.3 0-.1-.1-.2.3-.2.4.3.1.3.3.2.5-.1.2-.2.4.1.6.3.2.4.1.5-.1.1-.2.2-.3.5-.4-.3-.1-.4-.3-.2-.5l.3-.3c.1-.1.1-.3.1-.4-.1-1-.6-2-1.3-2.7-.1-.1 0 0 0 .1v.1c.1.6.1 1.1-.1 1.4-.1.2-.3 0-.3-.1-.4-1.9-1.2-2.7-2.3-2.8 1.2 2.3 0 3.5-1.4 3.5-.2 0-.5-.1-.6-.2-.2-.1-.3-.4-.3-.6v-.7c0-.1 0-.2.1-.3.1-.1.1-.2.2-.2.6-.3 1.4.3.9.6-.9.5-.6.8-.1.9v-.1c0-.3 0-.5.3-.4.2-.1.3 0 .4.1 0 .1.1.1.1.1.7-1 .4-1.9-.4-2.5-.4-.3-.9-.5-1.4-.7-.7-.2-1.4-.4-2.2-.5-.7-.1-1.3-.2-2-.3-.5 3.1.4 9.4 1.1 14.1v.1c.5 3.6-.2 6.2-1.6 8.1l.1.1s.1.1.1.2 0 .1.1.1H51c.1.1.1.1.1.2.1.1.1.3.3.3.2 0 .3-.1.4-.3 0-.1.1-.1.1-.2.1-.1.2 0 .2.1 0 .2.1.4.2.6l.1.1c0 .1.1.1.1.2.1.1.1.3.3.4l.1.1c.3.1.5.3.8.4.5.3 1 .5 1.4.8.5.3.9.7 1.1 1.2.3.5.3 1.1.3 1.7-.4 1.3-.8 1.9-1.4 2.2-.3.2-.7.2-1.1.2-1.1-.4-.9-1-.1-1.7.4-.2.6 0 .8.6h.4c.3-.2.3-.9.2-1.7l-.2-.2c-.3-.1-.7.1-1.1.4-.1.1-.2 0-.2-.1-.2-.4.1-.6.5-.9v-.1c-.4 0-.8.4-1.2.7l-.1.1-.2.2c-.1.1-.3.1-.3 0-.3-.3-.1-.6.2-.8-.3 0-.1-.3.3-.5v-.1c-.3 0-.2 0-.2-.2 0-.1.1-.2.2-.4v-.1s0-.1-.1-.1l-.1-.1h-.1c-.7.2-1 .4-.9.8.1.7 0 .9-.2 1.1-.1.1-.1.2-.1.3v.5c0 .4 0 .7-.3 1.1-.1.1-.1.1-.2.1l-.1-.1c0-.1-.1-.1-.2-.1-.3 0-.4-.4-.4-.9 0-.1-.2-.1-.2 0 0 0 0 .1-.1.1 0 0-.1 0-.1.1-.2 0-.3-.1-.3-.4 0-.4.1-.8.3-1.1.1-.2.2-.3.3-.5.1-.1-.1-.1-.1-.1l-.1-.3c-.2.1-.3.4-.4 1 0 .1-.1.2-.1.2-.1.1-.1.1-.2.1h-.1V61c0-.1 0-.3-.1-.5h-.2c-.1.2-.1.3-.1.5s.1.3.2.5l.1.1c.2.1.3.1.4.4.1.3 0 .7-.2.7-.1 0-.1-.1-.2-.1-.1-.1-.2-.2-.3-.1v.9c0 .1-.1.1-.1.1-.1 0-.3.1-.5 0s-.3-.1-.4-.2c-.2-.2-.4-.4-.5-.7-.1-.1-.1-.2-.2-.4s-.2-.1-.2 0-.2 0-.2 0c-.1-.1-.2-.2-.3-.4-.1-.1-.1-.3-.1-.5 0-.3.3-.6.6-.9.1-.1 0-.2-.1-.2-.4.2-1-.1-1.6-.4l-.8.5c.3.1.5.1.8.1.2 0 .4 0 .4.2s0 .3-.1.5c-.1.1-.2.3-.3.4-.1.1-.3.3-.5.4-.1.1-.2.1-.2.2-.1.1-.2.3-.3.4-.1.2-.2.4-.5.6-.1.1-.3.1-.4.1h-.1c-.3 0-.3-.2-.3-.5s0-.8-.4-1.3l-.4.6c.6.8.6 1.6-.2 2.4-.1.1-.2.2-.3.2-.1 0-.2.2-.1.2l.4-.1c.5-.1.9-.1 1.4 0 .2 0 .3.1.4.1.6.2 1.2.6 1.5 1.2.1.1.1.3.2.4.1.2.2 0 .2 0 .1-.2.1-.5 0-.7-.1-.2-.2-.5-.4-.6-.4-.3-1-.5-1.5-.6h-.8c-.1 0 0-.2 0-.2l.4-.2c.1-.1.2-.1.3-.1h.1c.5-.2 1-.3 1.5-.4.7-.1 1.4 0 2 .3.2.1.4.2.5.3.5.4.9 1 1.2 1.6.1.2.3.4.4.1v-.4c0-.1-.1-.2-.2-.3-.1-.1-.1-.4 0-.4.2-.2.5-.3.7-.3.6-.1.9.4.8 1-.1.6-.4 1.1-.8 1.4-.4.3-.8.5-1 .4-.2-.1-.4-.1-.4 0-.1.5-.2.5-.5.4-.1 0-.1.2 0 .3.2.2.3.4.3.7v.7h.1c.2-.1.4-.2.3-.9 0-.3.3-.3.5-.3 1.3.2.4 1.3-.4 2.2v.5c-.3.2-.7 0-1-.2h-.1c-.1-.1-.3-.2-.4-.2-.3-.1-.6-.2-1-.3-.2-.1-.4-.1-.7-.2-.1 0-.2-.1-.4-.1-.8-.4-.9-1-1.1-1.7 0-.1-.1-.2-.1-.3-.1-.2-.2-.1-.2.1 0 .1 0 .2.1.4.1.8.3 1.7 1.3 2h.1c.4.1.3.3.1.5.6 0 1.2.1 1.8.3h.2c.1 0 .3.2.3.3 0 .3-.1.5-.2.7.1 0 .2-.1.3-.1.3-.1.5-.3.7-.6 0 0 .1 0 .2.1v.5c0 .1 0 .2-.1.4-.1.1-.2.1-.3.1h-.1v.3c.7-.1.7-.2.7-.3 0-.1 0-.2.1-.3.4-.5.8-.1.8.4 0 .1-.1.2-.2.3-.1.1-.2.2-.2.3-.1.1-.1.3-.3.4-.1.1-.3.2-.4.2h-.5c-.2 0-.3-.1-.4-.2-.1 0-.1-.1-.2-.2 0-.1-.2 0-.2.1.1.3.1.7.2 1 0 .3.1.5.1.8v.2c0 .1 0 .1.1.1s.2-.1.5.2c.3.2.5-.4.4-.4-.3 0-.6-.2-.4-.5.3-.6 1-.7 1.1-.2.1.2.1.4.1.7 0 .2-.1.4-.2.6-.1.2-.2.4-.4.5-.2.2-.4.3-.6.3-.2.1-.5 0-.7-.1-.2-.1-.4-.2-.5-.3.1-.5 0-.6 0-.8v.1c-.3.7-.5 1-1 .9-.1 0-.2-.1-.1-.2s.2-.3.2-.5v-.5c0-.1-.1-.1-.1-.1-.1.5-.4.9-.6 1.3-.4.5-.9.9-1.5 1.1l-.6.2H43c-.4.1-.7 0-1.1-.1-.2 0-.3-.1-.4-.2-.1-.1-.2-.2-.3-.4-.1-.1-.1-.3-.1-.5v-.5c.2-.7.5-1 .9-1.1h.5c.1.1.3.2.4.3.1.2 0 .4-.2.6-.1.2-.2.4 0 .4.3-.1.5-.2.7-.3l.1-.1v-.4c0-.1 0-.1.1-.2l.1-.1s.1 0 .1-.1c.1 0 .1-.1.2-.1.2-.1.1-.2 0-.2h-.2c-.2.1-.3.2-.4.3h-.1s-.1 0-.1-.1v-.4c0-.1.1-.3.2-.4.1-.2.3-.3.4-.5 0 0 .1-.2 0-.2h-.1c-.1 0-.1.1-.2.1-.1.1-.1.1-.1.2-.1.2-.3.3-.4.4-.1.1-.3.1-.4 0-.1-.2-.2-.4-.2-.6 0-.2 0-.4.1-.6.1-.2.2-.4.4-.5.1-.1.2-.3.4-.5.1-.2-.1-.3-.3-.1-.3.4-.6.8-.9 1.1-.3.2-.6.3-.9.1-.1-.1-.2-.2-.1-.2.1-.1.2-.3.3-.4.3-.4.7-.8.6-1.3h.1c.7.8.8-.5.7-1.1 0-.2.1-.2.2-.1l.4.3c.1 0 .1.1.2.1.1.1.2.1.3.2.7.6 1.2 1.3 1.5 2.2.1.3.1.6.1.9.1.2.1.2.2 0 .1-.6 0-1.3-.3-1.8-.4-.7-.9-1.2-1.5-1.7l-.1-.1c-.1-.1-.3-.2-.4-.3h-.1c-.1-.1-.2-.1-.3-.2l-.1-.1v-.2c.3-.9.2-1.3-.2-1.7-.1 0-.1-.1-.1-.2.1-.9-.1-1.2-.6-1.1h-.1c-.1 0-.2 0-.3-.1-.1-.1-.2-.2-.2-.3-.1-.2-.3-.5-.7-.4-.2.1-.3.1-.5.2-.1.1-.2.1-.3.2-.2.1-.4.2-.6.2h-.1c-.2 0-.1-.1 0-.2.1-.2.2-.5.2-.8 0-.3-.1-.5-.2-.8v-.1c0-.1-.1-.1 0-.2h.6c1.3-.2 1.6-1.2 1.1-1.9 0 0-.1 0-.1.1-.1.1-.2.1-.3.2.1.1.1.3.1.4 0 .1 0 .3-.1.4l-.3.3c-.1.1-.3.1-.4.1-.2 0-.4 0-.6-.2l-.2.4c-.2.1-.3.3-.5.4.5.6.6 1.4-.2 2.2l-.1.1s-.2.1-.3 0v-1c0-.2-.1-.5-.2-.7 0 0-.1 0-.1.1-.2.1-.3.2-.5.2s-.4-.1-.5-.2c0 0-.1 0-.1-.1-.2.5-.3 1-.2 1.5 0 .1 0 .1-.1.2h-.1s-.1 0-.1-.1c0 0-.1 0-.1-.1-.8-.9-.7-1.7-.2-2.3l-.2-.2-.3-.3-.1.1c-.2.1-.4.2-.6.2-.2 0-.3-.1-.4-.2-.1-.1-.2-.1-.2-.2-.1-.1-.1-.2-.1-.3V63c0-.1.1-.2.1-.3l-.4-.3c-.5.5-.3 1.5.6 1.8.1.1.3.1.4.1h.6c.1 0 .1.1 0 .2-.1.2-.2.5-.2.8 0 .3.1.5.2.8.1.1.1.2 0 .2H35c-.2-.1-.4-.1-.6-.2-.1-.1-.2-.1-.3-.2-.1 0-.1-.1-.2-.1.2.2.1.2-.1.1-.4-.1-.6.1-.7.4-.1.1-.1.2-.2.3-.1.1-.2.1-.3.1-.6-.1-.9.1-.7 1.1 0 0-.1.1-.1.2-.4.4-.6.8-.3 1.7v.2c0 .1 0 .1-.1.1h-.1c-.1 0-.1.1-.3.2-.1.1-.2.1-.2.2l-.2.2c-.6.5-1.1 1-1.5 1.7-.3.5-.4 1.2-.4 1.8.1.2.1.2.2 0 0-.3.1-.6.1-.9.3-.8.8-1.6 1.5-2.1l.4-.4.1-.1c.1-.1.1-.1.2-.1.1-.1.3-.1.2.1-.1.6 0 1.9.7 1.1h.1c0 .5.3.9.6 1.3.1.1.2.3.3.4.1.1 0 .2-.1.2-.6.4-1.1-.3-1.7-1.2v-.1c-.1-.2-.4-.1-.3.1.1.2.2.4.4.5.1.2.3.3.4.5.1.2.1.4.1.6 0 .2-.1.4-.2.6-.1.1-.3 0-.4 0-.2-.1-.3-.3-.4-.4-.1-.2-.2-.3-.4-.3h-.1c-.2 0-.1.1 0 .2.2.2.3.3.4.5.1.1.2.2.2.3v.4s0 .1-.1.1h-.1c-.1-.1-.3-.2-.4-.3h-.2c-.1 0-.2.1 0 .2.1 0 .1.1.2.1l.1.1s.1 0 .1.1c.1.1.1.1.1.2v.3c0 .1 0 .1.1.2l.1.1c.2.1.5.3.7.3.2 0 .1-.2 0-.4s-.3-.4-.2-.6c.3-.5 1.3-.7 1.7.7.3 1.1-.8 1.8-1.9 1.6H30.9c-.2 0-.3-.1-.4-.1-.6-.2-1.1-.5-1.5-1-.3-.4-.5-.9-.7-1.3 0 0-.1 0-.2.1 0 .2-.1.3 0 .5 0 .2.1.3.2.5 0 .1-.1.2-.1.2-.5.1-.6-.2-1-.9v-.1c0 .1-.1.3-.2.4-.2.2-.3.3-.5.4-.2.1-.5.1-.7.1l-.6-.3c-.2-.2-.3-.3-.4-.5-.1-.2-.1-.4-.2-.6s0-.4.1-.7c.2-.5.8-.3 1.1.2.2.3-.1.6-.4.5-.1 0 .1.6.4.4.4-.3.5-.2.5-.2l.1-.1c0-.1.1-.1.1-.2.1-.3.1-.5.1-.8 0-.3.1-.7.2-1 0-.1-.1-.1-.2-.1l-.2.2c-.1.1-.3.2-.4.2h-.5c-.2 0-.3-.1-.4-.2-.1-.1-.2-.2-.3-.4 0-.1-.1-.2-.2-.3-.1-.1-.2-.2-.2-.3 0-.5.4-.9.8-.4.1.1.1.2.1.3 0 .1 0 .2.7.3 0 0 .1-.2 0-.3 0-.1-.1-.1-.2-.1s-.2 0-.2-.1c-.2-.2-.1-.3-.1-.4v-.5c0-.1.1-.1.2-.1.2.3.4.5.7.6.1 0 .2.1.3.1-.1-.2-.2-.5-.2-.7 0-.2.1-.3.3-.3h.2c.6-.2 1.2-.3 1.8-.3-.2-.2-.3-.4.1-.5h.1c1-.3 1.2-1.2 1.3-2 0-.1 0-.2.1-.4s-.1-.3-.2-.1c0 .1-.1.2-.1.3-.2.7-.4 1.3-1.1 1.7-.1.1-.2.1-.4.2s-.4.1-.7.2l-.9.3c-.2.1-.3.1-.4.2h-.1c-.3.2-.7.5-1 .2v-.5c-.8-.9-1.7-2-.4-2.2.3-.1.7-.1.6.2zm22.6-46.4c0 .1.2.2.3.1.1 0 .1-.1.1-.2s0-.1.1-.2h.2c.1 0 .2.2.2.3 0 .1.1.2.1.2.1-.3.4-.3.7-.3.1 0 .2.1.2.1 0-.2-.1-.4-.2-.5-.2-.1-.3-.2-.5-.3h-.6c-.2.1-.3.3-.4.5-.1.2-.1.2-.2.3zm-22.2 0c0-.1-.1-.1-.1-.2-.1-.2-.2-.4-.4-.5-.2-.1-.4-.1-.6 0-.2 0-.4.1-.6.3-.1.1-.2.3-.2.5.1-.1.1-.1.2-.1.3-.1.6 0 .7.3.1 0 .1-.1.2-.2 0-.1.1-.2.2-.3h.2c0 .1.1.1.1.2s0 .2.1.2c0 0 .3-.1.2-.2zm8.8 41.9-.2-.2-.2-.2c-.1.2 0 .3.2.4h.2zm5.1-.3-.2.2-.2.2h.2c.2-.1.3-.3.2-.4zm4-2.3c0-.1-.1-.1-.1-.2h-.1l-.3.2c.1 0 .1 0 .2.1H44c.1 0 .1-.1 0-.1zm4.4-2.3c-.2 0-.4 0-.6-.1-.1 0-.2-.1-.2-.1l-.3.2h.1c.2.1.3.1.5.1.1 0 .3 0 .5-.1 0 .1 0 .1 0 0zm2-1.7c-.2-.1-.3-.1-.4-.2-.1-.1-.2-.1-.2-.2-.1.1-.1.2-.2.2.1.1.3.2.5.2 0 .1.2.1.3 0 .1.1.1 0 0 0zM47 25.4l.3-.1.3-.1c-.2-.6-.1-1.2.2-1.7-.1 0-.2-.2-.3-.3l-.1-.1h-.2c-.5.4-.6 1.4-.2 2.3zm-3.8-3.3s.1 0 0 0c.2.3.4.6.5.8.5.8.7 1.7.7 2.6h1.1l-.1-2.9c0-.2-.1-.3-.2-.5-.3-.4-.7-.7-1.2-.9-.1-.1-.1.1-.1.1 0 .1-.1.3-.2.4-.1.1-.2.3-.5.4zm-4.1-.3c-.1.1-.3.2-.3.4-.1.2-.1.3 0 .5.1-.1.2-.1.4-.2h.3c.1 0 .2.1.2.2.3-.3.6-.4.9-.1.9-.3 1 0 .9.6h.3c.2.1.2.3 0 .6l.1.1v.2s0 .1-.1.1c-.2.2-.4.3-.6.4l.6.3.9.3c.1-.2.2-.3.3-.4l.2-.2s.1-.1.1-.2 0-.1-.1-.1c-.1.1-.2.1-.2.2-.4.2-.6-.2-.4-.4.4-.5.2-1.3-.4-1.8h-.4c-.5 0-1.1-.3-1.4-.6-.2 0-.5 0-.7.1-.2-.1-.4-.1-.6 0zm-3.9-6.7c0 .1 0 .1 0 0 .1.1.1.1.1.2.4.5.6 1 .8 1.5.2.7.2 1.4 0 2-.1.3-.2.6-.4.9.1 0 .2 0 .2.1.1 0 .1.1.1.2s.1.2.1.3c0 .1.1.1.1 0 0-.2.1-.3.2-.4.1-.1.2-.3.3-.4.1-.1.3-.2.5-.2s.4.1.5.2l.3.3c.1.2.2.4.2.5 0 .1.1 0 .1 0 0-.1 0-.2.1-.4 0-.1.1-.1.2-.2.1 0 .1-.1.2-.1-.2-.3-.3-.6-.4-.9-.2-.7-.2-1.4 0-2.1.2-.5.4-1 .7-1.5 0 0 0-.1.1-.1 0 0 0-.1.1-.1h-.1c-.3-.1-.5-.2-.7-.3l-.2-.1c-.1 0-.1.1-.1.2.1.6.2.9-.2 1h-.1c0 .3 0 .6-.1.9 0 .1-.1.2-.2.3-.1.1-.2.1-.3.1-.1 0-.2-.1-.3-.1-.1-.1-.2-.2-.2-.3-.1-.3-.2-.6-.1-.9h-.2c-.3-.1-.2-.5-.1-1 0-.1 0-.2-.1-.2s-.1.1-.2.1c-.2.1-.5.2-.8.3l-.1.2zm1.2 8.2c-.1.2-.2.3-.3.4.1.2.2.3.3.5h1.8c.1-.2.2-.4.3-.5 0 0 0-.1.1-.1h-.1c-.2-.1-.3-.3-.4-.5-.1-.2-.1-.5-.1-.8h-1.4c0 .5-.1.8-.2 1zm-5 1.2c-.1-.1-.2-.1-.2-.2h-.1v.1c0 .1 0 .1.1.2s.1.2.2.2c.1.1.2.2.3.4.5-.1 1-.3 1.5-.6-.4-.2-.9-.5-.6-.8-.3-.3-.2-.7.3-.6-.1-.6.1-.9.9-.6 0-.1.1-.1.2-.1h.2c.2 0 .3.1.4.3 0 0 .1 0 .1.1.1-.1.1-.2.2-.2h.3c.1 0 .3.1.4.2v-.5c-.1-.2-.2-.3-.3-.4-.2-.1-.4-.2-.6-.2-.1 0-.3-.1-.4-.1h-.2c-.2.2-.5.4-.8.5-.3.1-.7.2-1 .1-.6.6-.7 1.3-.4 1.8 0 .2-.1.6-.5.4zm-2.5 1.1H30c0-.9.2-1.8.7-2.5.1-.2.3-.5.4-.8l.1-.1h-.1c-.2-.1-.3-.2-.4-.4-.1-.1-.1-.2-.2-.4 0-.1 0-.2-.1-.1-.5.2-.9.6-1.2 1-.1.1-.2.3-.2.5l-.1 2.8zm-2.2-2.1c.3.5.3 1.1.2 1.7l.3.1c.1 0 .2 0 .3.1.3-.9.2-1.8-.2-2.2h-.1l-.1.1c-.1.1-.2.2-.4.2zM24.9 57l-.2-.2-.2.2c-.1.1-.3.2-.4.2v.1c.2 0 .3 0 .4-.1.1 0 .3-.1.4-.2zm2.4 1.9c-.1 0-.1 0 0 0l-.3-.2c-.1.1-.2.1-.2.1-.2 0-.4.1-.6.1v.1c.2.1.4.1.6.1.1 0 .2-.1.5-.2zm3.7 2.3-.3-.2h-.1c0 .1-.1.2-.1.2-.1.1-.1.1 0 .1H30.8c.1 0 .2-.1.2-.1zm3.2 1.2c.1.1.2.2.3.2l.1.1.6.5c.2.2.5.4.7.6h.1l.3.3.3.3.1.1.2.2c.1 0 .1.1.2.1s.1 0 .2-.1.1-.2.2-.2l.1-.1.3-.3.4-.4.2-.2c.2-.2.4-.3.5-.4l.6-.4c.7-.5 1.4-1 2.1-1.4.3-.2.6-.4 1-.6.1-.1.3-.2.4-.2l.3-.2.2-.1c.1-.1.3-.2.4-.2.4-.2.7-.4 1.1-.7.7-.4 1.3-.8 2-1.3.1-.1.2-.2.4-.3.1 0 .1-.1.2-.1.6-.4 1.1-.9 1.6-1.5.2-.3.4-.5.6-.8 1.6-2.3 1.9-4.9 1.5-7.7-.1-.5-.1-1-.2-1.5-.2-1.2-.3-2.4-.5-3.7v-.1c-.3-2.5-1-8-.1-10.3.3-.8 1.6-1.9 2.4-2.5.1-.1.2-.2.3-.2h.1l.6-.5-.9-1.3-2.2-2.9c-.3.2-.7.4-1 .5-.7.3-1.4.6-2.2.8h-.1c-.1 0-.3.1-.4.1-.7.1-1.3.2-2 .2-.5 0-1-.1-1.5-.1-.2 0-.3 0-.4-.1-.5-.1-.9-.2-1.4-.4-.4-.2-.9-.3-1.3-.6h-6.7c-.9.4-1.8.7-2.7 1-.1 0-.3.1-.4.1-.5.1-1 .1-1.5.1v-.1c-.7 0-1.3 0-2-.2-.2 0-.3-.1-.5-.1h-.1c-.8-.2-1.5-.4-2.2-.8-.3-.2-.7-.3-1-.5l-2.2 3-.9 1.3s.1 0 .1.1c.2.1.3.3.5.4 0 0 .1.1.2.1s.1.1.2.1c.8.7 2.1 1.7 2.4 2.5.8 2.3.2 7.7-.1 10.2v.2c-.2 1.7-.4 3.4-.7 5.1-.4 2.8-.1 5.4 1.5 7.7.2.3.4.5.6.8.5.5 1 1 1.6 1.5.2.1.4.3.5.4.6.5 1.3.9 2 1.3l1.5.9.2.1.3.2c1 .7 2 1.3 3 2zM45.3 16c.2.3.5.5.9.6.3.1.7.2 1.1.1.2 0 .3 0 .5-.1.2 0 .4-.1.6-.3.6-.5 1.1-1 1.6-1.7.4-.5.9-1 1.5-1.4.1-.1.2 0 .1.1-.4.3-.7.7-.9 1.2-.2.5-.3 1-.3 1.5s.2 1 .4 1.5c.3.5.6.8 1 1.1.1 0 .1.1.1.2s.1.2.3.2c0 1.1.4 1.5 1 1.8.4.2.8.5 1.1.8.2.2.3-.2.2-.5.1 0 .3.1.4.2.1.1.2.2.2.3-.9.4-1.7 1-1.9 1.9-.1.3-.1.6 0 .9 0 .2.1.4.2.6.2.4.4.7.8.8.4.2.8.2 1.2 0 .3-.1.5-.2.6-.4.2-.2.3-.5.3-.7 0-.1 0-.2-.1-.2-1.1.3-.8-1.9 0-2 .1 0 .2.1.2.1 0 .1 0 .1.1.1s.1-.2.1-.3c0-.1 0-.2.1-.3.2-.1.3.2.5.4.1.1.1.2.2.3.5.7.5-.4.3-.8-.1-.2.1-.2.2 0 .3.3.4.6.4 1 .2.7-.2.7-.8.4-.2-.1-.2.1-.3.3 0 .1 0 .2-.1.3-.1.1-.1 0-.2-.2 0-.1-.1-.1-.1-.2-.1-.1-.2-.1-.2 0-.2 1.4.9 1.7 1.7 1.3 1-.5 1.1-1.7.4-2.9v-.1c0-.1 0-.2.1-.2 1.1.1 2.1.4 3.1.9 2.8 1.3 5.8 4 6.3 7.5.1 1-.7 2.5-1.7 2.5-.1 0-.1.1-.1.2.3.6.8.6 1.6.4 0 .5-.6 1.3-1.1 1.3-.7-1.5-1.7-1-1.8-.5-.1.3 0 .6.1.9.2.3.4.5.7.6 1.5.7 2.7-.3 3.2-2.2.4.8 1.1 1.1 1.7.8v.1l.1-.1v-.2c-.9-1-.9-1.7-1-2.6 0-.5-.1-1-.3-1.7-1-3.9-4.3-6.8-7.6-8.1-1.3-.6-2.8-.8-4.2-.8-.3 0-.3-.1-.2-.1 1.9-.4 3.2-1.2 4.2-1.9.1-.1.2-.1.2-.2 1.1-.7 1.9-1.2 2.8-.5 0 0 .2 0 .2-.1 0-.8-.7-.9-1.5-.9 0 0-.1-.1-.1-.2l.5-.5c1.3-1.2 2.6-2.3 4.6-1-.1.2-.2.4-.2.6 0 .2.1.4.2.6-.4.7.2 1.1.4.6 0 0 0-.1.1-.1.1-.2.3-.5.3-.2 0 .4-.3.8-.6 1.2 0 .1-.1.1-.1.2v.1s0 .1.1.1c.7.3 1-.5 1.1-.9.1-.2.1-.2.1-.1-.1 1.3-.9 1.9-1.9 1.1-.1-.1-.2-.1-.3.1-.1.2-.1.5.4.9-.1 0-.3 0-.4-.1l-.3-.3c.3-.9-.8-1.1-.8-.5 0 .1 0 .5-.2.3-.1-.2-.2-1.3.6-1.4v.3c0 .1.1.1.2.2.1 0 .2.1.2.1.1 0 .2 0 .2-.1.1 0 .1-.1.1-.1 0-.1.1-.1.1-.2v-.2c0-.1-.1-.1-.1-.2-.9-1.2-2.5.8-1.8 1.8 2.2 3 5.2-.7 4-2.9-.9-1.7-3.1-2.2-4.8-1.5H65c-.2.1-.4.2-.5.2-1 .6-1.9 1.4-2.6 2.3-.3.3-.5.7-.8.9-.2.2-.3 0-.2-.1.9-1.2.8-1.7.5-2.1-.1-.1-.4-.1-.3.1.1.3 0 .3-.1.4-.1 0-.2.1-.3.2-.4.5-.5.8-.5 1 0 .3-.1.5-.5.8-.1.1-.1-.1-.1-.1.4-.6.4-1.1 0-1.5H59.3v.1c0 .3-.2.5-.3.5-.1 0-.1.1-.1.1-.1.3-.3.7-.4 1-.3.4-.6.6-1 .9s-.8.3-1.3.3c-.1 0-.1-.2.1-.2 1.1-.3 1.7-.8 1.7-1.7 0-.2-.2-.2-.3 0-.1.2-.3.3-.6.4-.2.1-.5.2-.9.5.2-.2.2-.5.2-.8 0-.1-.2-.1-.2 0 0 .2-.1.2-.4.2-.1 0-.3 0-.5.1h-.1c-.1 0-.2.1-.4.2-.3.2-.6.3-1.3.3-.1 0 0-.1 0-.2.1-.1.3-.2.5-.2.3-.1.6-.2.4-.5-.1-.2-.5-.2-1-.1h-.5c-.5 0-1 0-1.2-.4.3.1 1.1.1 1.1-.3 0-.3-.4-.5-.7-.7-.3-.2-.6-.3-.7-.5-.4-.8 0-1.8.4-2.2.3-.3.7-.6 1.2-.6.2 0 .4 0 .6.1.2.1.4.3.5.4-.2 0-.5 0-.7.2-.2.1-.4.3-.4.5-.2.3-.2.7-.2 1s.1.7.2 1c.1.2.3.5.5.6.2.2.4.3.7.4.4.2.7.2.8-.1.1-.6.1-.9-.1-.9-.2-.1-.6 0-.4.3.2.3.1.5-.2.4-.2-.1-.5-.2-.6-.4-.2-.2-.3-.4-.4-.6-.1-.2-.1-.5-.1-.7s.1-.5.3-.7c.1 1.3 1.4 1.1 1.7.2.1-.3.1-.6 0-.9-.1-.5-.4-.9-.8-1.2-.4-.3-.9-.5-1.4-.5-.5 0-1.1.1-1.6.3-.5.2-1 .5-1.3.9-.1.1-.1.1-.2.1-.4.2-.8.2-1.2.2-.4-.1-.8-.3-1-.5 0 0-.1-.1-.1-.2-.1-.2-.3-.1-.3 0 0 .2 0 .4.1.6.1.2.2.3.4.5.5.2 1 .3 1.6.2.1 0 .1.1 0 .1-.3 0-.4.1-.5.2-.1.1-.1.1-.2.1-.3.1-.6 0-.9-.1-.2-.1-.4-.2-.5-.3-.1 0-.1-.1-.2-.1H47c-.1.2-.1.4 0 .5.1.2.2.3.3.4.2.1.3.1.5.2.2 0 .4 0 .6.1-.2.2-.4.4-.6.4-.2.1-.3.1-.5.1-.4 0-.8-.1-1.2-.3-.7-.4-.4-1.6.1-1.7.2 0 .3-.1.2-.2-.3-.3-.8-.2-1.1.2-.2.5-.3.8-.3 1.2 0 .3.1.7.3.9v.1zM5.5 33.8c.5 2 1.7 2.9 3.2 2.2.3-.1.6-.3.7-.6.2-.3.2-.6.1-.9-.1-.5-1.1-1-1.8.5-.6-.1-1.1-.8-1.1-1.3.8.2 1.3.2 1.6-.4 0-.1 0-.2-.1-.2-1.1-.1-1.9-1.6-1.8-2.6.4-3.5 3.5-6.2 6.3-7.5 1-.5 2-.8 3.1-.9.1 0 .1.1.1.2-.7 1.3-.5 2.4.4 2.9.8.4 1.9 0 1.7-1.3 0-.1-.1-.2-.2 0 0 .1-.1.1-.1.2s-.1.2-.1.2c-.1-.1-.1-.2-.1-.3 0-.2-.1-.4-.3-.3-.7.3-1 .3-.8-.4 0-.4.2-.7.4-1 .1-.1.3-.1.2 0-.3.4-.2 1.5.3.8.1-.1.1-.2.2-.3.2-.3.3-.5.5-.4.2 0 .1.2.1.3 0 .1 0 .2.1.2 0 0 .1 0 .1-.1s.1-.2.2-.1c.8.2 1.1 2.3 0 2-.1 0-.1.1-.1.2 0 .3.1.5.3.7.2.2.4.4.6.4.4.1.8.1 1.2 0 .4-.2.7-.5.8-.8.1-.2.2-.4.2-.6.1-.3.1-.6 0-.9-.2-.8-1-1.4-1.9-1.9.1-.1.1-.2.2-.3.1-.1.2-.1.4-.2-.1.3 0 .8.2.5.3-.3.7-.6 1.1-.8.5-.3 1-.6 1-1.8.2 0 .2-.1.3-.2 0-.1 0-.1.1-.2.4-.3.8-.7 1-1.1.3-.5.4-1 .4-1.5s-.1-1-.3-1.5c-.2-.5-.5-.9-.9-1.2-.1-.1 0-.1.1-.1.6.4 1.1.8 1.5 1.3.5.6 1 1.2 1.6 1.7l.6.3c.2.1.4.1.5.1.4 0 .7 0 1-.1.3-.1.6-.3.8-.6 0 0 0-.1.1-.1h-.1c.2-.3.3-.6.3-.9 0-.3-.1-.7-.3-.9-.3-.4-.8-.5-1.1-.2-.1.1 0 .2.2.2.6.1.8 1.3.1 1.7-.4.2-.8.3-1.2.3-.2 0-.4-.1-.5-.1-.2-.1-.4-.2-.6-.4.2 0 .4 0 .6-.1.2 0 .4-.1.5-.2.2-.1.3-.2.3-.4.1-.2.1-.4 0-.5l-.1.1c-.2.1-.4.2-.5.3-.3.1-.6.1-.9.1-.1 0-.1-.1-.2-.1-.1-.1-.2-.2-.5-.2-.1 0-.1-.2 0-.1.5.1 1.1.1 1.6-.1.2-.1.3-.3.4-.5.1-.2.1-.4.1-.6 0-.1-.1-.3-.3 0 0 .1-.1.1-.1.2-.3.3-.6.5-1 .5-.4.1-.8 0-1.2-.2-.1 0-.1-.1-.2-.1-.4-.4-.8-.7-1.3-.9-.5-.2-1-.3-1.6-.3-.5 0-1 .2-1.4.5-.4.3-.7.7-.8 1.2-.1.3-.1.6 0 .9.3.9 1.6 1 1.7-.2.1.2.2.4.3.7 0 .2 0 .5-.1.7-.1.2-.2.5-.4.6-.2.2-.4.3-.6.4-.3.1-.4-.1-.2-.4.1-.3-.1-.5-.4-.3-.1.1-.2.4-.1.9.1.3.3.3.8.1.3-.1.5-.2.7-.4.2-.2.4-.4.5-.6.1-.3.2-.7.2-1 0-.3-.1-.7-.2-1-.1-.2-.2-.4-.4-.5-.2-.1-.4-.2-.7-.2.1-.2.3-.3.5-.4s.4-.1.6-.1c.5 0 .9.3 1.2.6.4.4.8 1.4.4 2.2-.1.2-.4.4-.7.5-.4.2-.7.4-.7.7 0 .4.8.4 1.1.3-.5.2-1 .2-1.5.2h-.6c-.4 0-.8-.1-.9.1-.1.4.1.5.4.5.2 0 .4.1.5.2 0 0 .1.2 0 .2-.7 0-1-.2-1.3-.3-.1-.1-.2-.1-.4-.2H19c-.2 0-.4-.1-.5-.1-.2 0-.4 0-.4-.2 0-.1-.2-.1-.2 0 0 .3 0 .6.2.8-.3-.3-.6-.4-.9-.5-.2-.1-.4-.2-.6-.4-.1-.2-.3-.2-.3 0 0 .9.5 1.4 1.7 1.7.1 0 .2.2.1.2-.5 0-.9-.1-1.3-.3-.4-.2-.8-.5-1-.9-.2-.3-.3-.6-.4-1 0-.1-.1-.1-.1-.1-.1-.1-.3-.2-.3-.5v-.1H14.7c-.4.4-.3.9 0 1.5 0 .1 0 .2-.1.1-.4-.3-.5-.6-.5-.8 0-.3-.1-.6-.5-1-.1-.1-.2-.2-.3-.2-.1 0-.2-.1-.1-.4.1-.2-.2-.2-.3-.1-.3.4-.4.9.5 2.1.1.1 0 .3-.2.1-.1-.1-.1-.2-.2-.3-.2-.2-.4-.4-.5-.7-.7-.9-1.6-1.7-2.6-2.3l-.6-.3c-1.7-.7-3.9-.2-4.8 1.5-1.2 2.2 1.8 6 4 2.9.7-1-.8-3-1.8-1.8 0 .1-.1.1-.1.2v.2c0 .1 0 .1.1.2 0 .1.1.1.1.1.2.1.2.1.3.1.1 0 .2 0 .2-.1.1 0 .1-.1.2-.2v-.3c.7 0 .7 1.1.6 1.4-.1.3-.1 0-.1-.2 0-.6-1.1-.4-.8.5l-.3.3c-.1.1-.3.1-.4.1.4-.3.5-.6.4-.9 0-.1-.2-.1-.3-.1-1 .8-1.8.2-1.9-1.1 0-.2.1-.1.1.1.2.4.5 1.2 1.2.9 0 0 .1 0 .1-.1v-.1c0-.1-.1-.1-.1-.2-.3-.4-.6-.8-.6-1.2 0-.3.2-.1.3.2 0 0 0 .1.1.1.3.4.9.1.4-.6.1-.2.2-.4.2-.6 0-.2-.1-.4-.2-.6 2-1.3 3.3-.2 4.6 1l.5.5c.1.1 0 .2-.1.2-.9 0-1.6.2-1.5.9 0 .1.1.1.2.1.9-.7 1.7-.2 2.8.5.1.1.2.1.3.2 1 .7 2.3 1.6 4.2 1.9.1 0 .1.2-.2.1-1.5-.1-2.9.2-4.2.8C9.3 23.1 6 26 5 29.9c-.2.7-.2 1.2-.3 1.7-.1.9-.1 1.6-1 2.6v.2c0 .1 0 .1.1.1.6.4 1.2 0 1.7-.7zM30.8 2.7l-.3-1.4.3.1c.1.1.3.1.4.2h.1c1 .6 1.5 1.3 1.1 2.5.2-.1.6-.3.9-.3.3-.1.7 0 1 .1v.2c-.4 1-1 1.4-1.7 1.4l.3.9c.5.2 1 .2 1.5.2h.4c.2 0 .4-.1.6-.1.3-.1.5-.1.8-.2h.1c.1 0 .2-.1.2-.1 0-.2.1-.2.2-.2V4.4h-.5c-.3-.1-.5-.2-.8-.4-.3-.3-.5-.6-.6-1v-.1c.2 0 .4-.1.6-.1.3 0 .5 0 .8.1.1 0 .2.1.3.1h.1l-.1-.1c-.1-.2-.2-.5-.2-.8s.1-.5.2-.8l.3-.6c.1-.2.3-.4.4-.7.1.1.2.2.3.4.1.1.1.2.2.3.1.2.2.3.3.4.2.3.2.6.2.9 0 .3-.1.6-.2.9.1-.1.3-.1.4-.1.2-.1.5-.1.7-.1.2 0 .4 0 .6.1v.1c-.1.4-.3.7-.6 1-.2.2-.5.3-.7.4h-.5V6h.1c.1.1.2.1.4.2.3.1.5.2.7.2.2.1.4.1.6.1.7.1 1.3 0 2-.2l.2-.7.1-.2h-.1c-.8 0-1.3-.5-1.7-1.5 0 0 0-.1.1-.1.5-.2 1.1-.1 1.6.2l.2.2c-.4-1.1.2-1.9 1.1-2.5.1-.1.3-.2.4-.2l.4-.2h.1l-.4 1.5-.4 1.8-.7 2.8c-.2 0-.3.1-.4.2-.1.1-.2.3-.2.4 0 .1 0 .2.1.3.1.1.1.2.3.2l-.3 1.1h-9.7l-.3-1.1c.1 0 .2-.1.3-.2.1-.1.1-.2.1-.3 0-.2-.1-.3-.2-.4-.1-.1-.3-.2-.4-.2l-.7-2.8-.4-1.9zm8.5 5.2c0 .1 0 .3.1.4.1.1.2.2.3.2h.4c.1 0 .1-.1.2-.1.1-.1.1-.1.1-.2V8c0-.2-.1-.3-.2-.4-.1-.1-.3-.2-.4-.2h-.2c-.1 0-.2.1-.3.2.1.1 0 .2 0 .3zm-2.7 0c0 .1 0 .2.1.3.1.1.1.2.2.2.1.1.2.1.3.1.1 0 .2 0 .3-.1.1-.1.2-.1.2-.2.1-.1.1-.2.1-.3 0-.1 0-.2-.1-.3-.1-.1-.1-.2-.2-.2-.1-.1-.2-.1-.3-.1-.1 0-.2 0-.3.1-.1.1-.2.1-.2.2s-.1.2-.1.3zm-2.7 0c0 .1 0 .2.1.3 0 .1.1.2.2.2.1.1.2.1.3.1h.1c.1 0 .2-.1.3-.2.1-.1.1-.2.1-.4 0-.1 0-.3-.1-.4-.1-.1-.2-.2-.3-.2h-.1c-.1 0-.2 0-.3.1-.1.1-.2.1-.2.2s-.1.2-.1.3zM19.1 58.1c-.1 0-.2.1-.3.2-.1 0-.1.1.1.1l.2-.1c.8-.2 1.6-.6 2.2-1.2l.3-.3c.9-1 1-3-.2-4.3l-.1-.1c-.5-.5-1.7-.4-2-.1-.4.4 0 1.1.3 1.3.1.1.2.1.3.1.2 0 .3.1.3.2.1.3.1.6 0 1-.1.3-.3.6-.5.8 0 0-.2 0-.2-.1.1-.5.1-1 0-1.4 0-.1-.1-.2-.2-.2-.1-.1-.2-.1-.3-.1-.2 0-.3.1-.5.2s-.3.2-.4.4v.2c.1.4.1.7-.2.8h-.1c0-.2-.1-.3-.1-.5 0-.1 0-.1-.1-.2h-.2v.1c0 .1 0 .1-.1.1-.3-.1-.4.1-.4.3 0 1.1-1.7 1.4-2.4.8v-.2c1.4.6 1.8-.1 1.9-.4h-.2c-.1 0-.2.1-.2.1s-.1 0-.1-.1v-.2l.1-.1c.4-.1.6-.2.6-.7V54.2h-.2v-.4c-.1-.1-.2-.1-.3 0-.1 0-.1 0-.2.1-.1 0-.2 0-.2-.1-.1 0-.1-.1-.2 0s-.1.2-.1.2c0 .1-.1.2-.1.2-.1 0-.1.1-.1.2.1.4-.2.5-.5.5 0 0-.1 0 0-.1.2-.2.3-.4.1-.7-.2.2-.5.3-.7.4-.3.1-.6.1-.8 0 0 0-.1 0-.1.1-.1.2-.2.3-.4.3l-.1.1c1.6 2.3 3.6 2.7 5.9 1.7l.1.1c-2.2 1.5-4.7.7-6.1-1.5 0-.1-.1-.1-.2-.1h-.1c-.2 0-.4 0-.5-.1-.2-.1-.3-.2-.4-.3h-.1c0 .3-.1.7-.1 1 0 0 0 .1.1.1.2 0 .5-.1.5.2 0 .2-.1.4-.1.5-.1.3-.2.5-.1 1 .1.4.3.5.5.5.1 0 .2 0 .3.1l.1.1c0 .1.1.2 0 .3s-.1.2-.1.3c0 .1-.1.1-.1.1-.1.2-.3.3-.2.5 0 .1.2.1.3.1.1 0 .2 0 .2.1.1.1.3.1.4.1.2 0 .3-.4.3-.8 0 0 0-.1-.1-.1s-.3-.1-.2-.3c.1-.2.2-.2.3-.3l.3-.3v-.2c0-.1-.1-.1-.3-.2-.3-.1-.9-.4-.9-.8 0-.1.1-.1.2-.1.4.4.7.5.9.5.2 0 .3.1.3.2.1 1.5.9 1.9 2.4 1.9v.1h-.1s-.1 0-.1.1l.2.2c.2.2.3.4.2.6-.4 1-1.1.7-.8.4 0 0 .1 0 .1-.1.1 0 .2-.1.2-.1.1-.2.1-.3 0-.5 0-.2-.2-.3-.3-.4-.4-.1-1 .4-1 1 .1.8 1.2 1 1.7.2h.2c.2.1.2.3.2.5h.1c.5-.4.5-1 0-1.8-.1-.1.1-.1.1-.1.2 0 .2.1.3.2 0 .1 0 .1.1.1.3-.8-.1-1-.5-1.1-.2-.1-.5-.2-.6-.4v.1c0-.1 0-.1.1-.1.8.1 1.6 0 2.3-.4.4-.3.7-.7.9-1.1.1-.2.2 0 .2 0-.1.3-.2.6-.4.8.3.3.1.5-.2.6zm38.6 45.7c0 .6.1 1.1.3 1.6 0 .1-.1.1-.2.1-2.6-.1-4.5.9-5.1 2.5-.1.2-.1.5-.2.7h-.1c-2.1.2-4.7-1.4-4.7-5.1v-7.8c0-.6-.1-1.1-.3-1.6v-.1c-.1-.1 0-.1.2-.1 2.5.2 4.5-.9 5.1-2.5.1-.2.1-.5.2-.7h.1c2.1-.2 4.7 1.4 4.7 5.1v7.9zm-3.6 1.8c-.1-.5-.1-.9-.1-1.4v-7.3c0-1.6-.6-2.4-1.3-2.8-.2-.1-.4-.2-.7-.2-.2 0-.5 0-.7.1.1.5.1.9.1 1.4v7.3c0 1.6.6 2.4 1.3 2.8.2.1.4.2.7.2.3 0 .5 0 .7-.1zM38.2 73.8c-.1 0-.1.2-.1.2.1.1.2.2.2.4.1.1.1.3.1.4v.1l.2.2v.1h-.5c-.1 0-.2 0-.3-.1-.2-.1-.3-.2-.4-.3h-.2c-.1.2-.3.3-.4.3-.1 0-.2.1-.3.1h-.4s-.1 0 0-.1l.1-.1.1-.1v-.1c0-.1 0-.3.1-.4.1-.1.1-.3.2-.4 0-.1 0-.1-.1-.1s-.2 0-.3-.1c-.1 0-.3-.1-.3-.2-.1-.1-.1-.3-.1-.4v-.1c.1 0 .3 0 .4-.1.1-.1.2-.1.3-.2l-.3-.3-.5-.5-.3.3-.1-.1.1-.1.2-.2-.7-.7.7-.7-.2-.2-.1-.1.1-.1.1-.1.3.3.3-.3.3-.3.3-.3v-.1c0-.5.3-.9.5-.9s.4.4.5.9v.2l.2.2.4.4.3.3.4-.3.1.1-.1.1v.2l.2.2.4.4-.4.5-.2.2.2.2.1.1-.1.1-.4-.2-.4.4-.3.3s.1 0 .1.1l.2.2c.1.1.2.1.4.1v.1c0 .1 0 .3-.1.4-.1.1-.2.2-.3.2 0-.1-.1 0-.2 0zm.6-3.2-.5.5.2.2.4.3.4-.4.2-.2-.7-.4zm-1.3-.1.2.2.3.3v.1l.4-.4.2-.2-.2-.2-.4-.4-.2-.2v.2c-.1.2-.1.4-.3.6zm-1.6 0 .2.2.3.3.3-.3.2-.2c-.1-.2-.2-.5-.2-.7v-.1l-.8.8zm-.2 1.2.4-.4.2-.2-.2-.1-.3-.4-.5.4-.1.1.1.2.4.4zm1.4.3-.4-.4-.3-.3-.3.3-.2.2.2.2.3.3.1.1.2-.2.4-.2zm.7-.7.2-.2-.2-.1-.4-.4H37.1l-.4.4-.2.1.2.2.5.5.6-.5zm.6.8.2-.2-.2-.2-.4-.3v.1l-.3.3-.3.2.4.3.2.2v-.1l.4-.3zM37 80.4c.1 0 .1.1.1.1.1.1.1.1.2.1s.1-.1.2-.1c0-.1.1-.1.1-.1h.2v-.2c-.2-1.1-.4-2.2-.4-3.3 0-.1-.1-.1-.1-.1s-.1 0-.1.1c-.1 1.1-.2 2.2-.4 3.3v.1c.1 0 .1 0 .2.1zm1.1-3.5c0-.1 0-.1 0 0 0-.1 0-.1 0 0-.1-.2-.2-.3-.3-.4-.2-.4-.3-.8-.4-1.3 0-.1-.1 0-.1 0v.1c0 .5.1 1.4.4 1.8l.1.1h.1s.1 0 .1-.1l.1-.2zm-1.2.1c.2-.4.3-1.3.3-1.8v-.1s0-.1-.1 0c-.1.4-.2.9-.4 1.3-.1.2-.2.3-.3.4v.1l.1.1h.2c.1.1.1 0 .2 0zm2.7-.3c0 .1.1.1.1.1h.1c.3-.1.5-.3.6-.6.1-.3.2-.5.1-.8 0-.1-.1-.1-.3-.1h-.6c-.1 0-.1.1 0 .2 0 0 0 .1.1.1l.1.1v.3c-.1.3-.1.5-.2.7zm1.4-1.8.8-.8c-.1 0-.1 0-.2-.1-.3-.1-.6-.2-.6.1h.1c0 .4-.4.6-1.1.6h-.2v-.1l.1-.1c.3-.2.6-.4.5-.7 0-.1-.2-.2-.3-.3h-.2c-.2.1-.4.3-.6.4-.2.1-.3.3-.4.4v.2c.1.2.3.3.4.4.1.1.2.2.3.2.1 0 .2.1.2 0H41c-.1-.1 0-.1 0-.2zm20.9-27.4c-.2 0-.5.1-.7.2-.2.1-.1.3.3.3h.4c.4 0 .9.1 1.3.4.4.2.7.5.9.9h.1c-.3-1.6-.9-3-2.3-3.4h-.2c-1.6-.4-2.3.5-2.2 1.1.1.5.7.4 1.3.3.3 0 .7-.1 1 0h.2v.1l-.1.1zM38.5 76.6s0-.1 0 0v-.1c-.2-.2-.3-.4-.4-.6-.1-.2-.1-.4-.2-.5 0-.1-.1 0-.1 0 0 .4.1.8.3 1.2v.1c.1 0 .3 0 .4-.1zm-3.8-22.1-.4.4c-.9.7-1.9 1.3-3.1 1.6-.1 0-.3.1-.4.1-.5.1-1 .1-1.5 0-.4-.1-.9-.2-1.2-.5-.3-.3-.6-.6-.8-1.1-.1-.3-.2-.7-.2-1-.1-.6 0-1.3.2-1.9.4-.9 1.1-1.7 2-2.2.5-.3 1-.5 1.5-.6.1 0 .3-.1.4-.1 1-.2 2-.3 3.1-.3h1c.2 0 .5 0 .7.1h.7l1 .2h.1c.1-.2.1-.4.1-.6 0-.2-.1-.4-.2-.5-.1-.3-.3-.5-.5-.7-.2-.2-.3-.3-.5-.4-.1-.1-.2-.2-.3-.2-.1-.1-.2-.1-.3-.2-.2-.1-.5-.2-.8-.3-.2-.1-.4-.1-.6-.2h-.4c-.2 0-.5 0-.7.1-.2.1-.4.3-.5.5 0 .1-.1 0-.2 0-1.1-1.2-.3-2.6 1-3.1-.6-.1-1.2 0-1.7.4-.5.3-.8.8-1 1.4-.1.4-.1.8 0 1.1.1.3.3.6.6.8.3.2.6.4.9.4.2.1.2.2.1.2-.5.1-1.1.1-1.6 0-.2 0-.3-.1-.4-.2-.7-.3-1.2-1-1.5-1.7-.3-.9-.3-1.8 0-2.6s.8-1.5 1.5-2c.1-.1.3-.2.4-.3.4-.2.8-.4 1.3-.5 0-.8.1-1.6.4-2.3.3-.7.8-1.4 1.4-1.9l.4-.4c.1-.1.2-.1.3-.2.1-.1.2-.1.4-.2.2-.2.5-.3.8-.4l.3-.2.3-.1s.1 0 .1-.1c.1-.1.3-.1.4-.2.2-.1.3-.2.5-.2l.3-.1c.1 0 .2-.1.3-.1.1 0 .1 0 .2-.1.3-.1.5-.2.7-.3l.6-.3.2-.1v-1.2l-.2.2c-.4.3-.9.5-1.3.7-.1 0-.3.1-.4.1-.1 0-.2 0-.3.1-.2 0-.3.1-.5.1h-2.9c-1-.1-2-.1-2.9 0h-.1c-.7.1-1.4.4-2 .8-1.4 1.2-1.1 3.2 0 3.9.2.1.5.2.7.2.3 0 .5 0 .8-.1.2-.1.3-.1.4-.2.1-.1.2-.1.3-.2.8-.6 1 .1.4.5-.3.2-.5.4-.8.5-.1.1-.3.1-.4.2-.5.2-1 .2-1.5.1-.8-.2-1.5-.6-2-1.2-.2-.2-.4-.5-.5-.8-.6-1.1-.8-2.4-.5-3.7.2-.8.6-1.5 1-2.1.5-.7 1.2-1.3 2-1.7.5-.2 1-.4 1.5-.5.1 0 .2 0 .3-.1h.1c1-.1 2.1 0 3.1.4 0 0 .1 0 .1.1.1 0 .2.1.3.1l.6.3c.1 0 .2.1.3.1.2.1.3.2.5.3 0 0 .1 0 .1.1.1 0 .1.1.2.1l.1.1c.1 0 .1.1.2.1.1.1.2.1.4.2.1 0 .1.1.2.1.2.1.3.2.5.2.1 0 .2.1.3.1.1.1.3.1.4.1.2.1.5.1.7.1.2 0 .4-.1.6-.2.1 0 .2-.1.2-.2-.1-2.1.6-2.8 1.3-2.5.8.3.5 1.5-.7 2.9v1.4c.5-.3.9-.6 1.3-1 .4-.5.7-1.1.8-1.7h.1c.2.1.3.1.5.2l.4.2c.5.2 1 .5 1.5.8.8.5 1.5 1.3 2 2.2.3.6.4 1.3.5 1.9.1 1.1-.1 2.3-.5 3.4-.4.9-1.1 1.7-2 2.1-.5.2-1 .4-1.5.5l-.4.1h-.3v.1c-.4 0-.3.5 0 .5h2.2c.7-.1 1.4.2 2 .6.2.2.4.5.5.8.1.4.2.8.2 1.3v4.2c0 .3.1.6.1 1 0 .2.1.4.1.6v.1h-.8c-.7 0-1.3.1-2 .2-.5.1-1 .2-1.5.4-.1 0-.3.1-.4.2-.5.2-1 .5-1.4.9-.8.8-1.3 1.9-1.3 3l-.6-.3s-.1 0-.1-.1l-.6-.3-.7-.3c-.1-.1-.3-.1-.4-.2-.1 0-.2-.1-.3-.1l-.5-.2h-.1c-.1 0-.3-.1-.4-.1H37c-.1 0-.1 0-.2-.1l-.3-.1-.4-.1-.3.3c-.7.2-.9.4-1.1.6zm5.9-13.3h.5c.3 0 .6-.1.8-.3 1.5-1.2 1.9-5.4 0-6.5-.4-.2-.8-.3-1.3-.3v7.1zm0 8.9c.4.1.8.3 1.3.4.5.2.9.3 1.4.5.1 0 .1 0 .2.1-.1-.2-.1-.4-.2-.7-.1-.4-.1-.8-.1-1.2v-4.6c0-.7-.3-1.5-1.3-1.6h-1.3v7.1zm-2.7-8.9s0 .1.1.1v.1c.1.3.3.5.4.8.4.9.6 1.8.7 2.8.1.6.1 1.2 0 1.8-.1.9-.4 1.7-.7 2.5 0 0 0 .1-.1.1h.1l.7.2c.2 0 .4.1.6.2l.2.1V34.2h-.2c-.2.1-.4.1-.6.2-.3.1-.5.2-.7.4-.1.1-.3.2-.4.3l-.3.3c-.2.3-.4.6-.5.9-.3.9-.3 1.9 0 2.8.1.5.3 1 .5 1.5.1.3.2.5.2.6zm-3.2 12.4c.1-.1.1-.1.1-.2l.1-.1c-.1 0-.1 0-.2-.1l-.4-.1c-1-.2-2-.2-3.1-.1-.2 0-.3.1-.4.1-.3.1-.6.2-.9.4-.3.2-.5.4-.6.7-.1.2-.1.5-.1.7 0 .2 0 .3.1.4.2.5.8.6 1.5.5.2 0 .3-.1.4-.1 1.1-.3 2.2-.9 3.1-1.8.1 0 .2-.1.4-.3zm7.2 14.1c.2-.2.3-.3.3-.4 0-.1-.1-.2-.3-.2-.1 0-.2 0-.2.1-.1-.1-.2-.1-.4 0h-.1v-.6c0-.1-.2-.1-.3 0-.3.2-.6.4-1 .4H39c-.2 0-.4.1-.6.2-.1 0-.3.1-.4.2-.1.1-.2.1-.3.2l-.1.1c-.1.1 0 .3.1.3h.1l.2-.1.4-.1c.2-.1.5-.1.7-.1.2 0 .4 0 .6.1.4.1.8.4 1 .8.3.4.4.8.4 1.2 0 .1-.1 0-.1 0 0-.4-.2-.7-.4-1-.2-.3-.5-.5-.9-.6-.2-.1-.4-.1-.6-.1H38c-.1 0-.2 0-.3.1l-.1.1V68.6c.1.2.2.3.3.5.1.2.3.4.4.5.1.1.1.1.2.1s.2 0 .2-.1c.2-.1.2-.3.3-.4v-.1c0-.1 0-.1.1-.2l.1-.1h.1s.1 0 .1.1v1.4c0 .2.1.3.3.2h.1c.2-.1.2-.2.2-.3 0-.1.1-.2.1-.3.1-.1.2 0 .2 0 0 .3 0 .5-.1.7-.1.2-.2.4-.4.6 0 .1-.1.1-.1.2V71.7c0 .1.1.2.1.2 0 .1 0 .2-.1.2l-.1.1s-.1 0-.1.1c-.2.1-.1.2.1.3l.2.1c1.1.3 1.6-.6 1.9-1.9 0-.1.2-.1.3 0 .1.1.2.3.4.4 0 0 .1 0 .1-.1.1-.3.1-.5 0-.8s-.2-.5-.4-.7H42v-.2c.1-.1.3-.1.4 0h.2c.4-1.1.2-1.7-.6-1.8-.2.3-.2.2-.1.1zm15-19.6c.1 1.5.9 2 1.6 1.9 1.3-.2 1.5-1.7 1.2-2.4-.4-.8-1.1-.6-1.6.3-.2.4 0 .6.3.6h.2c.1 0 .2-.1.3 0 0 0 .1.1 0 .2-.3.3-.9.3-1.2-.4-.2-.5-.2-1-.2-1.5 0-.1.2-.1.2 0v.1c0 .1 0 .3.1.4.1.1.2.1.3 0 .3-.2.3-.6.4-1 .1-.5.2-1 .6-1.3.2-.1.3.1.2.2-.5.6-.7 1.2-.3 1.4.2.1.2.1.3-.1.5-1.3 1.6-1.4 2.6-1 .5.2.9.5 1.2.9 0 0 .2 0 .1-.2-.3-.5-.8-1-1.3-1.3-.6-.3-1.2-.5-1.8-.5 0 0-.1-.1 0-.1.4-.3 1.1-.2 1.9.3.4.3.9.6 1.2.9 0 0 .1 0 .1-.1 0-.3-.1-.6-.7-1.3V44c.1 0 .1-.1 0-.2-.2-.2-.4-.3-.7-.5-1.2-.6-2.4-1.1-3.7-1.3-1.6-.4-1.8-.8-1.6-1.8.2-.6-.6-1.2-1.3-.6l-.2.2c-.2.3-.3.6-.3.9 0 .3.2.7.4.9.5.5 1.4 1 2.9 1 .1 0 .2.1 0 .2s-.4 0-.6 0c-.2 0-.4-.1-.6 0-.6.2-.9.8-.2 1 .3.1.6 0 .9 0 .3 0 .5-.1.8 0 .1 0 .1.2 0 .3-.2.1-.5.1-.8 0-.3-.1-.6-.1-.8.1-.6.4-1 1-1.3 1.6-.2.4.2.7.5.4.1-.1.1-.1.1-.2.1-.1.1-.2.2-.2.2-.1.3 0 .2.1l-.2.2c-.3.4-.6.6-.6 1.1 0 1.1 0 1.9.4 2.1.2.1.4 0 .4-.2.1-.3.1-.6 0-1 .2-.1.4 0 .4 0zM34.8 75.7l.1-.1v-.2h-.6c-.2 0-.3 0-.3.1 0 .2 0 .4.1.6.1.2.2.4.4.5.1.1.2.2.4.2h.1c.1 0 .1 0 .1-.1s0-.2-.1-.3c0-.1 0-.1-.1-.2v-.3c-.2-.1-.2-.2-.1-.2-.1 0-.1 0 0 0zM10.2 49.2c0 .1.1.1 0 0 .3-.4.6-.7 1-.9.4-.2.8-.3 1.3-.4h.4c.4 0 .4-.3.2-.4-.2-.1-.4-.2-.7-.2h-.2v-.1h.2c.3-.1.6 0 1 0 .6.1 1.2.2 1.3-.3.2-.6-.6-1.6-2.2-1.1h-.1c-1.2.5-1.9 1.9-2.2 3.4zm21.9 21.4c-.1.3-.1.5 0 .8.1-.1.3-.2.4-.4H32.8v.1c.2 1.1.6 1.9 1.4 1.9.2 0 .3 0 .4-.1l.2-.1c.2-.1.2-.2.1-.3h-.2l-.1-.1v-.8c0-.1 0-.1-.1-.2-.2-.2-.3-.4-.4-.7-.1-.2-.1-.4-.1-.7 0 0 0-.1.1-.1h.1c.1.1.1.2.1.3 0 .1.1.2.2.3h.1c.2.1.3 0 .3-.2v-1.5l.1-.1h.1s.1 0 .1.1 0 .1.1.2v.1c0 .2.1.3.3.4.1 0 .1.1.2.1s.2 0 .2-.1v-.1c.1-.1.2-.3.3-.4l.3-.6c0-.1 0-.1.1-.2v-.1s0-.1-.1-.1-.2-.1-.3-.1h-1.1c-.2 0-.4 0-.6.1-.2.1-.3.1-.4.2l-.6.6c-.2.2-.3.5-.3.8 0 .1-.1.1-.1 0 0-.4.1-.7.3-1 .2-.3.4-.6.7-.8.1-.1.3-.2.4-.2.2-.1.4-.1.6-.1.3 0 .5 0 .8.1H36.3c.1 0 .1 0 .2.1h.1c.1 0 .2-.1.1-.3l-.1-.1c-.1-.1-.2-.2-.3-.2-.1-.1-.2-.1-.3-.1-.2-.1-.5-.1-.8-.2l-.6-.1c-.2 0-.3-.1-.4-.2-.2-.1-.3-.2-.5-.3-.1-.1-.3 0-.3 0v.6s-.1.1-.1 0c-.1-.1-.2-.2-.4-.1-.2-.1-.4-.2-.5.1 0 .1.1.3.3.5v.2c-.9.2-1.1.7-.7 1.8 0 0 .1.1.1 0 .2-.1.3-.1.4 0v.2c-.2.6-.3.9-.4 1.1zm3 4.3c.1 0 .1-.1.2-.1.2-.1.3-.3.4-.4v-.2l-.4-.4c-.2-.2-.4-.3-.6-.4h-.2c-.1.1-.2.1-.3.3V74c.1.2.3.3.4.4.1 0 .1 0 .2.1v.1h-.5c-.4-.1-.6-.3-.7-.6 0-.2-.3-.1-.6-.1-.1 0-.2 0-.2.1.2.3.5.5.7.8l.1.1H35.1z" style="fill:#fff"/></svg>