<?xml version="1.0" encoding="utf-8"?>
<!-- Generator: Adobe Illustrator 28.0.0, SVG Export Plug-In . SVG Version: 6.00 Build 0)  -->
<svg version="1.1" id="Layer_1" xmlns="http://www.w3.org/2000/svg" xmlns:xlink="http://www.w3.org/1999/xlink" x="0px" y="0px"
	 viewBox="0 0 73 110" style="enable-background:new 0 0 73 110;" xml:space="preserve">
<style type="text/css">
	.st0{fill:#FFFFFF;}
</style>
<path class="st0" d="M63.2,55c0.1-0.6,0.2-1.1,0.1-1.5l0,0c-0.1-0.1-0.2-0.2-0.2,0c-0.2,0.5-0.5,0.9-0.8,1.2c-0.1,0.1-0.3,0-0.3-0.2
	c0,0,0-0.1-0.1-0.1c-0.1,0.1-0.2,0.2-0.4,0.2c-0.3,0-0.4-0.2-0.3-0.5c0.2-0.3,0.4-0.6,0.6-0.9c0-0.1-0.1-0.1-0.1-0.1
	c-0.7,0.7-1.1,1-1.5,1c-0.2,0-0.2-0.1-0.1-0.2c0.1-0.1,0.1-0.2,0.2-0.3c0,0,0,0-0.1,0c-0.4,0.3-0.8,0.4-1,0
	c-0.1-0.3-0.2-0.6-0.3-0.9c0-0.1,0.1-0.1,0.2-0.1c0,0,0.1,0,0.1,0c0.4-0.8,0.9-0.7,1.3-0.3c0.2,0.2,0.3,0.1,0.5,0
	c0.3-0.2,0.5-0.4,0.6-0.7c0-0.1-0.1-0.2-0.2-0.1c0,0.1-0.1,0.1-0.1,0.1c-0.3,0.4-0.4,0.6-0.7,0.5c-0.1,0-0.2-0.1-0.3-0.1
	c-0.1-0.1-0.1-0.1-0.2-0.2c-0.1-0.2,0.1-0.4,0.3-0.3c0.2,0.1,0.4,0.1,0.4,0c-0.1-0.2-0.1-0.2,0-0.3c0,0,0.1,0,0.1-0.1
	c0-0.1,0-0.1-0.1-0.2c-0.1-0.1-0.2-0.2,0.1-0.3c0.3-0.1,0.6-0.2,0.9-0.4c0.2-0.1,0.4-0.3,0.5-0.5c0.1-0.2,0-0.2-0.1-0.2
	c-0.1,0.1-0.2,0.3-0.4,0.4c-0.1,0.1-0.2,0.2-0.4,0.2c-0.2,0.1-0.3,0-0.2-0.3c0.1-0.3,0.3-0.6,0.5-0.9c0.1-0.1,0.1-0.1,0.2-0.2
	c0.3-0.2,0.5,0.1,0.6,0.3c0.2,0.5,0.2,1.1,0.1,1.6c-0.1,0.5-0.4,1-0.8,1.4c0,0-0.1,0.1-0.1,0.1c0,0,0,0-0.1,0.1
	c-0.1,0.1,0,0.1,0.1,0.1h0.1c0.7-0.2,1.5-1.2,1.2-3.2c0-0.2,0-0.2,0.2-0.2c1.1,0.4,1.2,1.5,0.6,3c0,0.1,0,0.1,0.1,0.1
	c0.7,0,0.9,0.1,0.8,0.5c-0.4,2.2-0.8,2.6-1.3,2.6C63.3,55.3,63.2,55.3,63.2,55z M35.9,105c0.1,0,0.2,0.1,0.2,0.1v0.1
	c-0.2,0.5-0.7,0.8-1.1,1.1c-0.7,0.5-1.3,1.1-1.3,2.1c0,0.1-0.2,0-0.2,0c-1.8-0.7-2.5-1.7-2.6-3.1c-0.3,0.5-0.7,0.8-1.1,1.1
	c-0.4,0.3-0.8,0.6-1.1,1.1c-0.2,0.3-0.2,0.7-0.2,1.1c0,0.1-0.1,0.1-0.2,0.1c-2.9-0.9-3.7-3.2-3.6-5.3c0.2-2.8,1.8-4.1,3.7-5
	c0,0-0.1,0-0.1,0c-1-0.1-2.8-0.3-2-3.8c-1.1-0.1-1.7-0.8-1.7-1.4v-0.2c0-0.4,0.2-0.7,0.4-1l0,0c0.7-0.8,2.4-0.3,2,1.8
	c0.5-0.1,1.1-0.2,1.6-0.4c0.6-0.3,1.2-0.7,1.6-1.2c0.4-0.5,0.7-1.1,0.9-1.8c0,0,0.1,0,0.1,0c2.2,0.8,3.1,2.2,3.1,4.2v8
	C34.4,104.5,35.3,104.8,35.9,105z M28.6,97.9c0.5,0,0.9-0.3,1.3-0.6s0.6-0.8,0.7-1.3c0.1-1.3-0.7-2.2-1.9-1.8h0
	c-0.6,0.2-1.1,0.3-1.7,0.4v0c-0.3,0.9-0.5,2.3,0.1,2.7c0.2,0.2,0.5,0.3,0.8,0.4C28.1,98,28.3,98,28.6,97.9z M30.7,97.5
	c-0.3,0.4-0.7,0.7-1,0.9c-0.4,0.3-0.8,0.5-1,0.9c0,0,0,0,0,0c0,0,0,0.1,0,0.1v0c-0.7,1.3-0.7,4.2,0,5.4c0,0,0,0,0,0
	c0.6,0.9,2.1,0.6,2.1-1.1V97.5z M44.5,96.2c0,0,0.1,0.1,0.1,0c0.3-1.6,1.1-2.5,1.9-3.5c0.4-0.5,0.9-1.1,1.3-1.7
	c0-0.1-0.1-0.2-0.1-0.1c-1.3,1.1-2.5,1.5-3.5-0.1c0-0.1-0.2,0-0.2,0.1c-0.2,0.6-0.7,1.1-1.2,1.6c-0.4,0.4-0.8,0.9-1,1.3
	c-0.2-1.4-1-2.4-2.9-3.1c0,0-0.1,0-0.1,0c-0.1,1.3-0.7,1.7-1.4,2.1c-0.5,0.3-0.9,0.6-1.1,1.2l0.1,0c0,0.1,0,0.1,0.1,0.1
	c0,0,0,0,0.1,0c0.2,0,0.5,0,0.7,0.1c0.2,0.1,0.4,0.2,0.6,0.4c0.2,0.2,0.3,0.4,0.4,0.6c0.1,0.2,0.1,0.4,0.1,0.7l-0.1,7.2
	c0,0.8-0.6,2-1.1,2.2c-0.3,0.1-0.1,0.2,0.3,0.3c1.3,0.3,2,1.1,2.9,2c0.3,0.3,0.6,0.7,1,1c0,0,0.2,0.1,0.2,0c0.1-1.1,0.9-1.7,1.7-2.3
	c0.4-0.3,0.8-0.6,1.1-0.9c0.4-0.5,0.7-1,0.8-1.6c0.1-0.6,0.2-1.2,0-1.8c-0.2-0.9-1.8-1.2-1.6,0.4c0,0.1,0.1,0.2,0.1,0.3
	c0.3,0.6,0.9,1.7-0.1,2.3c-0.6,0.4-1.7-0.4-1.7-2.2v-6.7C41.9,93.6,44.1,93.3,44.5,96.2z M36.7,75.4L36.7,75.4
	C36.7,75.3,36.6,75.3,36.7,75.4c-0.1,0.2-0.2,0.4-0.3,0.6c-0.1,0.2-0.2,0.3-0.3,0.5h0c0,0,0,0.1,0,0.1c0,0,0,0,0,0c0,0,0,0,0,0l0,0
	c0.1,0,0.3,0.1,0.3,0C36.6,76.2,36.7,75.8,36.7,75.4z M22.2,104.2C22.2,104.2,22.2,104.2,22.2,104.2
	C22.2,104.2,22.2,104.2,22.2,104.2C22.2,104.2,22.2,104.2,22.2,104.2C22.2,104.2,22.2,104.2,22.2,104.2
	C22.2,104.2,22.2,104.2,22.2,104.2c-2.5,0.2-4.8,0.5-6.2,1.8c-0.8,0.8-1.3,1.9-1.3,3c0,0.1-0.1,0.1-0.1,0.1c-0.6-0.4-1.3-0.7-2-1
	c-0.9-0.4-1.9-0.7-2.9-1c-1,1.1-2.2,2-3.6,2.6c-2.6,1.1-4.8,0.3-5-2.2c-0.2-2.6,1.7-4.4,5-4.8c1.9-0.2,3.9-0.1,5.8,0.3
	c0.8-1.8-3.8-4.3-4.8-2.6c0,0.1-0.1,0.1-0.2,0c-1.1-1.2-0.3-2.5,1-3c-0.3-0.1-0.6-0.1-1,0c-0.3,0.1-0.6,0.2-0.9,0.4
	c-1.1,0.9-1.3,2.7,0,3.4c0.2,0.1,0.4,0.2,0.7,0.3c0.2,0,0.1,0.2,0.1,0.2c-0.3,0-0.5,0.1-0.8,0.1c-3.7-0.1-4.3-5.7,0-7.2
	c0.1,0,0.3-0.1,0.4-0.1c0-3.7,2.6-4.9,5.4-6.1c0.2-0.1,0.5-0.2,0.7-0.3c0.5-0.2,1-0.5,1.5-0.7V86c-0.4,0.4-0.9,0.6-1.5,0.8
	c-1.4,0.5-3,0.4-4.6,0.3c-0.7,0-1.3-0.1-1.9-0.1c0,0-0.1,0-0.1,0c-0.2,0-0.4,0-0.6,0c-5,0.5-3,6.8,0.2,4.2c0.1-0.1,0.3-0.2,0.5-0.2
	c0.4,0,0.4,0.5,0,0.8c-3.3,2.4-6.7-1.3-5.8-4.8c0.3-1.3,1.1-2.4,2.1-3.2c1.1-0.8,2.4-1.2,3.7-1.1l0,0c1.3,0,2.5,0.4,3.6,1
	c0.9,0.6,1.9,1.1,3,1.4c0.3,0.1,0.5,0.1,0.8,0c0.3-0.1,0.5-0.2,0.7-0.3c0-2,0.6-2.7,1.3-2.4c0.8,0.3,0.5,1.5-0.7,2.8v1.4
	c0.5-0.3,0.9-0.6,1.3-1c0.4-0.5,0.7-1.1,0.8-1.7c0,0,0.1,0,0.1,0c2.8,1,4.7,2.6,4.9,5.2c0.2,3.9-1.7,5.7-4.7,6c-0.4,0-0.3,0.4,0,0.4
	h2.2c2.3,0,2.7,1.4,2.7,2.7v4.1c0,0.3,0,0.6,0.1,0.9C22.2,103.7,22.2,103.9,22.2,104.2z M9,106.8c-0.9-0.3-1.9-0.4-2.9-0.3
	c-1.7,0.1-3,0.8-2.9,1.9c0.1,1.2,1.5,1.2,2.9,0.6C7.2,108.5,8.2,107.8,9,106.8z M14.1,88c-0.5,0.1-1,0.3-1.5,0.6
	c-2.1,1.3-1.7,4.1-0.4,6.5c0.2,0.3,0.3,0.7,0.4,1c0.8,2,1,4.3,0,6.6c0,0,0,0,0,0.1c0,0.1-0.1,0.2-0.1,0.2l0.2,0
	c0.5,0.1,1,0.2,1.5,0.4V88z M14.7,94.9h0.5c0.3,0,0.6-0.1,0.8-0.3c1.5-1.1,1.9-5.3,0-6.4c-0.4-0.2-0.8-0.3-1.3-0.3V94.9z
	 M17.6,104.6c-0.2-0.6-0.3-1.3-0.3-1.9v-4.6c0-0.7-0.3-1.5-1.3-1.5c0,0-0.1,0-0.1,0h-1.2v7c0.3,0.1,0.7,0.2,1,0.3
	c0.1,0,0.2,0.1,0.3,0.1c0.5,0.2,0.9,0.3,1.4,0.5C17.4,104.6,17.5,104.6,17.6,104.6z M12.6,44.8c-0.5,0.3-1,0.8-1.3,1.3
	c-0.1,0.2,0,0.2,0.1,0.2c0.3-0.4,0.8-0.7,1.2-0.9c0.9-0.4,2-0.3,2.6,1c0.1,0.2,0.1,0.2,0.3,0.1c0.4-0.3,0.2-0.8-0.3-1.4
	c-0.1-0.1,0-0.3,0.2-0.2c0.4,0.3,0.5,0.8,0.6,1.3c0.1,0.4,0.1,0.8,0.4,1c0.1,0.1,0.2,0.1,0.3,0c0.1-0.2,0.1-0.3,0.1-0.5
	c0-0.1,0.2-0.1,0.2,0c0,0.5,0,1-0.2,1.5c-0.2,0.8-0.9,0.7-1.2,0.4c-0.1-0.1,0-0.2,0-0.2c0.1,0,0.2,0,0.3,0c0.1,0,0.1,0,0.2,0
	c0.3,0,0.5-0.2,0.3-0.6c-0.4-0.9-1.2-1.1-1.6-0.3c-0.3,0.7-0.2,2.2,1.2,2.4c0.7,0.1,1.5-0.4,1.6-1.9c0,0,0.1-0.1,0.1,0
	c-0.1,0.3-0.1,0.6,0,1c0.1,0.2,0.2,0.3,0.4,0.2c0.5-0.2,0.5-1,0.4-2.1c0-0.4-0.3-0.7-0.6-1c-0.1-0.1-0.1-0.1-0.2-0.2
	c-0.1-0.1,0-0.2,0.2-0.1c0.1,0,0.1,0.1,0.2,0.2c0,0.1,0.1,0.2,0.2,0.2c0.3,0.3,0.8,0,0.5-0.4c-0.3-0.6-0.8-1.2-1.3-1.6
	C17.3,44,17,44,16.7,44.1c-0.3,0-0.5,0.1-0.8,0c-0.1,0-0.1-0.3,0-0.3c0.3-0.1,0.5,0,0.8,0c0.3,0,0.6,0.1,0.9,0
	c0.6-0.2,0.4-0.9-0.2-1c-0.2-0.1-0.4,0-0.6,0c-0.2,0.1-0.4,0.1-0.6,0c-0.1-0.1,0-0.2,0-0.2c1.5,0,2.4-0.5,2.9-1
	c0.2-0.2,0.4-0.6,0.4-0.9c0-0.3-0.1-0.7-0.3-0.9c0-0.1-0.1-0.1-0.2-0.2c-0.7-0.7-1.5,0-1.3,0.6l0,0c0.3,1,0.1,1.5-1.6,1.8
	c-1.3,0.2-2.5,0.7-3.7,1.3c-0.2,0.1-0.5,0.3-0.7,0.5c-0.1,0.1,0,0.1,0,0.2c0,0,0.1,0,0,0.1c-0.6,0.6-0.8,1-0.7,1.3
	c0,0,0.1,0.1,0.1,0.1c0.4-0.3,0.8-0.7,1.2-0.9c0.8-0.5,1.4-0.6,1.9-0.3c0,0,0,0.1,0,0.1C13.8,44.3,13.1,44.5,12.6,44.8z M9.7,52.5
	c0.4,2.2,0.8,2.6,1.3,2.6c0.2,0,0.3,0,0.3-0.3c-0.1-0.6-0.2-1.1-0.1-1.5c0-0.1,0.2-0.2,0.2,0c0.2,0.5,0.5,0.9,0.8,1.2
	c0.2,0.1,0.3,0,0.3-0.2c0,0,0-0.1,0.1-0.1h0c0.1,0.1,0.2,0.2,0.4,0.2c0.3,0,0.4-0.2,0.3-0.5c-0.2-0.3-0.4-0.6-0.6-0.9
	c-0.1-0.1,0.1-0.1,0.1-0.1c0.7,0.7,1.1,1,1.5,1c0.2,0,0.2-0.1,0.1-0.2c-0.1-0.1-0.1-0.2-0.2-0.3c0,0,0,0,0.1,0c0.4,0.2,0.8,0.3,1,0
	c0.1-0.3,0.2-0.6,0.3-0.9c0-0.1-0.1-0.1-0.2-0.1c0,0-0.1,0-0.1,0c-0.4-0.8-0.9-0.7-1.3-0.3c-0.2,0.2-0.3,0.1-0.5,0
	c-0.3-0.2-0.5-0.4-0.6-0.7c0-0.1,0.1-0.2,0.2-0.1c0,0,0,0,0,0.1c0.3,0.4,0.5,0.7,0.7,0.6c0.1,0,0.2-0.1,0.3-0.1
	c0.1-0.1,0.1-0.1,0.2-0.2c0.1-0.2-0.1-0.4-0.3-0.3c-0.2,0.1-0.4,0.1-0.4,0c0.1-0.2,0.1-0.2,0-0.3c0,0-0.1,0-0.1-0.1
	c0-0.1,0-0.1,0.1-0.2c0.1-0.1,0.2-0.2-0.1-0.3c-0.3-0.1-0.6-0.2-0.9-0.4c-0.2-0.1-0.4-0.3-0.5-0.5c-0.1-0.2,0-0.2,0.1-0.2
	c0.1,0.1,0.2,0.3,0.4,0.4c0.1,0.1,0.2,0.2,0.4,0.2c0.2,0.1,0.3,0,0.2-0.3c-0.1-0.3-0.3-0.6-0.5-0.9c-0.1-0.1-0.1-0.1-0.2-0.2
	c-0.3-0.2-0.5,0.1-0.6,0.3c-0.2,0.5-0.2,1.1-0.1,1.6c0.1,0.5,0.4,1,0.8,1.4c0,0,0,0,0.1,0.1c0,0,0.1,0.1,0.1,0.1
	c0,0.1,0,0.1-0.1,0.1h-0.1c-0.7-0.2-1.6-1.2-1.2-3.2c0-0.1,0-0.2-0.2-0.2c-1.1,0.4-1.2,1.5-0.6,3l0,0c0,0.1,0,0.1-0.1,0.1
	C9.8,52,9.6,52.2,9.7,52.5z M58.4,59.6c-0.1,0.1-0.2,0.2-0.3,0.4c0,0.2,0,0.3,0,0.5c0,0.1,0.1,0.1,0.2,0.1c0.1,0,0.1,0,0.1,0.1
	c0.3,0.2-0.4,0.5-0.8-0.4c-0.1-0.2,0.1-0.4,0.3-0.6c0.1-0.1,0.1-0.1,0.2-0.2c0,0,0,0-0.1,0c0,0-0.1,0-0.1,0c0,0,0-0.1,0-0.1
	c1.5,0.1,2.2-0.4,2.4-1.9c0-0.2,0.1-0.2,0.3-0.3c0.2,0,0.5-0.1,0.9-0.5c0,0,0.2-0.1,0.2,0.1c0,0.5-0.5,0.7-0.9,0.8
	c-0.2,0.1-0.3,0.1-0.3,0.2c0,0,0,0.1,0,0.1c0,0,0,0.1,0,0.1c0.1,0.2,0.2,0.2,0.3,0.3c0.1,0.1,0.2,0.2,0.3,0.3
	c0.1,0.2-0.1,0.2-0.2,0.3c0,0-0.1,0-0.1,0.1c0,0.4,0.1,0.7,0.3,0.8c0.2,0,0.3,0,0.4-0.1c0.1,0,0.2,0,0.2-0.1c0.1,0,0.3,0,0.3-0.1
	c0.1-0.2-0.1-0.3-0.2-0.5c0,0-0.1-0.1-0.1-0.2c-0.1-0.1-0.1-0.2-0.1-0.3c0-0.1,0-0.2,0-0.3c0,0,0.1-0.1,0.1-0.1
	c0.1-0.1,0.2-0.1,0.3-0.1c0.2,0,0.4-0.1,0.5-0.5c0.1-0.5,0-0.7-0.1-1c-0.1-0.2-0.1-0.3-0.1-0.5c0-0.3,0.3-0.2,0.5-0.2
	c0,0,0.1,0,0.1-0.1c0-0.1,0-0.2,0-0.3c0-0.2-0.1-0.4-0.1-0.7c0,0-0.1,0-0.1,0c-0.1,0.1-0.2,0.3-0.4,0.3c-0.2,0.1-0.3,0.1-0.5,0.1
	c0,0-0.1,0-0.1,0c-0.1,0-0.1,0-0.2,0.1c-1.5,2.3-3.9,3-6.1,1.5c0,0,0-0.1,0.1-0.1c2.3,1,4.3,0.7,5.9-1.7c0,0,0-0.1-0.1-0.1
	c-0.3,0-0.4-0.1-0.4-0.3c0,0,0-0.1-0.1-0.1c-0.3,0.1-0.5,0.1-0.8,0c-0.3-0.1-0.5-0.2-0.7-0.4c0,0,0,0,0,0c0,0,0,0,0,0
	c-0.2,0.2,0,0.4,0.1,0.7c0,0,0,0.1,0,0.1c-0.3,0-0.6-0.2-0.5-0.5c0,0,0-0.1,0-0.1s-0.1-0.1-0.1-0.1c-0.1,0-0.1-0.1-0.1-0.2
	c0-0.1-0.1-0.2-0.1-0.2c-0.1-0.1-0.1,0-0.2,0c-0.1,0-0.1,0.1-0.2,0.1c0,0-0.1,0-0.2,0c-0.1,0-0.3-0.1-0.4,0c0,0.1,0,0.1,0,0.2
	c0,0.1,0,0.1,0,0.2c0,0.1-0.1,0.1-0.1,0c0,0,0,0-0.1,0c0,0.1,0,0.1,0,0.2c0,0.1,0,0.1,0,0.2c0,0.4,0.2,0.6,0.6,0.7
	c0,0,0.1,0,0.1,0.1c0,0,0,0.1,0,0.1c0,0,0,0.1,0,0.1c0,0-0.1,0.1-0.1,0.1c-0.1,0-0.1,0-0.2,0c0,0-0.1,0-0.1,0c-0.1,0-0.1,0-0.1,0
	c0.1,0.3,0.5,1,1.9,0.4c0.1,0,0.1,0.1,0.1,0.2c-0.7,0.6-2.4,0.3-2.4-0.8c0-0.2-0.1-0.4-0.4-0.3c0,0,0,0,0-0.1c0,0,0-0.1,0-0.1
	c-0.1-0.1-0.1,0-0.1,0c0,0.1-0.1,0.1-0.1,0.2c0,0.2,0,0.3-0.1,0.5c0,0,0,0-0.1,0c0,0,0,0,0,0c-0.3-0.1-0.3-0.4-0.2-0.8
	c0,0,0-0.1,0-0.1c0,0,0-0.1,0-0.1c-0.2-0.3-0.5-0.5-0.9-0.5c-0.1,0-0.2,0-0.3,0.1c-0.1,0.1-0.1,0.1-0.2,0.2c-0.1,0.5-0.1,1,0,1.4
	c0,0.1-0.1,0.1-0.2,0.1c-0.2-0.2-0.4-0.5-0.5-0.8c-0.1-0.3-0.1-0.7,0-1c0-0.2,0.2-0.2,0.3-0.2c0.1,0,0.2-0.1,0.3-0.1
	c0.3-0.2,0.7-0.8,0.3-1.3c-0.3-0.3-1.4-0.4-2,0.1l-0.1,0.1c-1.1,1.3-1.1,3.3-0.2,4.3c0.1,0.1,0.2,0.2,0.3,0.3
	c0.6,0.5,1.4,0.9,2.2,1.2l0.2,0.1c0.2,0,0.2,0,0.1-0.1l-0.3-0.2c-0.3-0.1-0.5-0.3-0.7-0.6c-0.2-0.2-0.3-0.5-0.4-0.8c0,0,0,0,0,0
	c0,0,0,0,0,0c0,0,0,0,0,0c0,0,0,0,0,0c0,0,0,0,0,0c0,0,0,0,0,0s0,0,0,0c0,0,0,0,0,0c0,0,0,0,0,0c0.2,0.5,0.5,0.8,0.9,1.1
	c0.7,0.4,1.5,0.5,2.3,0.4c0.1,0,0.1,0,0.1,0.1c-0.1,0.2-0.3,0.3-0.6,0.4c-0.4,0.2-0.8,0.3-0.5,1.1c0,0,0,0,0,0c0,0,0,0,0,0
	c0,0,0,0,0,0c0,0,0,0,0,0c0.1,0,0.1-0.1,0.1-0.1c0-0.1,0.1-0.2,0.3-0.2c0,0,0.2,0,0.1,0.1c-0.5,0.8-0.6,1.3,0,1.8c0,0,0.1,0,0.1,0
	c0-0.2,0-0.4,0.2-0.5c0,0,0,0,0.1,0c0,0,0.1,0,0.1,0c0.5,0.8,1.6,0.5,1.7-0.2l0,0C59.4,60,58.8,59.5,58.4,59.6z M72.6,105.1
	L72.6,105.1L72.6,105.1c-0.8-0.4-1.5-0.6-1.5-2.3v-8c0-2-0.8-3.4-3-4.1c0,0-0.1,0-0.1,0c-0.2,1.3-1.2,1.9-2,2.4
	c-0.5,0.3-1,0.7-1.2,1.1c-0.1-1.7-0.8-2.9-2.8-3.5c0,0-0.1,0-0.1,0.1c-0.1,1-0.5,1.3-1.1,1.8c-0.4,0.3-0.9,0.7-1.4,1.5
	c-0.1,0.1,0,0.1,0.1,0.1c1.1-0.1,1.6,0.6,1.6,1.7l0,6.5c0,0.8-0.4,2.4-1.2,2.8c0,0,0,0.1,0,0.2c0.9,0,1.8,1,2.7,2
	c0.5,0.5,1,1,1.4,1.3c0.1,0,0.2,0,0.2-0.1c0.1-1,0.6-1.5,1.2-2c0.3-0.3,0.6-0.5,0.9-0.9c0,0,0.1-0.1,0.1-0.1
	c0.2-0.2,0.3-0.3-0.1-0.4l0,0c-0.8-0.3-1.5-0.6-1.5-2.2v-6.1c0-3.1,2.6-2.9,2.6-0.7l0,8.2c0,3.1,1.1,3.7,2.8,4.4
	c0.1,0,0.2-0.1,0.2-0.1c0.1-1,0.6-1.4,1.2-1.9c0.3-0.2,0.6-0.5,0.9-0.9c0,0,0.1-0.1,0.1-0.1C72.9,105.3,73,105.2,72.6,105.1z
	 M25.7,68.3c-0.1,0.8,0.1,0.8,0.3,0.9c0,0,0,0,0.1,0c-0.1-0.2-0.1-0.5,0-0.7c0-0.2,0.1-0.5,0.3-0.7c0.1-0.1,0.1-0.3,0-0.3
	c-0.3,0.1-0.4,0.1-0.5-0.4c0-0.1-0.2-0.1-0.4,0s-0.6-0.1-1-0.4c-0.4-0.4-0.7-0.9-0.8-1.4c0-0.7,0.3-1.1,0.8-1c0.3,0,0.5,0.2,0.7,0.3
	c0.1,0.1,0,0.3,0,0.4c-0.1,0.1-0.1,0.2-0.2,0.3c0,0.1,0,0.2,0,0.4c0.1,0.3,0.4,0.1,0.5-0.1c0.3-0.6,0.7-1.2,1.2-1.6
	c0.2-0.1,0.4-0.2,0.5-0.3c0.6-0.3,1.3-0.4,2-0.3c0.5,0.1,1,0.2,1.5,0.4l0.4,0.2l0.3,0.2c0.1,0,0.1,0.2,0,0.2l-0.3,0l-0.4,0.1
	c-0.5,0.1-1.1,0.2-1.5,0.6c-0.2,0.2-0.3,0.4-0.4,0.6c-0.1,0.2-0.1,0.5,0,0.7c0,0,0,0,0,0c0,0,0.1,0.1,0.2,0c0.1-0.1,0.1-0.3,0.2-0.4
	c0.3-0.6,0.9-1,1.5-1.2c0.1,0,0.3-0.1,0.4-0.1c0.6-0.1,1.2-0.1,1.8,0c0.1,0,0-0.1-0.1-0.2c-1.1-0.8-1.2-1.7-0.5-2.6
	c-0.1,0-0.1-0.1-0.2-0.1c-0.1-0.1-0.2-0.1-0.3-0.2c-0.3,0.5-0.4,0.9-0.4,1.3c0,0.3,0,0.5-0.3,0.5c0,0,0,0-0.1,0
	c-0.2,0-0.3-0.1-0.4-0.1c-0.4-0.1-0.5-0.4-0.5-0.6c-0.1-0.1-0.1-0.3-0.3-0.4c-0.2-0.2-0.5-0.4-0.7-0.6c-0.1-0.1-0.2-0.2-0.3-0.4
	c-0.1-0.1-0.1-0.3-0.1-0.5c0-0.2,0.2-0.2,0.4-0.2c0.3,0,0.6,0,0.8-0.1L29.2,60c-0.5,0.3-1.2,0.5-1.6,0.4c-0.1,0-0.2,0.1-0.1,0.2
	c0.3,0.3,0.6,0.6,0.6,0.9c0,0.2,0,0.3-0.1,0.5c-0.1,0.1-0.2,0.3-0.3,0.4c0,0-0.2,0.2-0.2,0s-0.2-0.2-0.2,0c0,0.1-0.1,0.2-0.1,0.3
	c-0.1,0.3-0.4,0.5-0.6,0.7c-0.1,0.1-0.3,0.2-0.4,0.2c-0.1,0-0.3,0-0.4,0c-0.1,0-0.1-0.1-0.1-0.1c0-0.3,0.1-0.6,0-0.9
	c0-0.1-0.2,0-0.3,0.1c-0.1,0.1-0.2,0.1-0.2,0.1c-0.2,0-0.2-0.4-0.2-0.7c0.1-0.2,0.2-0.3,0.4-0.4c0.1,0,0.1-0.1,0.2-0.1
	c0.1-0.1,0.2-0.3,0.2-0.5c0-0.2,0-0.4-0.1-0.5c0,0-0.2-0.1-0.2,0c-0.2,0.2-0.1,0.3-0.1,0.5c0,0.1,0,0.1,0,0.2c0,0-0.1,0-0.1,0
	c-0.1,0-0.2-0.1-0.2-0.1c-0.1-0.1-0.1-0.1-0.1-0.2c-0.1-0.5-0.2-0.8-0.4-1l-0.1-0.1c-0.1,0-0.2,0-0.1,0.1c0.1,0.2,0.2,0.3,0.3,0.5
	c0.2,0.3,0.3,0.7,0.3,1.1c0,0.4-0.2,0.5-0.3,0.4c0,0-0.1,0-0.1-0.1c0,0-0.1-0.1-0.1-0.1c0,0-0.2-0.1-0.2,0c0.1,0.5,0,0.9-0.4,0.9
	c-0.1,0-0.2,0.1-0.2,0.1c0,0-0.1,0.1-0.1,0.1c0,0,0,0,0,0c0,0-0.1,0-0.2-0.1c-0.4-0.4-0.3-0.7-0.3-1.1c0-0.2,0-0.3,0-0.5
	c0-0.1-0.1-0.2-0.1-0.3c-0.1-0.2-0.3-0.4-0.1-1.1c0.1-0.4-0.2-0.5-0.9-0.8c0,0-0.1,0-0.1,0c0,0-0.1,0-0.1,0.1c0,0-0.1,0.1-0.1,0.1
	c0,0,0,0.1,0,0.1c0,0.2,0.1,0.3,0.2,0.4c0.1,0.1,0.1,0.2-0.2,0.2h0c-0.1,0,0,0.1,0,0.1h0c0.4,0.2,0.6,0.4,0.3,0.5
	c0.3,0.3,0.4,0.6,0.2,0.8c-0.1,0.1-0.2,0.1-0.3,0c-0.1,0-0.1-0.1-0.2-0.2c0,0-0.1-0.1-0.1-0.1c-0.4-0.3-0.8-0.7-1.2-0.7
	c0,0-0.1,0.1,0,0.1c0.4,0.3,0.7,0.5,0.5,0.9l0,0c-0.1,0.1-0.1,0.2-0.2,0.1c-0.4-0.3-0.8-0.5-1.1-0.4c-0.1,0-0.2,0.1-0.2,0.2
	c-0.1,0.9,0,1.5,0.2,1.7c0.1,0.1,0.3,0.1,0.4,0c0.2-0.6,0.4-0.8,0.8-0.6c0.8,0.7,0.9,1.3-0.1,1.7c-0.4,0-0.7,0-1-0.2
	c-0.6-0.3-1.1-0.9-1.4-2.2c-0.1-0.6,0-1.1,0.3-1.7c0.3-0.5,0.6-0.9,1.1-1.2c0.4-0.3,0.8-0.5,1.2-0.7c0.3-0.2,0.7-0.3,1-0.5
	c0,0,0,0,0,0c0,0,0,0,0,0c0.2-0.1,0.3-0.2,0.3-0.4c0,0,0-0.1,0.1-0.2c0-0.1,0.1-0.1,0.1-0.2c0.1-0.2,0.2-0.3,0.2-0.6
	c0-0.1,0.2-0.1,0.3-0.1c0.1,0.1,0.1,0.1,0.1,0.2c0.1,0.2,0.2,0.3,0.4,0.3c0.1,0,0.2-0.1,0.2-0.3c0-0.1,0.1-0.2,0.2-0.3
	c0,0,0.1,0,0.1,0c0.1,0,0.1,0,0.2,0c0.1,0,0.1-0.1,0.1-0.2c0,0,0-0.1,0.1-0.1c0-0.1,0.1-0.1,0.1-0.1c-1.4-1.9-2.1-4.5-1.6-8.1
	c0-0.2,0-0.4,0.1-0.6c0.6-4.6,1.4-10.6,1-13.6c-0.7,0.1-1.4,0.2-2.1,0.3c-0.7,0.1-1.5,0.3-2.2,0.5c-0.5,0.1-1,0.4-1.4,0.7
	c-0.9,0.6-1.2,1.5-0.4,2.5c0,0,0.1,0,0.1-0.1c0.1-0.1,0.2-0.2,0.4-0.1c0.3-0.1,0.3,0,0.3,0.3c0,0.1,0,0.1,0,0.2
	c0.4,0,0.8-0.4-0.1-0.9c-0.5-0.3,0.3-0.9,0.9-0.6c0.1,0.1,0.2,0.1,0.2,0.2c0.1,0.1,0.1,0.2,0.1,0.3c0,0.2,0,0.4,0,0.7
	c0,0.2-0.1,0.4-0.3,0.6c-0.2,0.2-0.4,0.2-0.6,0.2c-1.5,0-2.7-1.2-1.4-3.5c-1.1,0.1-1.8,0.9-2.3,2.8c0,0.1-0.2,0.3-0.3,0.1
	C13.9,37.5,14,37,14,36.4c0-0.1,0.1-0.3,0-0.2c-0.8,0.7-1.3,1.6-1.3,2.7c0,0.1,0,0.3,0.1,0.4c0.1,0.1,0.2,0.2,0.3,0.3
	c0.3,0.3,0.2,0.5-0.2,0.5c0.3,0,0.4,0.2,0.5,0.4c0.1,0.2,0.2,0.3,0.5,0.1c0.2-0.2,0.1-0.4,0-0.6c-0.1-0.2-0.2-0.4,0.2-0.5
	c0-0.1-0.1-0.5-0.2-0.4c-0.2,0.2-0.4,0.1-0.3,0c0-0.5,0.2-0.8,0.6-0.7c1.1,0.2,1.7,1.7,0.1,2.8c-0.3,0.2-0.6,0.3-0.9,0.3
	c-0.3,0-0.6-0.1-0.9-0.4c-0.4-0.4-0.7-0.9-0.8-1.5c-0.9,0.1-0.6-1.2,0.6-2.9c0-0.1,0.1-0.1,0.1-0.2c0,0,0.1-0.1,0.1-0.1
	c0,0,0,0,0-0.1c0,0,0,0,0-0.1h0c0,0-0.1,0-0.1,0.1c-0.1,0.1-0.2,0.1-0.2,0c0-0.1,0-0.3,0.1-0.4c0-0.1,0.1-0.2,0.2-0.3
	c0.5-0.5,1-0.9,1.6-1.3c0.4-0.3-0.1-1-0.6-0.7c-0.3,0.2-0.6,0.4-0.9,0.7c-0.2,0.1-0.3,0.3-0.4,0.4c-0.2,0.3-0.2,0.6-0.3,1
	c-0.1,0.3-0.1,0.6-0.3,0.8c-0.1,0.1-0.4,0.2-0.3-0.6c0-0.1,0-0.2-0.1-0.1c-0.3,0.3-0.3,0.5-0.3,0.9c0,0.1,0,0.2,0,0.3
	c0,0.3-0.2,0.6-0.3,0.8c-0.1,0.2-0.2,0.4-0.3,0.6c0,0,0,0.1-0.1,0.1c-0.1-0.1-0.2-0.1-0.3-0.2c-0.1-0.1-0.1-0.2-0.2-0.3
	c-0.1,0.2-0.3,0.3-0.5,0.4c-0.3,0.2-0.4,0.2-0.4-0.2c0.4-1.7,1.5-3.2,3.7-4.6l0.9-0.5c0.5-0.3,0.8-0.1,0.9,0c0.1,0,0.1,0.1,0.1,0
	c0.1-0.6,0.6-0.3,1.2,0.2c0.1,0,0.1-0.1,0.1-0.1c0-0.1,0-0.1-0.1-0.2c-0.1-0.1-0.1-0.3,0-0.4c0.1-0.1,0.8,0,1.4,0.1
	c0.3,0.1,0.6,0.1,0.8,0.1c-0.5-0.2-0.7-0.3-0.7-0.4c-0.7-0.1-0.9-0.3-0.8-0.7C16,31.6,16,31.3,16.1,31c-1.1-0.9-1.9-0.6-1.9,0.3
	c0,0.1-0.1,0.2-0.3,0.1c-0.2-0.2-0.3-0.4-0.4-0.6c-0.1-0.2-0.1-0.5-0.1-0.7c0-0.1-0.1-0.1-0.2-0.1c-0.1,0-0.2,0-0.2-0.2
	c0-0.2,0.3-0.5,0.6-0.8c-0.1-0.1-0.2-0.1-0.3-0.1c-0.1,0-0.1,0-0.1-0.1c0-0.2,0.1-0.3,0.1-0.4c0.1-0.1,0.1-0.2,0.1-0.3
	c0.1-0.5,0.4-0.8,0.5-0.6c0.3,0.3,0.4,0.1,0.4,0c0-0.1,0.1-0.2,0.2-0.1c0.1,0,0.1,0.1,0.2,0.1c0.1,0.1,0.2,0.1,0.2,0.1
	c0.1,0,0.1,0,0.2-0.1c0,0,0.1-0.1,0.1-0.1c0.1-0.1,0.2-0.1,0.3,0c0.1,0,0.2,0.1,0.3,0.1c0.2,0,0.3,0,0.5,0c0.1,0,0.1,0.1,0.1,0.2
	c0,0.1,0,0.2,0.3,0.3c0.1,0,0.1,0.3,0.1,0.3c-0.1,0.1-0.2,0.2-0.2,0.3c-0.1,0.1-0.1,0.3-0.1,0.4c0,0.1,0,0.3,0.1,0.4
	c0.1,0.1,0.1,0.2,0.3,0.3c0.5-0.1,0.8,0.1,0.9,0.6c0.4,0.1,0.9,0.1,1.3,0c-0.9-0.5-1.7-1.1-1.6-1.9c0.2-0.8,1.1-1.2,1.6-0.8
	c0,0,0,0,0.1,0c0,0,0,0,0.1,0.1c0.1,0.2,0.2,0.3,0.1,0.5s-0.1,0.4-0.2,0.5C19.1,28.9,19,29,18.8,29c-0.1,0-0.2,0-0.4,0
	c0.1,0.2,0.1,0.3,0.3,0.4s0.3,0.2,0.4,0.3c0.5,0.3,1,0.3,1.6,0.3c-0.4-0.3-0.8-0.7-1.2-1l3.8-5.3c0.4,0.2,0.8,0.4,1.2,0.6
	c0.6,0.3,1.1,0.5,1.7,0.7c0.1-0.2,0.1-0.4,0.1-0.6c0-0.2,0-0.4-0.1-0.6c-0.1-0.2-0.4-0.2-0.6-0.1c-0.1,0-0.1,0-0.2,0
	c0,0-0.1,0-0.1,0c0,0-0.1-0.1-0.1-0.1c0,0,0-0.1,0-0.2c0-0.1,0-0.1,0-0.1c-0.2-0.1-0.4-0.1-0.7-0.1c-0.2,0-0.4,0-0.6,0
	c-0.4,0-0.5-0.3-0.4-0.8c0.1-0.9,0.5-1.5,1.1-1.8c0.4-0.1,0.8-0.1,1.2,0c0,0,0.1,0,0.1,0c0,0,0.1,0,0.1-0.1c0,0,0-0.1,0-0.1
	c0,0,0-0.1,0-0.1c-0.1-0.2-0.1-0.3,0-0.3c0,0,0-0.1,0-0.1c-0.8-0.5-0.7-1.5-0.1-1.4c-0.1-0.6-0.2-1.2,0.4-1.4c0.2-0.1,0.3,0,0.2,0.2
	c0,0,0,0-0.1,0c0,0-0.1,0-0.1,0.1c0,0.1,0.1,0.1,0.1,0.1c0,0,0.1,0,0.1,0c0.1,0,0.1,0.1,0,0.2c0,0,0,0-0.1,0
	c-0.1,0.1-0.2,0.1-0.1,0.2c0,0,0.1,0,0.1,0s0.1,0,0.1,0c0.1,0,0.2,0,0.3,0c0.3,0.1,0.4,0.5,0.2,0.8c0,0,0,0.1,0,0.1
	c0.1-0.1,0.2-0.2,0.3-0.3c0.3-0.3,0.6-0.1,0.7,0.4c0.2-0.3,0.5-0.2,0.6,0.2c0,0.2,0.1,0.3,0.2,0.5c0.1,0.1,0.2,0.3,0.4,0.4
	c0.2,0.1,0.3,0.1,0.5,0.2c-0.4-0.4-0.6-0.7-0.3-0.9c-0.1-0.1-0.1-0.2-0.1-0.3c0-0.1,0-0.2,0-0.3c0-0.1,0.1-0.1,0.1-0.2
	c0.1-0.1,0.1-0.1,0.2-0.1c0.1,0,0.2,0,0.2,0c0.1,0,0.2,0.1,0.2,0.1c0.1,0.1,0.3,0.2,0.4,0.3c0.1,0.1,0.2,0.2,0.3,0.2
	c0.1,0.1,0.3,0.2,0.4,0.3c0.2,0.2,0.5,0.2,0.8,0.2c0.3,0,0.6-0.1,0.8-0.3c0,0,0.1-0.2,0-0.2c-0.2,0-0.7-0.2-0.4-0.6
	c0.9-1.1,1.2-2.2,0.3-3.1c-0.2-0.2-0.5-0.3-0.8-0.4c-0.3,0-0.6,0-0.9,0.2c-0.1,0.1-0.2,0.2-0.3,0.3c-0.1,0.1-0.1,0.3-0.1,0.4v0.1
	c0,0,0.1,0,0.1-0.1c0.1-0.1,0.2-0.1,0.3-0.1c0.1,0,0.2,0,0.3,0c0.1,0,0.2,0.1,0.3,0.2c0.1,0.1,0.1,0.2,0.2,0.3c0,0.1,0,0.2,0,0.3
	c0,0.2-0.1,0.3-0.3,0.4c-0.1,0.1-0.3,0.2-0.5,0.2c-0.2,0-0.3,0-0.4,0c-0.1,0-0.3-0.1-0.4-0.2c-0.3-0.4-0.4-0.8-0.3-1.2
	c0.1-0.4,0.3-0.8,0.7-1.1c0.1-0.1,0.3-0.2,0.4-0.3c0.4-0.2,0.8-0.3,1.2-0.2c0.1-0.7,0.7-0.5,1.5-0.2l0,0c0-0.1,0.1-0.1,0.1-0.2
	c0-0.1,0.1-0.1,0.2-0.1c0.1-0.1,0.3-0.1,0.4-0.1c-0.2-0.1-0.3-0.1-0.4-0.2c-0.2-0.1-0.3-0.4-0.2-0.5c0.1-0.1,0-0.2,0-0.2
	c0-0.1-0.1-0.2,0-0.2c0.1-0.2,0.1-0.3,0.3-0.3c0.2,0,0.3,0.1,0.4,0.2c0,0,0.1,0,0.1,0.1c0.1-0.4,0.3-0.3,0.5-0.1l0,0
	c0-0.6,0.2-0.8,0.7-0.4c0,0,0,0,0-0.1c0-0.1,0-0.2,0-0.3c0-0.2,0.1-0.2,0.3-0.1c0.1,0,0.1,0.1,0.2,0.1c0-0.2,0.1-0.4,0.2-0.6
	c0-0.1,0.1-0.2,0.2-0.3c0.1-0.1,0.2-0.1,0.3-0.1c0.1,0,0.2,0.1,0.3,0.1c0.1,0.1,0.2,0.2,0.2,0.3c0.1,0.2,0.2,0.4,0.2,0.7
	c0,0,0.1,0,0.1-0.1c0.3-0.1,0.4-0.1,0.4,0.2c0,0.1,0,0.1,0,0.2c0,0,0,0.1,0,0.1c0.5-0.4,0.7-0.2,0.7,0.4c0.2-0.3,0.5-0.4,0.5,0
	c0,0,0,0,0,0c0,0,0,0,0.1,0c0.5-0.2,0.6-0.2,0.7,0.1c0,0,0,0.1,0,0.2c0,0.1-0.1,0.2,0,0.3c0.2,0.2-0.2,0.5-0.7,0.7
	c0.1,0,0.3,0,0.4,0.1c0.1,0.1,0.2,0.2,0.3,0.3c0.6-0.2,1.2-0.4,1.4-0.2c0,0,0.1,0.1,0.1,0.2c0,0.1,0,0.1,0,0.2
	c0.4,0,0.8,0.1,1.2,0.2c0.2,0.1,0.3,0.2,0.4,0.3c0.4,0.3,0.6,0.7,0.7,1.1c0.1,0.4,0,0.9-0.3,1.2c-0.1,0.1-0.2,0.2-0.4,0.2
	c-0.1,0-0.3,0-0.4,0c-0.2,0-0.3-0.1-0.5-0.2c-0.1-0.1-0.2-0.3-0.3-0.4c0-0.1,0-0.2,0-0.3c0-0.1,0.1-0.2,0.2-0.3
	c0.1-0.1,0.2-0.1,0.3-0.2c0.1,0,0.2,0,0.3,0c0.1,0,0.2,0.1,0.3,0.1c0,0,0.1,0,0.1,0.1v-0.1c0,0,0-0.1,0-0.1
	c-0.1-0.3-0.2-0.5-0.4-0.7c-0.2-0.1-0.5-0.2-0.7-0.2c-0.2,0-0.5,0.1-0.7,0.2c-0.1,0-0.2,0.1-0.2,0.2c-0.8,0.8-0.7,1.9,0.2,3
	c0,0,0,0.1,0.1,0.1c0.2,0.3,0.1,0.4-0.1,0.5c-0.1,0-0.2,0.1-0.3,0.1c-0.1,0,0,0.2,0,0.2c0.1,0.1,0.2,0.1,0.3,0.1
	c0.2,0.1,0.5,0.2,0.7,0.1c0.2,0,0.5-0.1,0.7-0.2c0,0,0,0,0.1,0c0.1-0.1,0.2-0.1,0.4-0.2c0.1-0.1,0.3-0.2,0.4-0.3
	c0.1-0.1,0.2-0.1,0.3-0.2l0,0c0.1-0.1,0.1-0.1,0.2-0.1c0.1,0,0.2,0,0.2,0c0.1,0,0.2,0.1,0.2,0.1c0.1,0.1,0.1,0.1,0.1,0.2
	c0,0.1,0,0.2,0,0.4c0,0.1-0.1,0.2-0.1,0.3c0.3,0.2,0.1,0.5-0.3,0.9c0.2,0,0.3-0.1,0.4-0.1c0.2-0.1,0.3-0.2,0.4-0.4
	c0.1-0.1,0.2-0.3,0.2-0.5c0.1-0.5,0.4-0.5,0.6-0.2c0.1-0.5,0.4-0.7,0.7-0.4c0.1,0.1,0.2,0.2,0.3,0.3c0,0.1,0,0,0-0.1
	c-0.2-0.4-0.1-0.7,0.2-0.8c0.1,0,0.2,0,0.3,0c0,0,0.1,0,0.1,0c0,0,0.1,0,0.1,0c0-0.1,0-0.1-0.1-0.2c0,0-0.1,0-0.1-0.1
	c-0.1-0.1-0.1-0.1,0-0.2c0,0,0.1,0,0.1,0c0,0,0.1,0,0.1,0c0,0,0,0-0.1-0.1c0,0-0.1,0-0.1-0.1c-0.1-0.2,0-0.3,0.2-0.2
	c0.6,0.3,0.5,0.9,0.4,1.4c0.6-0.1,0.7,0.9-0.1,1.4c-0.1,0,0,0.1,0,0.1c0,0.1,0.1,0.2,0,0.3c0,0,0,0.1,0,0.1c0,0,0,0.1,0,0.1
	c0,0,0.1,0.1,0.1,0.1s0.1,0,0.1,0c0.4-0.1,0.8-0.1,1.2,0c0.6,0.2,1,0.8,1.1,1.8c0.1,0.4-0.1,0.8-0.4,0.8c-0.2,0-0.4,0-0.6,0
	c-0.2,0-0.4,0-0.7,0.1c-0.1,0,0,0.1,0,0.2c0,0.1,0,0.1,0,0.2c0,0,0,0.1-0.1,0.1c0,0-0.1,0-0.1,0c-0.1,0-0.1,0-0.2,0
	c-0.3,0-0.5-0.1-0.6,0.1c-0.1,0.2-0.1,0.4-0.1,0.6c0,0.2,0.1,0.4,0.1,0.6c0.6-0.2,1.1-0.4,1.7-0.7c0.4-0.2,0.8-0.4,1.2-0.7l2,2.7
	l1.8,2.5c-0.4,0.3-0.8,0.7-1.2,1c0.5,0.1,1.1,0,1.6-0.3c0.2-0.1,0.3-0.2,0.4-0.3c0.1-0.1,0.2-0.3,0.3-0.4c-0.1,0-0.2,0-0.4,0
	c-0.1,0-0.2-0.1-0.3-0.2c-0.1-0.1-0.2-0.3-0.2-0.5c0-0.2,0-0.4,0.1-0.5c0,0,0,0,0.1-0.1c0,0,0,0,0,0c0.5-0.4,1.5,0,1.6,0.8
	c0.1,0.7-0.6,1.3-1.6,1.9c0.4,0.1,0.9,0.1,1.3,0c0.1-0.6,0.4-0.7,0.9-0.6c0.1-0.1,0.2-0.2,0.3-0.3c0.1-0.1,0.1-0.3,0.1-0.4
	c0-0.1,0-0.3-0.1-0.4c-0.1-0.1-0.1-0.2-0.2-0.3c0-0.1,0-0.3,0.1-0.3c0.3-0.1,0.3-0.2,0.3-0.3c0-0.1,0-0.1,0.1-0.2c0.2,0,0.3,0,0.5,0
	c0.1,0,0.2,0,0.3-0.1c0.1-0.1,0.2-0.1,0.3,0c0,0,0.1,0.1,0.1,0.1c0.1,0.1,0.1,0.1,0.2,0.1c0.1,0,0.2-0.1,0.3-0.1
	c0.1,0,0.1-0.1,0.2-0.1c0.1-0.1,0.1,0,0.2,0.1c0,0.1,0.1,0.3,0.4,0c0.2-0.2,0.4,0.1,0.5,0.6c0,0.1,0.1,0.2,0.1,0.3
	c0.1,0.1,0.1,0.2,0.1,0.4c0,0.1-0.1,0.1-0.1,0.1c-0.1,0-0.2,0-0.3,0.1c0.3,0.2,0.6,0.6,0.6,0.8c0,0.1-0.1,0.1-0.2,0.2
	c-0.1,0-0.2,0-0.2,0.1c0,0.2,0,0.5-0.1,0.7c-0.1,0.2-0.2,0.4-0.4,0.6c-0.2,0.1-0.3,0-0.3-0.1c-0.1-0.8-0.8-1.2-1.9-0.3
	c0.1,0.4,0.1,0.6-0.4,0.7c0.2,0.3-0.1,0.6-0.8,0.7c0.1,0.2-0.2,0.3-0.7,0.4c0.2,0,0.5-0.1,0.8-0.1c0.7-0.1,1.4-0.2,1.4-0.2
	c0.1,0.1,0,0.3-0.1,0.4c0,0,0,0.1,0,0.1c0,0,0,0.1,0,0.1c0.6-0.4,1.1-0.8,1.2-0.2c0,0.1,0.1,0.1,0.1,0c0.1-0.1,0.4-0.2,0.9,0
	c0.2,0.1,0.4,0.2,0.6,0.3c0.1,0.1,0.2,0.1,0.3,0.2c2.2,1.4,3.3,2.9,3.7,4.6c0.1,0.4-0.1,0.4-0.4,0.2c-0.2-0.1-0.3-0.2-0.5-0.4
	c-0.1,0.3-0.3,0.5-0.4,0.6c0,0-0.1,0-0.1-0.1c-0.1-0.2-0.2-0.4-0.3-0.6c-0.1-0.2-0.3-0.5-0.3-0.8c0-0.1,0-0.2,0-0.3
	c0-0.4,0-0.6-0.3-0.9c-0.1-0.1-0.1,0-0.1,0.1c0.1,0.8-0.2,0.8-0.3,0.6c-0.2-0.2-0.2-0.5-0.3-0.9c-0.1-0.3-0.1-0.7-0.3-0.9
	c-0.1-0.2-0.3-0.3-0.4-0.4c-0.3-0.2-0.6-0.5-0.9-0.7c-0.5-0.3-1.1,0.3-0.6,0.7c0.5,0.4,1.1,0.8,1.6,1.3c0.1,0.1,0.2,0.2,0.2,0.3
	c0,0.1,0.1,0.3,0.1,0.4c0,0.1-0.1,0-0.2,0c0,0-0.1,0-0.1-0.1h0c0,0,0,0.1,0,0.1l0,0c0,0,0.1,0.1,0.1,0.1c0,0.1,0.1,0.1,0.1,0.2
	c1.2,1.7,1.5,3.1,0.6,2.9c-0.1,0.6-0.4,1.1-0.8,1.5c-0.2,0.2-0.6,0.4-0.9,0.4c-0.3,0-0.7-0.1-0.9-0.3c-1.6-1.1-0.9-2.6,0.1-2.8
	c0.4-0.1,0.6,0.2,0.7,0.7c0,0.2-0.2,0.3-0.3,0c-0.1-0.1-0.2,0.3-0.2,0.4c0.3,0.1,0.3,0.3,0.2,0.5c-0.1,0.2-0.2,0.4,0.1,0.6
	c0.3,0.2,0.4,0.1,0.5-0.1c0.1-0.2,0.2-0.3,0.5-0.4c-0.3-0.1-0.4-0.3-0.2-0.5c0.1-0.1,0.2-0.2,0.3-0.3c0.1-0.1,0.1-0.3,0.1-0.4
	c-0.1-1-0.6-2-1.3-2.7c-0.1-0.1,0,0,0,0.1c0,0,0,0.1,0,0.1c0.1,0.6,0.1,1.1-0.1,1.4c-0.1,0.2-0.3,0-0.3-0.1
	c-0.4-1.9-1.2-2.7-2.3-2.8c1.2,2.3,0,3.5-1.4,3.5c-0.2,0-0.5-0.1-0.6-0.2c-0.2-0.1-0.3-0.4-0.3-0.6c0-0.2,0-0.4,0-0.7
	c0-0.1,0-0.2,0.1-0.3c0.1-0.1,0.1-0.2,0.2-0.2c0.6-0.3,1.4,0.3,0.9,0.6c-0.9,0.5-0.6,0.8-0.1,0.9c0,0,0-0.1,0-0.1
	c0-0.3,0-0.5,0.3-0.4c0.2-0.1,0.3,0,0.4,0.1c0,0.1,0.1,0.1,0.1,0.1c0.7-1,0.4-1.9-0.4-2.5c-0.4-0.3-0.9-0.5-1.4-0.7
	c-0.7-0.2-1.4-0.4-2.2-0.5c-0.7-0.1-1.3-0.2-2-0.3c-0.5,3.1,0.4,9.4,1.1,14.1l0,0.1c0.5,3.6-0.2,6.2-1.6,8.1c0,0,0.1,0.1,0.1,0.1
	c0,0,0.1,0.1,0.1,0.2c0,0.1,0,0.1,0.1,0.1c0,0,0.1,0,0.1,0c0.1,0,0.1,0,0.2,0c0.1,0.1,0.1,0.1,0.1,0.2c0.1,0.1,0.1,0.3,0.3,0.3
	c0.2,0,0.3-0.1,0.4-0.3c0-0.1,0.1-0.1,0.1-0.2c0.1-0.1,0.2,0,0.2,0.1c0,0.2,0.1,0.4,0.2,0.6c0,0,0.1,0.1,0.1,0.1
	c0,0.1,0.1,0.1,0.1,0.2c0.1,0.1,0.1,0.3,0.3,0.4l0.1,0.1c0.3,0.1,0.5,0.3,0.8,0.4c0.5,0.3,1,0.5,1.4,0.8c0.5,0.3,0.9,0.7,1.1,1.2
	c0.3,0.5,0.3,1.1,0.3,1.7c-0.4,1.3-0.8,1.9-1.4,2.2c-0.3,0.2-0.7,0.2-1.1,0.2c-1.1-0.4-0.9-1-0.1-1.7c0.4-0.2,0.6,0,0.8,0.6
	c0.1,0,0.3,0,0.4,0c0.3-0.2,0.3-0.9,0.2-1.7c-0.1-0.1-0.1-0.1-0.2-0.2c-0.3-0.1-0.7,0.1-1.1,0.4c-0.1,0.1-0.2,0-0.2-0.1
	c-0.2-0.4,0.1-0.6,0.5-0.9c0,0,0-0.1,0-0.1c-0.4,0-0.8,0.4-1.2,0.7c0,0-0.1,0.1-0.1,0.1c-0.1,0.1-0.1,0.1-0.2,0.2
	c-0.1,0.1-0.3,0.1-0.3,0c-0.3-0.3-0.1-0.6,0.2-0.8c-0.3,0-0.1-0.3,0.3-0.5c0,0,0,0,0,0c0,0,0,0,0,0c0,0,0-0.1,0-0.1c0,0,0,0,0,0
	c-0.3,0-0.2,0-0.2-0.2c0-0.1,0.1-0.2,0.2-0.4c0,0,0-0.1,0-0.1c0,0,0-0.1-0.1-0.1c0,0-0.1-0.1-0.1-0.1c0,0-0.1,0-0.1,0
	c-0.7,0.2-1,0.4-0.9,0.8c0.1,0.7,0,0.9-0.2,1.1c-0.1,0.1-0.1,0.2-0.1,0.3c0,0.2,0,0.3,0,0.5c0,0.4,0,0.7-0.3,1.1
	c-0.1,0.1-0.1,0.1-0.2,0.1c0,0,0,0,0,0c0,0-0.1-0.1-0.1-0.1c0-0.1-0.1-0.1-0.2-0.1c-0.3,0-0.4-0.4-0.4-0.9c0-0.1-0.2-0.1-0.2,0
	c0,0,0,0.1-0.1,0.1c0,0-0.1,0-0.1,0.1c-0.2,0-0.3-0.1-0.3-0.4c0-0.4,0.1-0.8,0.3-1.1c0.1-0.2,0.2-0.3,0.3-0.5
	c0.1-0.1-0.1-0.1-0.1-0.1L50,59.9c-0.2,0.1-0.3,0.4-0.4,1c0,0.1-0.1,0.2-0.1,0.2c-0.1,0.1-0.1,0.1-0.2,0.1c0,0-0.1,0-0.1,0
	c0-0.1,0-0.1,0-0.2c0-0.1,0-0.3-0.1-0.5c0,0-0.1,0-0.1,0c0,0-0.1,0-0.1,0c-0.1,0.2-0.1,0.3-0.1,0.5c0,0.2,0.1,0.3,0.2,0.5
	c0,0,0.1,0.1,0.1,0.1c0.2,0.1,0.3,0.1,0.4,0.4c0.1,0.3,0,0.7-0.2,0.7c-0.1,0-0.1-0.1-0.2-0.1c-0.1-0.1-0.2-0.2-0.3-0.1
	c0,0.3,0,0.6,0,0.9c0,0.1-0.1,0.1-0.1,0.1c-0.1,0-0.3,0.1-0.5,0s-0.3-0.1-0.4-0.2c-0.2-0.2-0.4-0.4-0.5-0.7
	c-0.1-0.1-0.1-0.2-0.2-0.4c-0.1-0.2-0.2-0.1-0.2,0c0,0.1-0.2,0-0.2,0c-0.1-0.1-0.2-0.2-0.3-0.4c-0.1-0.1-0.1-0.3-0.1-0.5
	c0-0.3,0.3-0.6,0.6-0.9c0.1-0.1,0-0.2-0.1-0.2c-0.4,0.2-1-0.1-1.6-0.4h0l-0.8,0.5c0.3,0.1,0.5,0.1,0.8,0.1c0.2,0,0.4,0,0.4,0.2
	c0,0.2,0,0.3-0.1,0.5c-0.1,0.1-0.2,0.3-0.3,0.4c-0.1,0.1-0.3,0.3-0.5,0.4c-0.1,0.1-0.2,0.1-0.2,0.2c-0.1,0.1-0.2,0.3-0.3,0.4
	c-0.1,0.2-0.2,0.4-0.5,0.6c-0.1,0.1-0.3,0.1-0.4,0.1h-0.1c-0.3,0-0.3-0.2-0.3-0.5c0-0.3,0-0.8-0.4-1.3L42.1,62
	c0.6,0.8,0.6,1.6-0.2,2.4c-0.1,0.1-0.2,0.2-0.3,0.2c-0.1,0-0.2,0.2-0.1,0.2l0.4-0.1c0.5-0.1,0.9-0.1,1.4,0c0.2,0,0.3,0.1,0.4,0.1
	c0.6,0.2,1.2,0.6,1.5,1.2c0.1,0.1,0.1,0.3,0.2,0.4c0.1,0.2,0.2,0,0.2,0c0.1-0.2,0.1-0.5,0-0.7c-0.1-0.2-0.2-0.5-0.4-0.6
	c-0.4-0.3-1-0.5-1.5-0.6c0,0-0.1,0-0.1,0c-0.1,0-0.2,0-0.3,0c-0.1,0-0.2,0-0.4,0c-0.1,0,0-0.2,0-0.2l0.4-0.2
	c0.1-0.1,0.2-0.1,0.3-0.1c0,0,0.1,0,0.1,0c0.5-0.2,1-0.3,1.5-0.4c0.7-0.1,1.4,0,2,0.3c0.2,0.1,0.4,0.2,0.5,0.3
	c0.5,0.4,0.9,1,1.2,1.6c0.1,0.2,0.3,0.4,0.4,0.1c0-0.1,0-0.2,0-0.4c0-0.1-0.1-0.2-0.2-0.3c-0.1-0.1-0.1-0.4,0-0.4
	c0.2-0.2,0.5-0.3,0.7-0.3c0.6-0.1,0.9,0.4,0.8,1c-0.1,0.6-0.4,1.1-0.8,1.4c-0.4,0.3-0.8,0.5-1,0.4c-0.2-0.1-0.4-0.1-0.4,0
	c-0.1,0.5-0.2,0.5-0.5,0.4c-0.1,0-0.1,0.2,0,0.3c0.2,0.2,0.3,0.4,0.3,0.7c0,0.2,0,0.5,0,0.7c0,0,0,0,0.1,0c0.2-0.1,0.4-0.2,0.3-0.9
	c0-0.3,0.3-0.3,0.5-0.3c1.3,0.2,0.4,1.3-0.4,2.2c0,0,0,0.1,0,0.2c0,0.1,0,0.2,0,0.3c-0.3,0.2-0.7,0-1-0.2l0,0l-0.1,0
	c-0.1-0.1-0.3-0.2-0.4-0.2c-0.3-0.1-0.6-0.2-1-0.3c-0.2-0.1-0.4-0.1-0.7-0.2c-0.1,0-0.2-0.1-0.4-0.1c-0.8-0.4-0.9-1-1.1-1.7
	c0-0.1-0.1-0.2-0.1-0.3c-0.1-0.2-0.2-0.1-0.2,0.1c0,0.1,0,0.2,0.1,0.4c0.1,0.8,0.3,1.7,1.3,2h0.1c0.4,0.1,0.3,0.3,0.1,0.5
	c0.6,0,1.2,0.1,1.8,0.3c0.1,0,0.1,0,0.2,0c0.1,0,0.3,0.2,0.3,0.3c0,0.3-0.1,0.5-0.2,0.7c0.1,0,0.2-0.1,0.3-0.1
	c0.3-0.1,0.5-0.3,0.7-0.6c0,0,0.1,0,0.2,0.1c0,0.1,0,0.2,0,0.4c0,0.1,0,0.1,0,0.1c0,0.1,0,0.2-0.1,0.4c-0.1,0.1-0.2,0.1-0.3,0.1
	c-0.1,0-0.1,0-0.1,0c0,0,0,0.3,0,0.3c0.7-0.1,0.7-0.2,0.7-0.3c0-0.1,0-0.2,0.1-0.3c0.4-0.5,0.8-0.1,0.8,0.4c0,0.1-0.1,0.2-0.2,0.3
	c-0.1,0.1-0.2,0.2-0.2,0.3c-0.1,0.1-0.1,0.3-0.3,0.4c-0.1,0.1-0.3,0.2-0.4,0.2c-0.2,0-0.3,0-0.5,0c-0.2,0-0.3-0.1-0.4-0.2
	c-0.1,0-0.1-0.1-0.2-0.2c0-0.1-0.2,0-0.2,0.1c0.1,0.3,0.1,0.7,0.2,1c0,0.3,0.1,0.5,0.1,0.8c0,0.1,0,0.1,0,0.1c0,0,0,0.1,0,0.1
	c0,0.1,0,0.1,0.1,0.1c0.1,0,0.2-0.1,0.5,0.2c0.3,0.2,0.5-0.4,0.4-0.4c-0.3,0-0.6-0.2-0.4-0.5c0.3-0.6,1-0.7,1.1-0.2
	c0.1,0.2,0.1,0.4,0.1,0.7c0,0.2-0.1,0.4-0.2,0.6c-0.1,0.2-0.2,0.4-0.4,0.5c-0.2,0.2-0.4,0.3-0.6,0.3c-0.2,0.1-0.5,0-0.7-0.1
	c-0.2-0.1-0.4-0.2-0.5-0.3C47.1,76,47,75.9,47,75.7c0,0,0,0.1,0,0.1c-0.3,0.7-0.5,1-1,0.9c-0.1,0-0.2-0.1-0.1-0.2
	c0.1-0.1,0.2-0.3,0.2-0.5s0-0.3,0-0.5c0-0.1-0.1-0.1-0.1-0.1c-0.1,0.5-0.4,0.9-0.6,1.3c-0.4,0.5-0.9,0.9-1.5,1.1L43.3,78l-0.3,0
	c-0.4,0.1-0.7,0-1.1-0.1c-0.2,0-0.3-0.1-0.4-0.2c-0.1-0.1-0.2-0.2-0.3-0.4c-0.1-0.1-0.1-0.3-0.1-0.5c0-0.2,0-0.3,0-0.5
	c0.2-0.7,0.5-1,0.9-1.1c0.2,0,0.3,0,0.5,0c0.1,0.1,0.3,0.2,0.4,0.3c0.1,0.2,0,0.4-0.2,0.6c-0.1,0.2-0.2,0.4,0,0.4
	c0.3-0.1,0.5-0.2,0.7-0.3c0,0,0.1-0.1,0.1-0.1c0,0,0-0.1,0-0.1c0-0.1,0-0.2,0-0.3c0-0.1,0-0.1,0.1-0.2c0,0,0.1-0.1,0.1-0.1
	c0,0,0.1,0,0.1-0.1c0.1,0,0.1-0.1,0.2-0.1c0.2-0.1,0.1-0.2,0-0.2c-0.1,0-0.1,0-0.2,0c-0.2,0.1-0.3,0.2-0.4,0.3c0,0-0.1,0-0.1,0
	c0,0-0.1,0-0.1-0.1c0-0.1,0-0.3,0-0.4c0-0.1,0.1-0.3,0.2-0.4c0.1-0.2,0.3-0.3,0.4-0.5l0,0c0,0,0.1-0.2,0-0.2c0,0,0,0-0.1,0
	c-0.1,0-0.1,0.1-0.2,0.1c-0.1,0.1-0.1,0.1-0.1,0.2c-0.1,0.2-0.3,0.3-0.4,0.4c-0.1,0.1-0.3,0.1-0.4,0c-0.1-0.2-0.2-0.4-0.2-0.6
	c0-0.2,0-0.4,0.1-0.6c0.1-0.2,0.2-0.4,0.4-0.5c0.1-0.1,0.2-0.3,0.4-0.5c0.1-0.2-0.1-0.3-0.3-0.1c-0.3,0.4-0.6,0.8-0.9,1.1
	c-0.3,0.2-0.6,0.3-0.9,0.1c-0.1-0.1-0.2-0.2-0.1-0.2c0.1-0.1,0.2-0.3,0.3-0.4c0.3-0.4,0.7-0.8,0.6-1.3c0,0,0,0,0,0c0,0,0,0,0,0
	c0,0,0.1,0,0.1,0c0.7,0.8,0.8-0.5,0.7-1.1c0-0.2,0.1-0.2,0.2-0.1l0.4,0.3c0.1,0,0.1,0.1,0.2,0.1c0.1,0.1,0.2,0.1,0.3,0.2
	c0.7,0.6,1.2,1.3,1.5,2.2c0.1,0.3,0.1,0.6,0.1,0.9c0.1,0.2,0.1,0.2,0.2,0c0.1-0.6,0-1.3-0.3-1.8c-0.4-0.7-0.9-1.2-1.5-1.7
	c0,0,0,0-0.1-0.1c-0.1-0.1-0.3-0.2-0.4-0.3c0,0,0,0-0.1,0c-0.1-0.1-0.2-0.1-0.3-0.2c0,0-0.1-0.1-0.1-0.1c0-0.1,0-0.1,0-0.2
	c0.3-0.9,0.2-1.3-0.2-1.7c-0.1,0-0.1-0.1-0.1-0.2c0.1-0.9-0.1-1.2-0.6-1.1c0,0-0.1,0-0.1,0c-0.1,0-0.2,0-0.3-0.1
	c-0.1-0.1-0.2-0.2-0.2-0.3c-0.1-0.2-0.3-0.5-0.7-0.4c-0.2,0.1-0.3,0.1-0.5,0.2c-0.1,0.1-0.2,0.1-0.3,0.2c-0.2,0.1-0.4,0.2-0.6,0.2
	c0,0,0,0-0.1,0c-0.2,0-0.1-0.1,0-0.2l0,0c0.1-0.2,0.2-0.5,0.2-0.8c0-0.3-0.1-0.5-0.2-0.8l0-0.1c0,0,0,0,0,0c0-0.1-0.1-0.1,0-0.2h0.1
	c0.2,0,0.3,0,0.5,0c1.3-0.2,1.6-1.2,1.1-1.9c0,0-0.1,0-0.1,0.1c-0.1,0.1-0.2,0.1-0.3,0.2c0.1,0.1,0.1,0.3,0.1,0.4
	c0,0.1,0,0.3-0.1,0.4c-0.1,0.1-0.2,0.2-0.3,0.3c-0.1,0.1-0.3,0.1-0.4,0.1c-0.2,0-0.4,0-0.6-0.2L39,64c-0.2,0.1-0.3,0.3-0.5,0.4
	c0.5,0.6,0.6,1.4-0.2,2.2c0,0-0.1,0.1-0.1,0.1c0,0-0.2,0.1-0.3,0c0,0,0,0,0-0.1c0,0,0,0,0-0.1c0-0.1,0-0.2,0-0.3c0-0.2,0-0.3,0-0.5
	c0-0.2-0.1-0.5-0.2-0.7c0,0-0.1,0-0.1,0.1c-0.2,0.1-0.3,0.2-0.5,0.2c-0.2,0-0.4-0.1-0.5-0.2c0,0-0.1,0-0.1-0.1
	c-0.2,0.5-0.3,1-0.2,1.5c0,0.1,0,0.1-0.1,0.2c0,0-0.1,0-0.1,0s-0.1,0-0.1-0.1c0,0-0.1,0-0.1-0.1c-0.8-0.9-0.7-1.7-0.2-2.3
	c-0.1-0.1-0.1-0.1-0.2-0.2c-0.1-0.1-0.2-0.2-0.3-0.3c0,0,0,0-0.1,0.1c-0.2,0.1-0.4,0.2-0.6,0.2c-0.2,0-0.3-0.1-0.4-0.2
	c-0.1-0.1-0.2-0.1-0.2-0.2c-0.1-0.1-0.1-0.2-0.1-0.3c0-0.1,0-0.2,0-0.3c0-0.1,0.1-0.2,0.1-0.3l-0.4-0.3c-0.5,0.5-0.3,1.5,0.6,1.8
	c0.1,0.1,0.3,0.1,0.4,0.1c0.2,0,0.3,0,0.5,0c0,0,0.1,0,0.1,0c0.1,0,0.1,0.1,0,0.2c0,0,0,0,0,0l0,0c-0.1,0.2-0.2,0.5-0.2,0.8
	c0,0.3,0.1,0.5,0.2,0.8h0c0.1,0.1,0.1,0.2,0,0.2c0,0,0,0-0.1,0c-0.2-0.1-0.4-0.1-0.6-0.2c-0.1-0.1-0.2-0.1-0.3-0.2
	c-0.1,0-0.1-0.1-0.2-0.1C34.1,66,34,66,33.8,65.9c-0.4-0.1-0.6,0.1-0.7,0.4c-0.1,0.1-0.1,0.2-0.2,0.3c-0.1,0.1-0.2,0.1-0.3,0.1
	c-0.6-0.1-0.9,0.1-0.7,1.1c0,0-0.1,0.1-0.1,0.2l0,0c-0.4,0.4-0.6,0.8-0.3,1.7c0,0.1,0,0.1,0,0.2c0,0.1,0,0.1-0.1,0.1c0,0,0,0-0.1,0
	c-0.1,0-0.1,0.1-0.3,0.2c-0.1,0.1-0.2,0.1-0.2,0.2c-0.1,0.1-0.1,0.1-0.2,0.2c-0.6,0.5-1.1,1-1.5,1.7c-0.3,0.5-0.4,1.2-0.4,1.8
	c0.1,0.2,0.1,0.2,0.2,0c0-0.3,0.1-0.6,0.1-0.9c0.3-0.8,0.8-1.6,1.5-2.1c0.1-0.1,0.3-0.3,0.4-0.4c0,0,0.1-0.1,0.1-0.1
	c0.1-0.1,0.1-0.1,0.2-0.1c0.1-0.1,0.3-0.1,0.2,0.1c-0.1,0.6,0,1.9,0.7,1.1c0,0,0.1,0,0.1,0c0,0.5,0.3,0.9,0.6,1.3
	c0.1,0.1,0.2,0.3,0.3,0.4c0.1,0.1,0,0.2-0.1,0.2c-0.6,0.4-1.1-0.3-1.7-1.2l0-0.1c-0.1-0.2-0.4-0.1-0.3,0.1c0.1,0.2,0.2,0.4,0.4,0.5
	c0.1,0.2,0.3,0.3,0.4,0.5c0.1,0.2,0.1,0.4,0.1,0.6c0,0.2-0.1,0.4-0.2,0.6c-0.1,0.1-0.3,0-0.4,0c-0.2-0.1-0.3-0.3-0.4-0.4l0,0
	c-0.1-0.2-0.2-0.3-0.4-0.3c0,0,0,0-0.1,0c-0.2,0-0.1,0.1,0,0.2l0,0c0.2,0.2,0.3,0.3,0.4,0.5c0.1,0.1,0.2,0.2,0.2,0.3
	c0,0.1,0,0.3,0,0.4c0,0,0,0.1-0.1,0.1s-0.1,0-0.1,0c-0.1-0.1-0.3-0.2-0.4-0.3c-0.1,0-0.1,0-0.2,0c-0.1,0-0.2,0.1,0,0.2
	c0.1,0,0.1,0.1,0.2,0.1c0,0,0.1,0.1,0.1,0.1c0,0,0.1,0,0.1,0.1c0.1,0.1,0.1,0.1,0.1,0.2c0,0.1,0,0.1,0,0.3c0,0.1,0,0.1,0.1,0.2
	c0,0,0.1,0.1,0.1,0.1c0.2,0.1,0.5,0.3,0.7,0.3c0.2,0,0.1-0.2,0-0.4c-0.1-0.2-0.3-0.4-0.2-0.6c0.3-0.5,1.3-0.7,1.7,0.7
	c0.3,1.1-0.8,1.8-1.9,1.6c0,0-0.1,0-0.1,0c-0.1,0-0.1,0-0.2,0c-0.2,0-0.3-0.1-0.4-0.1c-0.6-0.2-1.1-0.5-1.5-1
	c-0.3-0.4-0.5-0.9-0.7-1.3c0,0-0.1,0-0.2,0.1c0,0.2-0.1,0.3,0,0.5c0,0.2,0.1,0.3,0.2,0.5c0,0.1-0.1,0.2-0.1,0.2
	c-0.5,0.1-0.6-0.2-1-0.9c0,0,0-0.1,0-0.1c0,0.1-0.1,0.3-0.2,0.4c-0.2,0.2-0.3,0.3-0.5,0.4c-0.2,0.1-0.5,0.1-0.7,0.1
	c-0.2-0.1-0.4-0.2-0.6-0.3c-0.2-0.2-0.3-0.3-0.4-0.5c-0.1-0.2-0.1-0.4-0.2-0.6s0-0.4,0.1-0.7c0.2-0.5,0.8-0.3,1.1,0.2
	c0.2,0.3-0.1,0.6-0.4,0.5c-0.1,0,0.1,0.6,0.4,0.4c0.4-0.3,0.5-0.2,0.5-0.2c0,0,0,0,0.1-0.1c0-0.1,0.1-0.1,0.1-0.2
	c0.1-0.3,0.1-0.5,0.1-0.8c0-0.3,0.1-0.7,0.2-1c0-0.1-0.1-0.1-0.2-0.1l-0.2,0.2c-0.1,0.1-0.3,0.2-0.4,0.2c-0.2,0-0.3,0-0.5,0
	c-0.2,0-0.3-0.1-0.4-0.2c-0.1-0.1-0.2-0.2-0.3-0.4c0-0.1-0.1-0.2-0.2-0.3c-0.1-0.1-0.2-0.2-0.2-0.3c0-0.5,0.4-0.9,0.8-0.4
	c0.1,0.1,0.1,0.2,0.1,0.3c0,0.1,0,0.2,0.7,0.3c0,0,0.1-0.2,0-0.3c0-0.1-0.1-0.1-0.2-0.1c-0.1,0-0.2,0-0.2-0.1
	c-0.2-0.2-0.1-0.3-0.1-0.4c0,0,0-0.1,0-0.1c0-0.1,0-0.2,0-0.4c0-0.1,0.1-0.1,0.2-0.1c0.2,0.3,0.4,0.5,0.7,0.6c0.1,0,0.2,0.1,0.3,0.1
	c-0.1-0.2-0.2-0.5-0.2-0.7c0-0.2,0.1-0.3,0.3-0.3c0.1,0,0.2,0,0.2,0c0.6-0.2,1.2-0.3,1.8-0.3c-0.2-0.2-0.3-0.4,0.1-0.5l0.1,0
	c1-0.3,1.2-1.2,1.3-2c0-0.1,0-0.2,0.1-0.4c0.1-0.2-0.1-0.3-0.2-0.1c0,0.1-0.1,0.2-0.1,0.3c-0.2,0.7-0.4,1.3-1.1,1.7
	c-0.1,0.1-0.2,0.1-0.4,0.2c-0.2,0.1-0.4,0.1-0.7,0.2c-0.3,0.1-0.6,0.2-0.9,0.3c-0.2,0.1-0.3,0.1-0.4,0.2c0,0-0.1,0-0.1,0
	c-0.3,0.2-0.7,0.5-1,0.2c0,0,0-0.1,0-0.2c0-0.1,0-0.2,0-0.3c-0.8-0.9-1.7-2-0.4-2.2C25.4,68,25.8,68,25.7,68.3z M48.3,21.9
	c0,0.1,0.2,0.2,0.3,0.1c0.1,0,0.1-0.1,0.1-0.2c0-0.1,0-0.1,0.1-0.2c0.1,0,0.1,0,0.2,0c0.1,0,0.2,0.2,0.2,0.3c0,0.1,0.1,0.2,0.1,0.2
	c0.1-0.3,0.4-0.3,0.7-0.3c0.1,0,0.2,0.1,0.2,0.1c0-0.2-0.1-0.4-0.2-0.5c-0.2-0.1-0.3-0.2-0.5-0.3c-0.2,0-0.4,0-0.6,0
	c-0.2,0.1-0.3,0.3-0.4,0.5C48.4,21.8,48.4,21.8,48.3,21.9z M26.1,21.9c0-0.1-0.1-0.1-0.1-0.2c-0.1-0.2-0.2-0.4-0.4-0.5
	c-0.2-0.1-0.4-0.1-0.6,0c-0.2,0-0.4,0.1-0.6,0.3c-0.1,0.1-0.2,0.3-0.2,0.5c0.1-0.1,0.1-0.1,0.2-0.1c0.3-0.1,0.6,0,0.7,0.3
	c0.1,0,0.1-0.1,0.2-0.2c0-0.1,0.1-0.2,0.2-0.3c0.1,0,0.1,0,0.2,0c0,0.1,0.1,0.1,0.1,0.2c0,0.1,0,0.2,0.1,0.2
	C25.9,22.1,26.2,22,26.1,21.9z M34.9,63.8l-0.2-0.2l-0.2-0.2c-0.1,0.2,0,0.3,0.2,0.4c0,0,0.1,0,0.1,0S34.9,63.8,34.9,63.8z M40,63.5
	l-0.2,0.2l-0.2,0.2c0,0,0.1,0,0.1,0c0,0,0.1,0,0.1,0C40,63.8,40.1,63.6,40,63.5z M44,61.2c0-0.1-0.1-0.1-0.1-0.2L43.8,61l-0.3,0.2
	c0.1,0,0.1,0,0.2,0.1c0,0,0.1,0,0.1,0c0,0,0.1,0,0.1,0c0,0,0.1,0,0.1,0C44.1,61.3,44.1,61.2,44,61.2z M48.4,58.9
	c-0.2,0-0.4,0-0.6-0.1c-0.1,0-0.2-0.1-0.2-0.1l-0.3,0.2c0,0,0,0,0,0c0,0,0,0,0,0h0c0,0,0,0,0.1,0c0.2,0.1,0.3,0.1,0.5,0.1
	C48,59,48.2,59,48.4,58.9C48.4,59,48.4,59,48.4,58.9C48.4,58.9,48.4,58.9,48.4,58.9z M50.4,57.2c-0.2-0.1-0.3-0.1-0.4-0.2
	c-0.1-0.1-0.2-0.1-0.2-0.2c-0.1,0.1-0.1,0.2-0.2,0.2c0.1,0.1,0.3,0.2,0.5,0.2C50.1,57.3,50.3,57.3,50.4,57.2
	C50.5,57.3,50.5,57.2,50.4,57.2z M47,25.4l0.3-0.1l0.3-0.1c-0.2-0.6-0.1-1.2,0.2-1.7l0,0c-0.1,0-0.2-0.2-0.3-0.3
	c-0.1-0.1-0.1-0.1-0.1-0.1c0,0,0,0-0.1,0c0,0-0.1,0-0.1,0C46.7,23.5,46.6,24.5,47,25.4z M43.2,22.1C43.2,22.1,43.3,22.1,43.2,22.1
	c0.2,0.3,0.4,0.6,0.5,0.8c0.5,0.8,0.7,1.7,0.7,2.6c0.3,0,0.5,0,0.8,0h0.3l-0.1-2.9c0-0.2-0.1-0.3-0.2-0.5c-0.3-0.4-0.7-0.7-1.2-0.9
	c-0.1-0.1-0.1,0.1-0.1,0.1c0,0.1-0.1,0.3-0.2,0.4C43.6,21.8,43.5,22,43.2,22.1L43.2,22.1z M39.1,21.8c-0.1,0.1-0.3,0.2-0.3,0.4
	c-0.1,0.2-0.1,0.3,0,0.5c0.1-0.1,0.2-0.1,0.4-0.2c0.1,0,0.2,0,0.3,0c0.1,0,0.2,0.1,0.2,0.2c0,0,0,0,0,0c0.3-0.3,0.6-0.4,0.9-0.1
	c0.9-0.3,1,0,0.9,0.6c0.1,0,0.2,0,0.3,0c0.2,0.1,0.2,0.3,0,0.6c0,0,0.1,0.1,0.1,0.1c0,0,0,0.1,0,0.1s0,0.1,0,0.1c0,0,0,0.1-0.1,0.1
	c-0.2,0.2-0.4,0.3-0.6,0.4c0.2,0.1,0.4,0.2,0.6,0.3c0.3,0.1,0.6,0.2,0.9,0.3c0.1-0.2,0.2-0.3,0.3-0.4c0.1-0.1,0.2-0.2,0.2-0.2
	c0,0,0.1-0.1,0.1-0.2c0-0.1,0-0.1-0.1-0.1c-0.1,0.1-0.2,0.1-0.2,0.2l0,0c-0.4,0.2-0.6-0.2-0.4-0.4c0.4-0.5,0.2-1.3-0.4-1.8h-0.4
	c-0.5,0-1.1-0.3-1.4-0.6c-0.2,0-0.5,0-0.7,0.1C39.5,21.7,39.3,21.7,39.1,21.8z M35.2,15.1C35.2,15.2,35.2,15.2,35.2,15.1
	c0.1,0.1,0.1,0.1,0.1,0.2c0.4,0.5,0.6,1,0.8,1.5c0.2,0.7,0.2,1.4,0,2c-0.1,0.3-0.2,0.6-0.4,0.9c0.1,0,0.2,0,0.2,0.1
	c0.1,0,0.1,0.1,0.1,0.2c0,0.1,0.1,0.2,0.1,0.3c0,0.1,0.1,0.1,0.1,0c0-0.2,0.1-0.3,0.2-0.4c0.1-0.1,0.2-0.3,0.3-0.4
	c0.1-0.1,0.3-0.2,0.5-0.2c0.2,0,0.4,0.1,0.5,0.2c0.1,0.1,0.2,0.2,0.3,0.3c0.1,0.2,0.2,0.4,0.2,0.5c0,0.1,0.1,0,0.1,0
	c0-0.1,0-0.2,0.1-0.4c0-0.1,0.1-0.1,0.2-0.2c0.1,0,0.1-0.1,0.2-0.1c-0.2-0.3-0.3-0.6-0.4-0.9c-0.2-0.7-0.2-1.4,0-2.1
	c0.2-0.5,0.4-1,0.7-1.5c0,0,0-0.1,0.1-0.1c0,0,0-0.1,0.1-0.1l-0.1,0c-0.3-0.1-0.5-0.2-0.7-0.3l-0.2-0.1c-0.1,0-0.1,0.1-0.1,0.2
	c0.1,0.6,0.2,0.9-0.2,1h-0.1c0,0.3,0,0.6-0.1,0.9c0,0.1-0.1,0.2-0.2,0.3c-0.1,0.1-0.2,0.1-0.3,0.1c-0.1,0-0.2-0.1-0.3-0.1
	c-0.1-0.1-0.2-0.2-0.2-0.3c-0.1-0.3-0.2-0.6-0.1-0.9c-0.1,0-0.1,0-0.2,0c-0.3-0.1-0.2-0.5-0.1-1c0-0.1,0-0.2-0.1-0.2
	c-0.1,0-0.1,0.1-0.2,0.1c-0.2,0.1-0.5,0.2-0.8,0.3L35.2,15.1z M36.4,23.3c-0.1,0.2-0.2,0.3-0.3,0.4c0,0,0,0,0,0c0,0,0,0,0,0
	c0,0,0,0,0,0c0,0,0,0,0,0c0.1,0.2,0.2,0.3,0.3,0.5h1.8c0.1-0.2,0.2-0.4,0.3-0.5c0,0,0-0.1,0.1-0.1l-0.1,0c-0.2-0.1-0.3-0.3-0.4-0.5
	l0,0c-0.1-0.2-0.1-0.5-0.1-0.8h-1.2c-0.1,0-0.1,0-0.2,0C36.6,22.8,36.5,23.1,36.4,23.3z M31.4,24.5c-0.1-0.1-0.2-0.1-0.2-0.2
	c0,0,0,0-0.1,0c0,0,0,0,0,0.1c0,0.1,0,0.1,0.1,0.2c0.1,0.1,0.1,0.2,0.2,0.2c0.1,0.1,0.2,0.2,0.3,0.4c0.5-0.1,1-0.3,1.5-0.6
	c-0.4-0.2-0.9-0.5-0.6-0.8c-0.3-0.3-0.2-0.7,0.3-0.6c-0.1-0.6,0.1-0.9,0.9-0.6c0-0.1,0.1-0.1,0.2-0.1c0.1,0,0.2,0,0.2,0
	c0.2,0,0.3,0.1,0.4,0.3c0,0,0.1,0,0.1,0.1c0.1-0.1,0.1-0.2,0.2-0.2c0.1,0,0.2,0,0.3,0c0.1,0,0.3,0.1,0.4,0.2c0-0.2,0-0.4,0-0.5
	c-0.1-0.2-0.2-0.3-0.3-0.4v0c-0.2-0.1-0.4-0.2-0.6-0.2c-0.1,0-0.3-0.1-0.4-0.1c-0.1,0-0.1,0-0.2,0c-0.2,0.2-0.5,0.4-0.8,0.5
	c-0.3,0.1-0.7,0.2-1,0.1c-0.6,0.6-0.7,1.3-0.4,1.8C31.9,24.3,31.8,24.7,31.4,24.5z M28.9,25.6h0.3l0,0c0.3,0,0.5,0,0.8,0
	c0-0.9,0.2-1.8,0.7-2.5c0.1-0.2,0.3-0.5,0.4-0.8c0,0,0.1-0.1,0.1-0.1c0,0,0,0-0.1,0c-0.2-0.1-0.3-0.2-0.4-0.4
	c-0.1-0.1-0.1-0.2-0.2-0.4c0,0,0,0,0,0c0-0.1,0-0.2-0.1-0.1c-0.5,0.2-0.9,0.6-1.2,1c-0.1,0.1-0.2,0.3-0.2,0.5L28.9,25.6z M26.7,23.5
	c0.3,0.5,0.3,1.1,0.2,1.7l0.3,0.1c0.1,0,0.2,0,0.3,0.1c0.3-0.9,0.2-1.8-0.2-2.2c0,0-0.1,0-0.1,0c0,0-0.1,0.1-0.1,0.1
	C27,23.4,26.9,23.5,26.7,23.5z M24.9,57l-0.2-0.2c-0.1,0.1-0.2,0.2-0.2,0.2c-0.1,0.1-0.3,0.2-0.4,0.2c0,0,0,0.1,0,0.1
	c0.2,0,0.3,0,0.4-0.1C24.6,57.2,24.8,57.1,24.9,57z M27.3,58.9C27.2,58.9,27.2,58.9,27.3,58.9l-0.3-0.2c-0.1,0.1-0.2,0.1-0.2,0.1
	c-0.2,0-0.4,0.1-0.6,0.1h0c0,0,0,0.1,0,0.1c0.2,0.1,0.4,0.1,0.6,0.1C26.9,59.1,27,59,27.3,58.9L27.3,58.9z M31,61.2L30.7,61L30.6,61
	v0c0,0.1-0.1,0.2-0.1,0.2c-0.1,0.1-0.1,0.1,0,0.1c0,0,0.1,0,0.1,0c0,0,0.1,0,0.1,0c0,0,0.1,0,0.1,0C30.9,61.3,31,61.2,31,61.2z
	 M34.2,62.4c0.1,0.1,0.2,0.2,0.3,0.2c0,0,0.1,0.1,0.1,0.1l0.6,0.5c0.2,0.2,0.5,0.4,0.7,0.6c0,0,0,0,0.1,0l0.3,0.3
	c0.1,0.1,0.2,0.2,0.3,0.3c0,0,0.1,0.1,0.1,0.1c0.1,0.1,0.2,0.2,0.2,0.2c0.1,0,0.1,0.1,0.2,0.1c0.1,0,0.1,0,0.2-0.1
	c0.1-0.1,0.1-0.2,0.2-0.2c0,0,0.1-0.1,0.1-0.1c0.1-0.1,0.2-0.2,0.3-0.3l0.4-0.4c0.1-0.1,0.1-0.1,0.2-0.2c0.2-0.2,0.4-0.3,0.5-0.4
	l0.6-0.4c0.7-0.5,1.4-1,2.1-1.4c0.3-0.2,0.6-0.4,1-0.6c0.1-0.1,0.3-0.2,0.4-0.2l0.3-0.2l0.2-0.1c0.1-0.1,0.3-0.2,0.4-0.2
	c0.4-0.2,0.7-0.4,1.1-0.7c0.7-0.4,1.3-0.8,2-1.3c0.1-0.1,0.2-0.2,0.4-0.3c0.1,0,0.1-0.1,0.2-0.1c0.6-0.4,1.1-0.9,1.6-1.5
	c0.2-0.3,0.4-0.5,0.6-0.8c1.6-2.3,1.9-4.9,1.5-7.7c-0.1-0.5-0.1-1-0.2-1.5c-0.2-1.2-0.3-2.4-0.5-3.7l0-0.1c-0.3-2.5-1-8-0.1-10.3
	c0.3-0.8,1.6-1.9,2.4-2.5c0.1-0.1,0.2-0.2,0.3-0.2c0,0,0,0,0.1,0l0.6-0.5l-0.9-1.3l-2.2-2.9c-0.3,0.2-0.7,0.4-1,0.5
	c-0.7,0.3-1.4,0.6-2.2,0.8c0,0-0.1,0-0.1,0c-0.1,0-0.3,0.1-0.4,0.1c-0.7,0.1-1.3,0.2-2,0.2c-0.5,0-1-0.1-1.5-0.1
	c-0.2,0-0.3,0-0.4-0.1c-0.5-0.1-0.9-0.2-1.4-0.4c-0.4-0.2-0.9-0.3-1.3-0.6h-6.7c-0.9,0.4-1.8,0.7-2.7,1c-0.1,0-0.3,0.1-0.4,0.1
	c-0.5,0.1-1,0.1-1.5,0.1l0-0.1c-0.7,0-1.3,0-2-0.2c-0.2,0-0.3-0.1-0.5-0.1c0,0-0.1,0-0.1,0c-0.8-0.2-1.5-0.4-2.2-0.8
	c-0.3-0.2-0.7-0.3-1-0.5l-2.2,3l-0.9,1.3c0,0,0.1,0,0.1,0.1c0.2,0.1,0.3,0.3,0.5,0.4c0,0,0.1,0.1,0.2,0.1c0.1,0,0.1,0.1,0.2,0.1
	c0.8,0.7,2.1,1.7,2.4,2.5c0.8,2.3,0.2,7.7-0.1,10.2c0,0.1,0,0.1,0,0.2c-0.2,1.7-0.4,3.4-0.7,5.1c-0.4,2.8-0.1,5.4,1.5,7.7
	c0.2,0.3,0.4,0.5,0.6,0.8c0.5,0.5,1,1,1.6,1.5c0.2,0.1,0.4,0.3,0.5,0.4c0.6,0.5,1.3,0.9,2,1.3c0.5,0.3,1,0.6,1.5,0.9l0.2,0.1
	l0.3,0.2C32.2,61.1,33.2,61.7,34.2,62.4z M45.3,16c0.2,0.3,0.5,0.5,0.9,0.6c0.3,0.1,0.7,0.2,1.1,0.1c0.2,0,0.3,0,0.5-0.1
	c0.2,0,0.4-0.1,0.6-0.3c0.6-0.5,1.1-1,1.6-1.7c0.4-0.5,0.9-1,1.5-1.4c0.1-0.1,0.2,0,0.1,0.1c-0.4,0.3-0.7,0.7-0.9,1.2
	c-0.2,0.5-0.3,1-0.3,1.5c0,0.5,0.2,1,0.4,1.5c0.3,0.5,0.6,0.8,1,1.1c0.1,0,0.1,0.1,0.1,0.2c0,0.1,0.1,0.2,0.3,0.2
	c0,1.1,0.4,1.5,1,1.8c0.4,0.2,0.8,0.5,1.1,0.8c0.2,0.2,0.3-0.2,0.2-0.5c0.1,0,0.3,0.1,0.4,0.2c0.1,0.1,0.2,0.2,0.2,0.3
	c-0.9,0.4-1.7,1-1.9,1.9c-0.1,0.3-0.1,0.6,0,0.9c0,0.2,0.1,0.4,0.2,0.6c0.2,0.4,0.4,0.7,0.8,0.8c0.4,0.2,0.8,0.2,1.2,0
	c0.3-0.1,0.5-0.2,0.6-0.4c0.2-0.2,0.3-0.5,0.3-0.7c0-0.1,0-0.2-0.1-0.2c-1.1,0.3-0.8-1.9,0-2c0.1,0,0.2,0.1,0.2,0.1
	c0,0.1,0,0.1,0.1,0.1c0.1,0,0.1-0.2,0.1-0.3c0-0.1,0-0.2,0.1-0.3c0.2-0.1,0.3,0.2,0.5,0.4c0.1,0.1,0.1,0.2,0.2,0.3
	c0.5,0.7,0.5-0.4,0.3-0.8c-0.1-0.2,0.1-0.2,0.2,0c0.3,0.3,0.4,0.6,0.4,1c0.2,0.7-0.2,0.7-0.8,0.4c-0.2-0.1-0.2,0.1-0.3,0.3
	c0,0.1,0,0.2-0.1,0.3c-0.1,0.1-0.1,0-0.2-0.2c0-0.1-0.1-0.1-0.1-0.2c-0.1-0.1-0.2-0.1-0.2,0c-0.2,1.4,0.9,1.7,1.7,1.3
	c1-0.5,1.1-1.7,0.4-2.9c0,0,0,0,0-0.1c0-0.1,0-0.2,0.1-0.2c1.1,0.1,2.1,0.4,3.1,0.9c2.8,1.3,5.8,4,6.3,7.5c0.1,1-0.7,2.5-1.7,2.5
	c-0.1,0-0.1,0.1-0.1,0.2c0.3,0.6,0.8,0.6,1.6,0.4c0,0.5-0.6,1.3-1.1,1.3c-0.7-1.5-1.7-1-1.8-0.5c-0.1,0.3,0,0.6,0.1,0.9
	c0.2,0.3,0.4,0.5,0.7,0.6c1.5,0.7,2.7-0.3,3.2-2.2c0.4,0.8,1.1,1.1,1.7,0.8l0,0.1c0,0,0.1-0.1,0.1-0.1c0-0.1,0-0.1,0-0.2
	c-0.9-1-0.9-1.7-1-2.6c0-0.5-0.1-1-0.3-1.7c-1-3.9-4.3-6.8-7.6-8.1c-1.3-0.6-2.8-0.8-4.2-0.8c-0.3,0-0.3-0.1-0.2-0.1
	c1.9-0.4,3.2-1.2,4.2-1.9c0.1-0.1,0.2-0.1,0.2-0.2c1.1-0.7,1.9-1.2,2.8-0.5c0,0,0.2,0,0.2-0.1c0-0.8-0.7-0.9-1.5-0.9
	c0,0-0.1-0.1-0.1-0.2c0.2-0.2,0.3-0.3,0.5-0.5c1.3-1.2,2.6-2.3,4.6-1c-0.1,0.2-0.2,0.4-0.2,0.6c0,0.2,0.1,0.4,0.2,0.6
	c-0.4,0.7,0.2,1.1,0.4,0.6c0,0,0-0.1,0.1-0.1c0.1-0.2,0.3-0.5,0.3-0.2c0,0.4-0.3,0.8-0.6,1.2c0,0.1-0.1,0.1-0.1,0.2c0,0,0,0.1,0,0.1
	c0,0,0,0.1,0.1,0.1c0.7,0.3,1-0.5,1.1-0.9c0.1-0.2,0.1-0.2,0.1-0.1c-0.1,1.3-0.9,1.9-1.9,1.1c-0.1-0.1-0.2-0.1-0.3,0.1
	c-0.1,0.2-0.1,0.5,0.4,0.9c-0.1,0-0.3,0-0.4-0.1c-0.1-0.1-0.2-0.2-0.3-0.3c0.3-0.9-0.8-1.1-0.8-0.5c0,0.1,0,0.5-0.2,0.3
	c-0.1-0.2-0.2-1.3,0.6-1.4c0,0.1,0,0.2,0,0.3c0,0.1,0.1,0.1,0.2,0.2c0.1,0,0.2,0.1,0.2,0.1c0.1,0,0.2,0,0.2-0.1
	c0.1,0,0.1-0.1,0.1-0.1c0-0.1,0.1-0.1,0.1-0.2c0-0.1,0-0.1,0-0.2c0-0.1-0.1-0.1-0.1-0.2c-0.9-1.2-2.5,0.8-1.8,1.8
	c2.2,3,5.2-0.7,4-2.9c-0.9-1.7-3.1-2.2-4.8-1.5c0,0-0.1,0-0.1,0c-0.2,0.1-0.4,0.2-0.5,0.2c-1,0.6-1.9,1.4-2.6,2.3
	c-0.3,0.3-0.5,0.7-0.8,0.9c-0.2,0.2-0.3,0-0.2-0.1c0.9-1.2,0.8-1.7,0.5-2.1c-0.1-0.1-0.4-0.1-0.3,0.1c0.1,0.3,0,0.3-0.1,0.4
	c-0.1,0-0.2,0.1-0.3,0.2c-0.4,0.5-0.5,0.8-0.5,1c0,0.3-0.1,0.5-0.5,0.8c-0.1,0.1-0.1-0.1-0.1-0.1c0.4-0.6,0.4-1.1,0-1.5
	c0,0,0,0-0.1,0c0,0,0,0-0.1,0c0,0,0,0-0.1,0c0,0,0,0,0,0.1c0,0.3-0.2,0.5-0.3,0.5c-0.1,0-0.1,0.1-0.1,0.1c-0.1,0.3-0.3,0.7-0.4,1
	c-0.3,0.4-0.6,0.6-1,0.9s-0.8,0.3-1.3,0.3c-0.1,0-0.1-0.2,0.1-0.2c1.1-0.3,1.7-0.8,1.7-1.7c0-0.2-0.2-0.2-0.3,0
	c-0.1,0.2-0.3,0.3-0.6,0.4c-0.2,0.1-0.5,0.2-0.9,0.5c0.2-0.2,0.2-0.5,0.2-0.8c0-0.1-0.2-0.1-0.2,0c0,0.2-0.1,0.2-0.4,0.2
	c-0.1,0-0.3,0-0.5,0.1c0,0-0.1,0-0.1,0c-0.1,0-0.2,0.1-0.4,0.2c-0.3,0.2-0.6,0.3-1.3,0.3c-0.1,0,0-0.1,0-0.2
	c0.1-0.1,0.3-0.2,0.5-0.2c0.3-0.1,0.6-0.2,0.4-0.5c-0.1-0.2-0.5-0.2-1-0.1c-0.1,0-0.3,0-0.5,0c-0.5,0-1,0-1.2-0.4
	c0.3,0.1,1.1,0.1,1.1-0.3c0-0.3-0.4-0.5-0.7-0.7c-0.3-0.2-0.6-0.3-0.7-0.5c-0.4-0.8,0-1.8,0.4-2.2c0.3-0.3,0.7-0.6,1.2-0.6
	c0.2,0,0.4,0,0.6,0.1c0.2,0.1,0.4,0.3,0.5,0.4c-0.2,0-0.5,0-0.7,0.2c-0.2,0.1-0.4,0.3-0.4,0.5c-0.2,0.3-0.2,0.7-0.2,1s0.1,0.7,0.2,1
	c0.1,0.2,0.3,0.5,0.5,0.6c0.2,0.2,0.4,0.3,0.7,0.4c0.4,0.2,0.7,0.2,0.8-0.1c0.1-0.6,0.1-0.9-0.1-0.9c-0.2-0.1-0.6,0-0.4,0.3
	c0.2,0.3,0.1,0.5-0.2,0.4c-0.2-0.1-0.5-0.2-0.6-0.4c-0.2-0.2-0.3-0.4-0.4-0.6c-0.1-0.2-0.1-0.5-0.1-0.7s0.1-0.5,0.3-0.7
	c0.1,1.3,1.4,1.1,1.7,0.2c0.1-0.3,0.1-0.6,0-0.9v0c-0.1-0.5-0.4-0.9-0.8-1.2c-0.4-0.3-0.9-0.5-1.4-0.5c-0.5,0-1.1,0.1-1.6,0.3
	c-0.5,0.2-1,0.5-1.3,0.9c-0.1,0.1-0.1,0.1-0.2,0.1c-0.4,0.2-0.8,0.2-1.2,0.2c-0.4-0.1-0.8-0.3-1-0.5c0,0-0.1-0.1-0.1-0.2
	c0,0,0,0,0,0c-0.1-0.2-0.3-0.1-0.3,0c0,0.2,0,0.4,0.1,0.6c0.1,0.2,0.2,0.3,0.4,0.5c0.5,0.2,1,0.3,1.6,0.2c0.1,0,0.1,0.1,0,0.1
	c-0.3,0-0.4,0.1-0.5,0.2c-0.1,0.1-0.1,0.1-0.2,0.1c-0.3,0.1-0.6,0-0.9-0.1c-0.2-0.1-0.4-0.2-0.5-0.3c-0.1,0-0.1-0.1-0.2-0.1
	c0,0,0,0,0,0c0,0,0,0-0.1,0c0,0,0,0,0,0c0,0,0,0,0,0c-0.1,0.2-0.1,0.4,0,0.5c0.1,0.2,0.2,0.3,0.3,0.4c0.2,0.1,0.3,0.1,0.5,0.2
	c0.2,0,0.4,0,0.6,0.1c-0.2,0.2-0.4,0.4-0.6,0.4c-0.2,0.1-0.3,0.1-0.5,0.1c-0.4,0-0.8-0.1-1.2-0.3c-0.7-0.4-0.4-1.6,0.1-1.7
	c0.2,0,0.3-0.1,0.2-0.2c-0.3-0.3-0.8-0.2-1.1,0.2C45.1,14.3,45,14.6,45,15c0,0.3,0.1,0.7,0.3,0.9C45.3,15.9,45.3,16,45.3,16z
	 M5.5,33.8c0.5,2,1.7,2.9,3.2,2.2c0.3-0.1,0.6-0.3,0.7-0.6c0.2-0.3,0.2-0.6,0.1-0.9c-0.1-0.5-1.1-1-1.8,0.5
	c-0.6-0.1-1.1-0.8-1.1-1.3c0.8,0.2,1.3,0.2,1.6-0.4c0-0.1,0-0.2-0.1-0.2C7,33,6.2,31.5,6.3,30.5c0.4-3.5,3.5-6.2,6.3-7.5
	c1-0.5,2-0.8,3.1-0.9c0.1,0,0.1,0.1,0.1,0.2c0,0,0,0,0,0c-0.7,1.3-0.5,2.4,0.4,2.9c0.8,0.4,1.9,0,1.7-1.3c0-0.1-0.1-0.2-0.2,0
	c0,0.1-0.1,0.1-0.1,0.2c0,0.1-0.1,0.2-0.1,0.2c-0.1-0.1-0.1-0.2-0.1-0.3c0-0.2-0.1-0.4-0.3-0.3c-0.7,0.3-1,0.3-0.8-0.4
	c0-0.4,0.2-0.7,0.4-1c0.1-0.1,0.3-0.1,0.2,0c-0.3,0.4-0.2,1.5,0.3,0.8c0.1-0.1,0.1-0.2,0.2-0.3c0.2-0.3,0.3-0.5,0.5-0.4
	c0.2,0,0.1,0.2,0.1,0.3c0,0.1,0,0.2,0.1,0.2c0,0,0.1,0,0.1-0.1c0-0.1,0.1-0.2,0.2-0.1c0.8,0.2,1.1,2.3,0,2c-0.1,0-0.1,0.1-0.1,0.2
	c0,0.3,0.1,0.5,0.3,0.7c0.2,0.2,0.4,0.4,0.6,0.4c0.4,0.1,0.8,0.1,1.2,0c0.4-0.2,0.7-0.5,0.8-0.8c0.1-0.2,0.2-0.4,0.2-0.6
	c0.1-0.3,0.1-0.6,0-0.9c-0.2-0.8-1-1.4-1.9-1.9c0.1-0.1,0.1-0.2,0.2-0.3c0.1-0.1,0.2-0.1,0.4-0.2c-0.1,0.3,0,0.8,0.2,0.5
	c0.3-0.3,0.7-0.6,1.1-0.8c0.5-0.3,1-0.6,1-1.8c0.2,0,0.2-0.1,0.3-0.2c0-0.1,0-0.1,0.1-0.2c0.4-0.3,0.8-0.7,1-1.1
	c0.3-0.5,0.4-1,0.4-1.5c0-0.5-0.1-1-0.3-1.5c-0.2-0.5-0.5-0.9-0.9-1.2c-0.1-0.1,0-0.1,0.1-0.1c0.6,0.4,1.1,0.8,1.5,1.3
	c0.5,0.6,1,1.2,1.6,1.7c0.2,0.1,0.4,0.2,0.6,0.3c0.2,0.1,0.4,0.1,0.5,0.1c0.4,0,0.7,0,1-0.1c0.3-0.1,0.6-0.3,0.8-0.6c0,0,0,0,0,0
	c0,0,0-0.1,0.1-0.1l-0.1,0c0.2-0.3,0.3-0.6,0.3-0.9c0-0.3-0.1-0.7-0.3-0.9c-0.3-0.4-0.8-0.5-1.1-0.2c-0.1,0.1,0,0.2,0.2,0.2
	c0.6,0.1,0.8,1.3,0.1,1.7c-0.4,0.2-0.8,0.3-1.2,0.3c-0.2,0-0.4-0.1-0.5-0.1c-0.2-0.1-0.4-0.2-0.6-0.4c0.2,0,0.4,0,0.6-0.1
	c0.2,0,0.4-0.1,0.5-0.2c0.2-0.1,0.3-0.2,0.3-0.4c0.1-0.2,0.1-0.4,0-0.5c0,0,0,0,0,0c0,0,0,0,0,0c0,0,0,0,0,0c0,0,0,0,0,0
	c0,0-0.1,0.1-0.1,0.1c-0.2,0.1-0.4,0.2-0.5,0.3c-0.3,0.1-0.6,0.1-0.9,0.1c-0.1,0-0.1-0.1-0.2-0.1c-0.1-0.1-0.2-0.2-0.5-0.2
	c-0.1,0-0.1-0.2,0-0.1c0.5,0.1,1.1,0.1,1.6-0.1c0.2-0.1,0.3-0.3,0.4-0.5c0.1-0.2,0.1-0.4,0.1-0.6c0-0.1-0.1-0.3-0.3,0
	c0,0.1-0.1,0.1-0.1,0.2c-0.3,0.3-0.6,0.5-1,0.5c-0.4,0.1-0.8,0-1.2-0.2c-0.1,0-0.1-0.1-0.2-0.1c-0.4-0.4-0.8-0.7-1.3-0.9
	c-0.5-0.2-1-0.3-1.6-0.3c-0.5,0-1,0.2-1.4,0.5c-0.4,0.3-0.7,0.7-0.8,1.2v0c-0.1,0.3-0.1,0.6,0,0.9c0.3,0.9,1.6,1,1.7-0.2
	c0.1,0.2,0.2,0.4,0.3,0.7c0,0.2,0,0.5-0.1,0.7c-0.1,0.2-0.2,0.5-0.4,0.6c-0.2,0.2-0.4,0.3-0.6,0.4c-0.3,0.1-0.4-0.1-0.2-0.4
	c0.1-0.3-0.1-0.5-0.4-0.3c-0.1,0.1-0.2,0.4-0.1,0.9c0.1,0.3,0.3,0.3,0.8,0.1c0.3-0.1,0.5-0.2,0.7-0.4c0.2-0.2,0.4-0.4,0.5-0.6
	c0.1-0.3,0.2-0.7,0.2-1c0-0.3-0.1-0.7-0.2-1c-0.1-0.2-0.2-0.4-0.4-0.5c-0.2-0.1-0.4-0.2-0.7-0.2c0.1-0.2,0.3-0.3,0.5-0.4
	s0.4-0.1,0.6-0.1c0.5,0,0.9,0.3,1.2,0.6c0.4,0.4,0.8,1.4,0.4,2.2c-0.1,0.2-0.4,0.4-0.7,0.5c-0.4,0.2-0.7,0.4-0.7,0.7
	c0,0.4,0.8,0.4,1.1,0.3C22.4,18,21.9,18,21.4,18c-0.2,0-0.4,0-0.6,0c-0.4,0-0.8-0.1-0.9,0.1c-0.1,0.4,0.1,0.5,0.4,0.5
	c0.2,0,0.4,0.1,0.5,0.2c0,0,0.1,0.2,0,0.2c-0.7,0-1-0.2-1.3-0.3c-0.1-0.1-0.2-0.1-0.4-0.2c0,0-0.1,0-0.1,0c-0.2,0-0.4-0.1-0.5-0.1
	c-0.2,0-0.4,0-0.4-0.2c0-0.1-0.2-0.1-0.2,0c0,0.3,0,0.6,0.2,0.8c-0.3-0.3-0.6-0.4-0.9-0.5c-0.2-0.1-0.4-0.2-0.6-0.4
	c-0.1-0.2-0.3-0.2-0.3,0c0,0.9,0.5,1.4,1.7,1.7c0.1,0,0.2,0.2,0.1,0.2c-0.5,0-0.9-0.1-1.3-0.3c-0.4-0.2-0.8-0.5-1-0.9
	c-0.2-0.3-0.3-0.6-0.4-1c0-0.1-0.1-0.1-0.1-0.1c-0.1-0.1-0.3-0.2-0.3-0.5c0,0,0,0,0-0.1c0,0,0,0-0.1,0c0,0,0,0-0.1,0c0,0,0,0-0.1,0
	c-0.4,0.4-0.3,0.9,0,1.5c0,0.1,0,0.2-0.1,0.1c-0.4-0.3-0.5-0.6-0.5-0.8c0-0.3-0.1-0.6-0.5-1c-0.1-0.1-0.2-0.2-0.3-0.2
	c-0.1,0-0.2-0.1-0.1-0.4c0.1-0.2-0.2-0.2-0.3-0.1c-0.3,0.4-0.4,0.9,0.5,2.1c0.1,0.1,0,0.3-0.2,0.1c-0.1-0.1-0.1-0.2-0.2-0.3
	c-0.2-0.2-0.4-0.4-0.5-0.7c-0.7-0.9-1.6-1.7-2.6-2.3c-0.2-0.1-0.4-0.2-0.6-0.3c-1.7-0.7-3.9-0.2-4.8,1.5c-1.2,2.2,1.8,6,4,2.9
	c0.7-1-0.8-3-1.8-1.8c0,0.1-0.1,0.1-0.1,0.2c0,0.1,0,0.1,0,0.2c0,0.1,0,0.1,0.1,0.2c0,0.1,0.1,0.1,0.1,0.1C7,18.2,7,18.2,7.1,18.2
	c0.1,0,0.2,0,0.2-0.1c0.1,0,0.1-0.1,0.2-0.2c0-0.1,0-0.2,0-0.3c0.7,0,0.7,1.1,0.6,1.4C8,19.3,8,19,8,18.8c0,0,0,0,0,0
	c0-0.6-1.1-0.4-0.8,0.5c-0.1,0.1-0.2,0.2-0.3,0.3c-0.1,0.1-0.3,0.1-0.4,0.1c0.4-0.3,0.5-0.6,0.4-0.9c0-0.1-0.2-0.1-0.3-0.1
	c-1,0.8-1.8,0.2-1.9-1.1c0-0.2,0.1-0.1,0.1,0.1C5,18.1,5.3,18.9,6,18.6c0,0,0.1,0,0.1-0.1c0,0,0-0.1,0-0.1c0-0.1-0.1-0.1-0.1-0.2
	c-0.3-0.4-0.6-0.8-0.6-1.2c0-0.3,0.2-0.1,0.3,0.2c0,0,0,0.1,0.1,0.1c0.3,0.4,0.9,0.1,0.4-0.6c0.1-0.2,0.2-0.4,0.2-0.6
	c0-0.2-0.1-0.4-0.2-0.6c2-1.3,3.3-0.2,4.6,1c0.2,0.2,0.3,0.3,0.5,0.5c0.1,0.1,0,0.2-0.1,0.2c-0.9,0-1.6,0.2-1.5,0.9
	c0,0.1,0.1,0.1,0.2,0.1c0.9-0.7,1.7-0.2,2.8,0.5c0.1,0.1,0.2,0.1,0.3,0.2c1,0.7,2.3,1.6,4.2,1.9c0.1,0,0.1,0.2-0.2,0.1
	c-1.5-0.1-2.9,0.2-4.2,0.8C9.3,23.1,6,26,5,29.9c-0.2,0.7-0.2,1.2-0.3,1.7c-0.1,0.9-0.1,1.6-1,2.6c0,0,0,0.1,0,0.2
	c0,0.1,0,0.1,0.1,0.1C4.4,34.9,5,34.5,5.5,33.8z M30.8,2.7l-0.3-1.4c0,0,0,0,0,0c0,0,0,0,0,0l0.3,0.1c0.1,0.1,0.3,0.1,0.4,0.2
	c0,0,0.1,0,0.1,0c1,0.6,1.5,1.3,1.1,2.5C32.6,4,33,3.8,33.3,3.8c0.3-0.1,0.7,0,1,0.1c0,0,0,0,0,0v0.1c0,0,0,0,0,0.1
	c-0.4,1-1,1.4-1.7,1.4l0.3,0.9c0.5,0.2,1,0.2,1.5,0.2c0,0,0.1,0,0.1,0c0.1,0,0.2,0,0.3,0c0.2,0,0.4-0.1,0.6-0.1
	c0.3-0.1,0.5-0.1,0.8-0.2c0,0,0.1,0,0.1,0c0.1,0,0.2-0.1,0.2-0.1C36.5,6,36.6,6,36.7,6V4.4c-0.1,0-0.1,0-0.2,0c-0.1,0-0.2,0-0.3,0
	c-0.3-0.1-0.5-0.2-0.8-0.4c-0.3-0.3-0.5-0.6-0.6-1c0,0,0-0.1,0-0.1c0.2,0,0.4-0.1,0.6-0.1c0.3,0,0.5,0,0.8,0.1
	c0.1,0,0.2,0.1,0.3,0.1c0,0,0,0,0.1,0l-0.1-0.1c-0.1-0.2-0.2-0.5-0.2-0.8s0.1-0.5,0.2-0.8c0.1-0.2,0.2-0.4,0.3-0.6
	c0.1-0.2,0.3-0.4,0.4-0.7c0,0,0,0,0,0c0,0,0,0,0,0c0,0,0,0,0,0c0.1,0.1,0.2,0.2,0.3,0.4c0.1,0.1,0.1,0.2,0.2,0.3
	c0.1,0.2,0.2,0.3,0.3,0.4c0.2,0.3,0.2,0.6,0.2,0.9c0,0.3-0.1,0.6-0.2,0.9c0.1-0.1,0.3-0.1,0.4-0.1c0.2-0.1,0.5-0.1,0.7-0.1
	c0.2,0,0.4,0,0.6,0.1v0.1c-0.1,0.4-0.3,0.7-0.6,1c-0.2,0.2-0.5,0.3-0.7,0.4c-0.1,0-0.3,0-0.4,0h-0.1V6c0,0,0,0,0,0c0,0,0.1,0,0.1,0
	c0.1,0.1,0.2,0.1,0.4,0.2c0,0,0,0,0,0c0.3,0.1,0.5,0.2,0.7,0.2c0.2,0.1,0.4,0.1,0.6,0.1c0.7,0.1,1.3,0,2-0.2l0.2-0.7L42,5.4h-0.1
	c-0.8,0-1.3-0.5-1.7-1.5c0,0,0-0.1,0.1-0.1c0.5-0.2,1.1-0.1,1.6,0.2l0.2,0.2c-0.4-1.1,0.2-1.9,1.1-2.5c0.1-0.1,0.3-0.2,0.4-0.2
	L44,1.3c0,0,0,0,0,0c0,0,0.1,0,0.1,0l-0.4,1.5l-0.4,1.8l-0.7,2.8h0c-0.2,0-0.3,0.1-0.4,0.2c-0.1,0.1-0.2,0.3-0.2,0.4
	c0,0.1,0,0.2,0.1,0.3c0.1,0.1,0.1,0.2,0.3,0.2l-0.3,1.1h-9.7l-0.3-1.1c0.1,0,0.2-0.1,0.3-0.2c0.1-0.1,0.1-0.2,0.1-0.3
	c0-0.2-0.1-0.3-0.2-0.4c-0.1-0.1-0.3-0.2-0.4-0.2h0l-0.7-2.8L30.8,2.7z M39.3,7.9c0,0.1,0,0.3,0.1,0.4c0.1,0.1,0.2,0.2,0.3,0.2
	c0.1,0,0.1,0,0.2,0c0.1,0,0.2,0,0.2,0c0.1,0,0.1-0.1,0.2-0.1c0.1-0.1,0.1-0.1,0.1-0.2c0-0.1,0-0.1,0-0.2c0,0,0,0,0,0v0c0,0,0,0,0,0
	c0-0.2-0.1-0.3-0.2-0.4c-0.1-0.1-0.3-0.2-0.4-0.2c-0.1,0-0.1,0-0.2,0c-0.1,0-0.2,0.1-0.3,0.2C39.4,7.7,39.3,7.8,39.3,7.9z M36.6,7.9
	c0,0.1,0,0.2,0.1,0.3c0.1,0.1,0.1,0.2,0.2,0.2c0.1,0.1,0.2,0.1,0.3,0.1c0.1,0,0.2,0,0.3-0.1c0.1-0.1,0.2-0.1,0.2-0.2
	c0.1-0.1,0.1-0.2,0.1-0.3c0-0.1,0-0.2-0.1-0.3c-0.1-0.1-0.1-0.2-0.2-0.2c-0.1-0.1-0.2-0.1-0.3-0.1c-0.1,0-0.2,0-0.3,0.1
	c-0.1,0.1-0.2,0.1-0.2,0.2C36.7,7.7,36.6,7.8,36.6,7.9z M33.9,7.9c0,0.1,0,0.2,0.1,0.3c0,0.1,0.1,0.2,0.2,0.2
	c0.1,0.1,0.2,0.1,0.3,0.1c0,0,0.1,0,0.1,0c0.1,0,0.2-0.1,0.3-0.2c0.1-0.1,0.1-0.2,0.1-0.4v0c0-0.1,0-0.3-0.1-0.4
	c-0.1-0.1-0.2-0.2-0.3-0.2c0,0-0.1,0-0.1,0c-0.1,0-0.2,0-0.3,0.1c-0.1,0.1-0.2,0.1-0.2,0.2S33.9,7.8,33.9,7.9z M19.1,58.1
	c-0.1,0-0.2,0.1-0.3,0.2c-0.1,0-0.1,0.1,0.1,0.1l0.2-0.1c0.8-0.2,1.6-0.6,2.2-1.2c0.1-0.1,0.2-0.2,0.3-0.3c0.9-1,1-3-0.2-4.3
	l-0.1-0.1c-0.5-0.5-1.7-0.4-2-0.1c-0.4,0.4,0,1.1,0.3,1.3c0.1,0.1,0.2,0.1,0.3,0.1c0.2,0,0.3,0.1,0.3,0.2c0.1,0.3,0.1,0.6,0,1
	c-0.1,0.3-0.3,0.6-0.5,0.8c0,0-0.2,0-0.2-0.1c0.1-0.5,0.1-1,0-1.4c0-0.1-0.1-0.2-0.2-0.2c-0.1-0.1-0.2-0.1-0.3-0.1
	c-0.2,0-0.3,0.1-0.5,0.2c-0.2,0.1-0.3,0.2-0.4,0.4c0,0,0,0.1,0,0.1c0,0,0,0.1,0,0.1c0.1,0.4,0.1,0.7-0.2,0.8c0,0,0,0,0,0
	c0,0-0.1,0-0.1,0c0-0.2-0.1-0.3-0.1-0.5c0-0.1,0-0.1-0.1-0.2c0,0,0,0-0.1,0c0,0,0,0-0.1,0c0,0,0,0.1,0,0.1c0,0.1,0,0.1-0.1,0.1
	c-0.3-0.1-0.4,0.1-0.4,0.3c0,1.1-1.7,1.4-2.4,0.8c0,0,0-0.2,0-0.2c1.4,0.6,1.8-0.1,1.9-0.4c0,0-0.1,0-0.1,0c0,0,0,0-0.1,0
	c-0.1,0-0.2,0.1-0.2,0.1c0,0-0.1,0-0.1-0.1c0,0,0-0.1,0-0.1c0,0,0-0.1,0-0.1c0,0,0.1-0.1,0.1-0.1c0.4-0.1,0.6-0.2,0.6-0.7
	c0,0,0-0.1,0-0.1c0-0.1,0-0.1,0-0.2c0,0,0,0-0.1,0c0,0-0.1,0-0.1,0c0,0,0-0.1,0-0.1c0-0.1,0-0.2,0-0.3c-0.1-0.1-0.2-0.1-0.3,0
	c-0.1,0-0.1,0-0.2,0.1c-0.1,0-0.2,0-0.2-0.1c-0.1,0-0.1-0.1-0.2,0c-0.1,0.1-0.1,0.2-0.1,0.2c0,0.1-0.1,0.2-0.1,0.2
	c-0.1,0-0.1,0.1-0.1,0.2c0.1,0.4-0.2,0.5-0.5,0.5c0,0-0.1,0,0-0.1c0.2-0.2,0.3-0.4,0.1-0.7c0,0,0,0,0,0c0,0,0,0,0,0
	c-0.2,0.2-0.5,0.3-0.7,0.4c-0.3,0.1-0.6,0.1-0.8,0c0,0-0.1,0-0.1,0.1c-0.1,0.2-0.2,0.3-0.4,0.3c0,0-0.1,0.1-0.1,0.1
	c1.6,2.3,3.6,2.7,5.9,1.7c0,0,0.1,0.1,0.1,0.1c-2.2,1.5-4.7,0.7-6.1-1.5c0-0.1-0.1-0.1-0.2-0.1c0,0-0.1,0-0.1,0
	c-0.2,0-0.4,0-0.5-0.1c-0.2-0.1-0.3-0.2-0.4-0.3c0,0-0.1,0-0.1,0c0,0.3-0.1,0.7-0.1,1c0,0,0,0.1,0.1,0.1c0.2,0,0.5-0.1,0.5,0.2
	c0,0.2-0.1,0.4-0.1,0.5c-0.1,0.3-0.2,0.5-0.1,1c0.1,0.4,0.3,0.5,0.5,0.5c0.1,0,0.2,0,0.3,0.1c0,0,0.1,0.1,0.1,0.1
	c0,0.1,0.1,0.2,0,0.3s-0.1,0.2-0.1,0.3c0,0.1-0.1,0.1-0.1,0.1c-0.1,0.2-0.3,0.3-0.2,0.5c0,0.1,0.2,0.1,0.3,0.1c0,0,0,0,0,0
	c0.1,0,0.2,0,0.2,0.1c0.1,0.1,0.3,0.1,0.4,0.1c0.2,0,0.3-0.4,0.3-0.8c0,0,0-0.1-0.1-0.1c-0.1,0-0.3-0.1-0.2-0.3
	c0.1-0.2,0.2-0.2,0.3-0.3c0.1-0.1,0.2-0.2,0.3-0.3c0,0,0-0.1,0-0.1s0-0.1,0-0.1c0-0.1-0.1-0.1-0.3-0.2c-0.3-0.1-0.9-0.4-0.9-0.8
	c0-0.1,0.1-0.1,0.2-0.1c0.4,0.4,0.7,0.5,0.9,0.5c0.2,0,0.3,0.1,0.3,0.2c0.1,1.5,0.9,1.9,2.4,1.9c0,0,0,0.1,0,0.1c0,0,0,0-0.1,0
	c0,0-0.1,0-0.1,0.1c0.1,0.1,0.1,0.1,0.2,0.2c0.2,0.2,0.3,0.4,0.2,0.6c-0.4,1-1.1,0.7-0.8,0.4c0,0,0.1,0,0.1-0.1
	c0.1,0,0.2-0.1,0.2-0.1c0.1-0.2,0.1-0.3,0-0.5c0-0.2-0.2-0.3-0.3-0.4c-0.4-0.1-1,0.4-1,1c0.1,0.8,1.2,1,1.7,0.2c0,0,0,0,0.1,0
	c0,0,0,0,0.1,0c0.2,0.1,0.2,0.3,0.2,0.5l0,0c0,0,0.1,0,0.1,0c0.5-0.4,0.5-1,0-1.8c-0.1-0.1,0.1-0.1,0.1-0.1c0.2,0,0.2,0.1,0.3,0.2
	c0,0.1,0,0.1,0.1,0.1c0,0,0,0,0,0c0,0,0,0,0,0c0,0,0,0,0,0c0,0,0,0,0,0c0.3-0.8-0.1-1-0.5-1.1c-0.2-0.1-0.5-0.2-0.6-0.4l0,0.1
	c0-0.1,0-0.1,0.1-0.1c0.8,0.1,1.6,0,2.3-0.4c0.4-0.3,0.7-0.7,0.9-1.1c0.1-0.2,0.2,0,0.2,0c-0.1,0.3-0.2,0.6-0.4,0.8
	C19.6,57.8,19.4,58,19.1,58.1z M57.7,103.8c0,0.6,0.1,1.1,0.3,1.6c0,0.1-0.1,0.1-0.2,0.1c-2.6-0.1-4.5,0.9-5.1,2.5
	c-0.1,0.2-0.1,0.5-0.2,0.7c0,0-0.1,0-0.1,0c-2.1,0.2-4.7-1.4-4.7-5.1v-7.8c0-0.6-0.1-1.1-0.3-1.6v-0.1c-0.1-0.1,0-0.1,0.2-0.1l0,0
	c2.5,0.2,4.5-0.9,5.1-2.5c0.1-0.2,0.1-0.5,0.2-0.7c0,0,0.1,0,0.1,0c2.1-0.2,4.7,1.4,4.7,5.1V103.8z M54.1,105.6
	c-0.1-0.5-0.1-0.9-0.1-1.4l0-7.3c0-1.6-0.6-2.4-1.3-2.8c-0.2-0.1-0.4-0.2-0.7-0.2c-0.2,0-0.5,0-0.7,0.1c0.1,0.5,0.1,0.9,0.1,1.4
	l0,7.3c0,1.6,0.6,2.4,1.3,2.8c0.2,0.1,0.4,0.2,0.7,0.2C53.7,105.7,53.9,105.7,54.1,105.6z M38.2,73.8c-0.1,0-0.1,0.2-0.1,0.2
	c0.1,0.1,0.2,0.2,0.2,0.4c0.1,0.1,0.1,0.3,0.1,0.4c0,0,0,0.1,0,0.1c0.1,0.1,0.1,0.1,0.2,0.2c0,0,0,0.1,0,0.1h-0.1
	c-0.1,0-0.3,0-0.4,0c-0.1,0-0.2,0-0.3-0.1c-0.2-0.1-0.3-0.2-0.4-0.3c0,0-0.1,0-0.1,0c0,0-0.1,0-0.1,0c-0.1,0.2-0.3,0.3-0.4,0.3
	c-0.1,0-0.2,0.1-0.3,0.1c-0.1,0-0.2,0-0.3,0c0,0-0.1,0-0.1,0c0,0-0.1,0,0-0.1c0,0,0.1-0.1,0.1-0.1c0,0,0.1-0.1,0.1-0.1
	c0,0,0-0.1,0-0.1c0-0.1,0-0.3,0.1-0.4c0.1-0.1,0.1-0.3,0.2-0.4c0,0,0,0,0,0c0-0.1,0-0.1-0.1-0.1c-0.1,0-0.2,0-0.3-0.1
	c-0.1,0-0.3-0.1-0.3-0.2c-0.1-0.1-0.1-0.3-0.1-0.4c0,0,0-0.1,0-0.1c0.1,0,0.3,0,0.4-0.1c0.1-0.1,0.2-0.1,0.3-0.2l-0.3-0.3L35.7,72
	l-0.3,0.3l0,0l-0.1-0.1l0.1-0.1l0.2-0.2l-0.7-0.7l0.7-0.7l-0.2-0.2l-0.1-0.1l0.1-0.1l0.1-0.1l0.3,0.3l0.3-0.3l0.3-0.3l0.3-0.3
	c0,0,0-0.1,0-0.1l0,0c0-0.5,0.3-0.9,0.5-0.9c0.2,0,0.4,0.4,0.5,0.9v0.2l0.2,0.2l0.4,0.4l0.3,0.3l0.4-0.3l0,0l0.1,0.1l-0.1,0.1
	L39,70.5l0.2,0.2l0.4,0.4l-0.4,0.5L39,71.8l0.2,0.2l0.1,0.1l-0.1,0.1l0,0L38.8,72l-0.4,0.4l-0.3,0.3c0,0,0.1,0,0.1,0.1
	c0.1,0.1,0.1,0.1,0.2,0.2c0.1,0.1,0.2,0.1,0.4,0.1c0,0,0,0.1,0,0.1c0,0.1,0,0.3-0.1,0.4c-0.1,0.1-0.2,0.2-0.3,0.2
	C38.4,73.7,38.3,73.8,38.2,73.8z M38.8,70.6l-0.5,0.5l0.2,0.2l0.4,0.3l0.4-0.4l0.2-0.2L38.8,70.6z M37.5,70.5l0.2,0.2l0.3,0.3l0,0.1
	l0.4-0.4l0.2-0.2l-0.2-0.2L38,69.9l-0.2-0.2c0,0.1,0,0.1,0,0.2C37.7,70.1,37.7,70.3,37.5,70.5z M35.9,70.5l0.2,0.2l0.3,0.3l0.3-0.3
	l0.2-0.2c-0.1-0.2-0.2-0.5-0.2-0.7v-0.1L35.9,70.5z M35.7,71.7l0.4-0.4l0.2-0.2L36.1,71l-0.3-0.4L35.3,71l-0.1,0.1l0.1,0.2
	L35.7,71.7z M37.1,72l-0.4-0.4l-0.3-0.3l-0.3,0.3l-0.2,0.2l0.2,0.2l0.3,0.3l0.1,0.1l0.2-0.2L37.1,72z M37.8,71.3l0.2-0.2L37.8,71
	l-0.4-0.4c0,0-0.1,0-0.1,0c-0.1,0-0.1,0-0.2,0L36.7,71l-0.2,0.1l0.2,0.2l0.5,0.5L37.8,71.3z M38.4,72.1l0.2-0.2l-0.2-0.2l-0.4-0.3
	l0,0.1l-0.3,0.3L37.4,72l0.4,0.3l0.2,0.2l0-0.1L38.4,72.1z M37,80.4c0.1,0,0.1,0.1,0.1,0.1l0,0c0.1,0.1,0.1,0.1,0.2,0.1
	c0.1,0,0.1-0.1,0.2-0.1c0,0,0,0,0,0c0-0.1,0.1-0.1,0.1-0.1c0.1,0,0.1,0,0.2,0c0,0,0,0,0,0h0c0,0,0-0.1,0-0.1c0,0,0-0.1,0-0.1
	c-0.2-1.1-0.4-2.2-0.4-3.3c0-0.1-0.1-0.1-0.1-0.1c0,0-0.1,0-0.1,0.1c-0.1,1.1-0.2,2.2-0.4,3.3v0c0,0,0,0.1,0,0.1c0,0,0,0,0,0
	C36.9,80.3,36.9,80.3,37,80.4z M38.1,76.9C38.1,76.8,38.1,76.8,38.1,76.9C38.1,76.8,38.1,76.8,38.1,76.9c-0.1-0.2-0.2-0.3-0.3-0.4
	c-0.2-0.4-0.3-0.8-0.4-1.3c0-0.1-0.1,0-0.1,0l0,0.1c0,0.5,0.1,1.4,0.4,1.8c0,0,0.1,0.1,0.1,0.1c0,0,0.1,0,0.1,0c0,0,0.1,0,0.1-0.1
	L38.1,76.9L38.1,76.9C38.1,76.9,38.1,76.9,38.1,76.9z M36.9,77c0.2-0.4,0.3-1.3,0.3-1.8c0,0,0,0,0-0.1c0,0,0-0.1-0.1,0
	c-0.1,0.4-0.2,0.9-0.4,1.3c-0.1,0.2-0.2,0.3-0.3,0.4c0,0,0,0.1,0,0.1c0,0,0.1,0.1,0.1,0.1c0,0,0.1,0,0.2,0
	C36.8,77.1,36.8,77,36.9,77z M39.6,76.7c0,0.1,0.1,0.1,0.1,0.1c0,0,0.1,0,0.1,0c0.3-0.1,0.5-0.3,0.6-0.6c0.1-0.3,0.2-0.5,0.1-0.8
	c0-0.1-0.1-0.1-0.3-0.1c-0.1,0-0.3,0-0.5,0h-0.1c-0.1,0-0.1,0.1,0,0.2c0,0,0,0.1,0.1,0.1c0,0,0.1,0.1,0.1,0.1h0c0,0,0,0,0,0
	c0,0,0,0,0,0c0,0.1,0,0.2,0,0.3C39.7,76.3,39.7,76.5,39.6,76.7z M41,74.9C41,74.9,41,74.9,41,74.9c0.3-0.3,0.5-0.5,0.8-0.8
	c0,0,0,0,0,0c0,0,0,0,0,0c0,0,0,0,0,0c0,0,0,0,0,0c-0.1,0-0.1,0-0.2-0.1c-0.3-0.1-0.6-0.2-0.6,0.1l0.1,0c0,0.4-0.4,0.6-1.1,0.6h-0.2
	c0,0,0-0.1,0-0.1c0,0,0,0,0,0c0,0,0.1-0.1,0.1-0.1c0.3-0.2,0.6-0.4,0.5-0.7c0-0.1-0.2-0.2-0.3-0.3c0,0,0,0-0.1,0c0,0-0.1,0-0.1,0
	c0,0,0,0,0,0c-0.2,0.1-0.4,0.3-0.6,0.4c-0.2,0.1-0.3,0.3-0.4,0.4c0,0,0,0.1,0,0.1c0,0,0,0.1,0,0.1c0.1,0.2,0.3,0.3,0.4,0.4
	c0.1,0.1,0.2,0.2,0.3,0.2c0.1,0,0.2,0.1,0.2,0h0.1c0.4,0,0.8,0,1.1,0C40.9,75,41,75,41,74.9z M61.9,47.5c-0.2,0-0.5,0.1-0.7,0.2
	C61,47.8,61.1,48,61.5,48c0.2,0,0.3,0,0.4,0c0.4,0,0.9,0.1,1.3,0.4c0.4,0.2,0.7,0.5,0.9,0.9c0,0,0,0,0,0c0,0,0.1,0,0.1,0h0
	c-0.3-1.6-0.9-3-2.3-3.4c0,0,0,0-0.1,0c0,0,0,0-0.1,0c-1.6-0.4-2.3,0.5-2.2,1.1c0.1,0.5,0.7,0.4,1.3,0.3c0.3,0,0.7-0.1,1,0
	c0.1,0,0.1,0,0.2,0c0,0,0,0.1,0,0.1C62,47.4,62,47.4,61.9,47.5z M38.5,76.6C38.5,76.6,38.5,76.6,38.5,76.6
	C38.5,76.6,38.5,76.5,38.5,76.6c0-0.1,0-0.1,0-0.1h0c-0.2-0.2-0.3-0.4-0.4-0.6c-0.1-0.2-0.1-0.4-0.2-0.5c0-0.1-0.1,0-0.1,0
	c0,0.4,0.1,0.8,0.3,1.2l0,0c0,0,0,0.1,0,0.1C38.2,76.7,38.4,76.7,38.5,76.6z M34.7,54.5c-0.1,0.1-0.3,0.3-0.4,0.4
	c-0.9,0.7-1.9,1.3-3.1,1.6c-0.1,0-0.3,0.1-0.4,0.1c-0.5,0.1-1,0.1-1.5,0c-0.4-0.1-0.9-0.2-1.2-0.5c-0.3-0.3-0.6-0.6-0.8-1.1
	c-0.1-0.3-0.2-0.7-0.2-1c-0.1-0.6,0-1.3,0.2-1.9c0.4-0.9,1.1-1.7,2-2.2c0.5-0.3,1-0.5,1.5-0.6c0.1,0,0.3-0.1,0.4-0.1
	c1-0.2,2-0.3,3.1-0.3h0.4c0.2,0,0.3,0,0.5,0c0,0,0.1,0,0.1,0c0.2,0,0.5,0,0.7,0.1c0,0,0.1,0,0.1,0l0.3,0l0.3,0l1,0.2
	c0,0,0.1,0,0.1,0c0.1-0.2,0.1-0.4,0.1-0.6c0-0.2-0.1-0.4-0.2-0.5c-0.1-0.3-0.3-0.5-0.5-0.7c-0.2-0.2-0.3-0.3-0.5-0.4
	c-0.1-0.1-0.2-0.2-0.3-0.2c-0.1-0.1-0.2-0.1-0.3-0.2c-0.2-0.1-0.5-0.2-0.8-0.3c-0.2-0.1-0.4-0.1-0.6-0.2c-0.1,0-0.3,0-0.4,0
	c-0.2,0-0.5,0-0.7,0.1c-0.2,0.1-0.4,0.3-0.5,0.5c0,0.1-0.1,0-0.2,0c-1.1-1.2-0.3-2.6,1-3.1c-0.6-0.1-1.2,0-1.7,0.4
	c-0.5,0.3-0.8,0.8-1,1.4c-0.1,0.4-0.1,0.8,0,1.1c0.1,0.3,0.3,0.6,0.6,0.8c0.3,0.2,0.6,0.4,0.9,0.4c0.2,0.1,0.2,0.2,0.1,0.2
	c-0.5,0.1-1.1,0.1-1.6,0c-0.2,0-0.3-0.1-0.4-0.2c-0.7-0.3-1.2-1-1.5-1.7c-0.3-0.9-0.3-1.8,0-2.6c0.3-0.8,0.8-1.5,1.5-2
	c0.1-0.1,0.3-0.2,0.4-0.3c0.4-0.2,0.8-0.4,1.3-0.5c0-0.8,0.1-1.6,0.4-2.3c0.3-0.7,0.8-1.4,1.4-1.9c0.1-0.1,0.2-0.2,0.4-0.4
	c0.1-0.1,0.2-0.1,0.3-0.2c0.1-0.1,0.2-0.1,0.4-0.2c0.2-0.2,0.5-0.3,0.8-0.4l0.3-0.2l0.3-0.1c0,0,0.1,0,0.1-0.1
	c0.1-0.1,0.3-0.1,0.4-0.2c0.2-0.1,0.3-0.2,0.5-0.2l0.3-0.1c0.1,0,0.2-0.1,0.3-0.1c0.1,0,0.1,0,0.2-0.1c0.3-0.1,0.5-0.2,0.7-0.3
	l0.6-0.3l0.2-0.1v-1.2l-0.2,0.2c-0.4,0.3-0.9,0.5-1.3,0.7c-0.1,0-0.3,0.1-0.4,0.1c-0.1,0-0.2,0-0.3,0.1c-0.2,0-0.3,0.1-0.5,0.1
	c0,0-0.1,0-0.1,0c-0.1,0-0.3,0-0.4,0c-0.1,0-0.2,0-0.3,0h-1.7l-0.4,0c-1-0.1-2-0.1-2.9,0h-0.1c-0.7,0.1-1.4,0.4-2,0.8
	c-1.4,1.2-1.1,3.2,0,3.9c0.2,0.1,0.5,0.2,0.7,0.2c0.3,0,0.5,0,0.8-0.1c0.2-0.1,0.3-0.1,0.4-0.2c0.1-0.1,0.2-0.1,0.3-0.2
	c0.8-0.6,1,0.1,0.4,0.5c-0.3,0.2-0.5,0.4-0.8,0.5c-0.1,0.1-0.3,0.1-0.4,0.2c-0.5,0.2-1,0.2-1.5,0.1c-0.8-0.2-1.5-0.6-2-1.2
	c-0.2-0.2-0.4-0.5-0.5-0.8c-0.6-1.1-0.8-2.4-0.5-3.7c0.2-0.8,0.6-1.5,1-2.1c0.5-0.7,1.2-1.3,2-1.7c0.5-0.2,1-0.4,1.5-0.5
	c0.1,0,0.2,0,0.3-0.1c0,0,0.1,0,0.1,0c1-0.1,2.1,0,3.1,0.4c0,0,0.1,0,0.1,0.1c0.1,0,0.2,0.1,0.3,0.1c0.2,0.1,0.4,0.2,0.6,0.3
	c0.1,0,0.2,0.1,0.3,0.1c0.2,0.1,0.3,0.2,0.5,0.3c0,0,0,0,0,0c0,0,0.1,0,0.1,0.1c0.1,0,0.1,0.1,0.2,0.1c0,0,0.1,0.1,0.1,0.1
	c0.1,0,0.1,0.1,0.2,0.1c0.1,0.1,0.2,0.1,0.4,0.2c0.1,0,0.1,0.1,0.2,0.1c0.2,0.1,0.3,0.2,0.5,0.2c0.1,0,0.2,0.1,0.3,0.1
	c0.1,0.1,0.3,0.1,0.4,0.1c0.2,0.1,0.5,0.1,0.7,0.1c0.2,0,0.4-0.1,0.6-0.2c0.1,0,0.2-0.1,0.2-0.2c-0.1-2.1,0.6-2.8,1.3-2.5
	c0.8,0.3,0.5,1.5-0.7,2.9v1.4c0.5-0.3,0.9-0.6,1.3-1c0.4-0.5,0.7-1.1,0.8-1.7h0.1c0.2,0.1,0.3,0.1,0.5,0.2l0.4,0.2
	c0.5,0.2,1,0.5,1.5,0.8c0.8,0.5,1.5,1.3,2,2.2c0.3,0.6,0.4,1.3,0.5,1.9c0.1,1.1-0.1,2.3-0.5,3.4c-0.4,0.9-1.1,1.7-2,2.1
	c-0.5,0.2-1,0.4-1.5,0.5l-0.4,0.1l-0.3,0v0.1c-0.4,0-0.3,0.5,0,0.5h2.2c0.7-0.1,1.4,0.2,2,0.6c0.2,0.2,0.4,0.5,0.5,0.8
	c0.1,0.4,0.2,0.8,0.2,1.3v4.2c0,0.3,0.1,0.6,0.1,1c0,0.2,0.1,0.4,0.1,0.6c0,0,0,0.1,0,0.1c-0.1,0-0.1,0-0.2,0c0,0-0.1,0-0.1,0
	c-0.1,0-0.1,0-0.2,0c-0.1,0-0.2,0-0.3,0c-0.7,0-1.3,0.1-2,0.2c-0.5,0.1-1,0.2-1.5,0.4c-0.1,0-0.3,0.1-0.4,0.2l0,0
	c-0.5,0.2-1,0.5-1.4,0.9c-0.8,0.8-1.3,1.9-1.3,3c0,0,0,0,0,0c0,0,0,0,0,0c0,0,0,0,0,0c0,0,0,0,0,0c0,0,0,0,0,0
	c-0.2-0.1-0.4-0.2-0.6-0.3c0,0-0.1,0-0.1-0.1l-0.6-0.3l-0.7-0.3c-0.1-0.1-0.3-0.1-0.4-0.2c-0.1,0-0.2-0.1-0.3-0.1l-0.5-0.2
	c0,0-0.1,0-0.1,0c-0.1,0-0.3-0.1-0.4-0.1c0,0-0.1,0-0.1,0c-0.1,0-0.1,0-0.2-0.1l-0.3-0.1l-0.4-0.1c-0.1,0.1-0.2,0.2-0.3,0.3
	C35.1,54.1,34.9,54.3,34.7,54.5z M40.6,41.2h0.5c0.3,0,0.6-0.1,0.8-0.3c1.5-1.2,1.9-5.4,0-6.5c-0.4-0.2-0.8-0.3-1.3-0.3V41.2z
	 M40.6,50.1c0.4,0.1,0.8,0.3,1.3,0.4c0.5,0.2,0.9,0.3,1.4,0.5c0.1,0,0.1,0,0.2,0.1c-0.1-0.2-0.1-0.4-0.2-0.7
	c-0.1-0.4-0.1-0.8-0.1-1.2v-4.6c0-0.7-0.3-1.5-1.3-1.6h-1.3V50.1z M37.9,41.2c0,0,0,0.1,0.1,0.1c0,0,0,0,0,0c0,0,0,0,0,0.1
	c0.1,0.3,0.3,0.5,0.4,0.8c0.4,0.9,0.6,1.8,0.7,2.8c0.1,0.6,0.1,1.2,0,1.8c-0.1,0.9-0.4,1.7-0.7,2.5c0,0,0,0.1-0.1,0.1h0.1l0.7,0.2
	c0.2,0,0.4,0.1,0.6,0.2l0.2,0.1V34.2c-0.1,0-0.1,0-0.2,0c-0.2,0.1-0.4,0.1-0.6,0.2c-0.3,0.1-0.5,0.2-0.7,0.4
	c-0.1,0.1-0.3,0.2-0.4,0.3c-0.1,0.1-0.2,0.2-0.3,0.3c-0.2,0.3-0.4,0.6-0.5,0.9c-0.3,0.9-0.3,1.9,0,2.8c0.1,0.5,0.3,1,0.5,1.5
	C37.8,40.9,37.9,41.1,37.9,41.2z M34.7,53.6c0.1-0.1,0.1-0.1,0.1-0.2c0,0,0.1-0.1,0.1-0.1v0c-0.1,0-0.1,0-0.2-0.1l-0.4-0.1
	c-1-0.2-2-0.2-3.1-0.1c-0.2,0-0.3,0.1-0.4,0.1c-0.3,0.1-0.6,0.2-0.9,0.4c-0.3,0.2-0.5,0.4-0.6,0.7c-0.1,0.2-0.1,0.5-0.1,0.7
	c0,0.2,0,0.3,0.1,0.4c0.2,0.5,0.8,0.6,1.5,0.5c0.2,0,0.3-0.1,0.4-0.1c1.1-0.3,2.2-0.9,3.1-1.8C34.4,53.9,34.5,53.8,34.7,53.6z
	 M41.9,67.7L41.9,67.7c0.2-0.2,0.3-0.3,0.3-0.4c0-0.1-0.1-0.2-0.3-0.2c-0.1,0-0.2,0-0.2,0.1c0,0,0,0,0,0c0,0,0,0,0,0
	c-0.1-0.1-0.2-0.1-0.4,0c0,0,0,0,0,0c0,0-0.1,0-0.1,0c0-0.2,0-0.4,0-0.6c0-0.1-0.2-0.1-0.3,0c-0.3,0.2-0.6,0.4-1,0.4L39.1,67
	c0,0-0.1,0-0.1,0c-0.2,0-0.4,0.1-0.6,0.2c-0.1,0-0.3,0.1-0.4,0.2c-0.1,0.1-0.2,0.1-0.3,0.2c0,0-0.1,0.1-0.1,0.1
	c-0.1,0.1,0,0.3,0.1,0.3c0,0,0.1,0,0.1,0l0.2-0.1l0.4-0.1c0.2-0.1,0.5-0.1,0.7-0.1c0.2,0,0.4,0,0.6,0.1c0.4,0.1,0.8,0.4,1,0.8
	c0.3,0.4,0.4,0.8,0.4,1.2c0,0.1-0.1,0-0.1,0c0-0.4-0.2-0.7-0.4-1c-0.2-0.3-0.5-0.5-0.9-0.6c-0.2-0.1-0.4-0.1-0.6-0.1
	c-0.2,0-0.5,0-0.7,0c-0.1,0-0.1,0-0.2,0c-0.1,0-0.1,0-0.2,0c-0.1,0-0.2,0-0.3,0.1c0,0-0.1,0.1-0.1,0.1c0,0,0,0.1,0,0.1
	c0,0,0,0,0,0.1c0,0,0,0.1,0,0.1c0.1,0.2,0.2,0.3,0.3,0.5c0.1,0.2,0.3,0.4,0.4,0.5l0,0c0.1,0.1,0.1,0.1,0.2,0.1c0.1,0,0.2,0,0.2-0.1
	c0.2-0.1,0.2-0.3,0.3-0.4c0,0,0-0.1,0-0.1c0-0.1,0-0.1,0.1-0.2c0,0,0,0,0.1-0.1c0,0,0.1,0,0.1,0c0,0,0.1,0,0.1,0.1c0,0,0,0.1,0,0.1
	c0,0.2,0,0.4,0,0.6c0,0.3,0,0.5,0,0.7c0,0.2,0.1,0.3,0.3,0.2c0,0,0,0,0.1,0c0.2-0.1,0.2-0.2,0.2-0.3c0-0.1,0.1-0.2,0.1-0.3
	c0.1-0.1,0.2,0,0.2,0c0,0.3,0,0.5-0.1,0.7c-0.1,0.2-0.2,0.4-0.4,0.6c0,0.1-0.1,0.1-0.1,0.2c0,0.1,0,0.1,0,0.2c0,0,0,0.1,0,0.1
	c0,0,0,0,0,0c0,0.1,0.1,0.2,0.1,0.2c0,0.1,0,0.2-0.1,0.2c0,0-0.1,0.1-0.1,0.1c0,0-0.1,0-0.1,0.1c-0.2,0.1-0.1,0.2,0.1,0.3l0.2,0.1
	c1.1,0.3,1.6-0.6,1.9-1.9c0-0.1,0.2-0.1,0.3,0l0,0c0.1,0.1,0.2,0.3,0.4,0.4c0,0,0.1,0,0.1-0.1c0.1-0.3,0.1-0.5,0-0.8
	s-0.2-0.5-0.4-0.7l-0.1,0c0,0,0,0,0-0.1c0,0,0,0,0-0.1c0.1-0.1,0.3-0.1,0.4,0c0,0,0,0,0.1,0c0,0,0,0,0.1,0c0.4-1.1,0.2-1.7-0.6-1.8
	h0C41.8,67.9,41.8,67.8,41.9,67.7L41.9,67.7z M56.9,48.1c0.1,1.5,0.9,2,1.6,1.9c1.3-0.2,1.5-1.7,1.2-2.4c-0.4-0.8-1.1-0.6-1.6,0.3
	c-0.2,0.4,0,0.6,0.3,0.6c0.1,0,0.1,0,0.2,0c0.1,0,0.2-0.1,0.3,0c0,0,0.1,0.1,0,0.2C58.6,49,58,49,57.7,48.3c-0.2-0.5-0.2-1-0.2-1.5
	c0-0.1,0.2-0.1,0.2,0c0,0,0,0.1,0,0.1c0,0.1,0,0.3,0.1,0.4c0.1,0.1,0.2,0.1,0.3,0c0.3-0.2,0.3-0.6,0.4-1c0.1-0.5,0.2-1,0.6-1.3
	c0.2-0.1,0.3,0.1,0.2,0.2c-0.5,0.6-0.7,1.2-0.3,1.4c0.2,0.1,0.2,0.1,0.3-0.1c0.5-1.3,1.6-1.4,2.6-1c0.5,0.2,0.9,0.5,1.2,0.9
	c0,0,0.2,0,0.1-0.2c-0.3-0.5-0.8-1-1.3-1.3c-0.6-0.3-1.2-0.5-1.8-0.5l0,0c0,0-0.1-0.1,0-0.1c0.4-0.3,1.1-0.2,1.9,0.3
	c0.4,0.3,0.9,0.6,1.2,0.9c0,0,0.1,0,0.1-0.1c0-0.3-0.1-0.6-0.7-1.3c0,0,0,0,0-0.1c0.1,0,0.1-0.1,0-0.2c-0.2-0.2-0.4-0.3-0.7-0.5
	c-1.2-0.6-2.4-1.1-3.7-1.3c-1.6-0.4-1.8-0.8-1.6-1.8c0.2-0.6-0.6-1.2-1.3-0.6c-0.1,0.1-0.1,0.1-0.2,0.2c-0.2,0.3-0.3,0.6-0.3,0.9
	c0,0.3,0.2,0.7,0.4,0.9c0.5,0.5,1.4,1,2.9,1c0.1,0,0.2,0.1,0,0.2c-0.2,0.1-0.4,0-0.6,0c-0.2,0-0.4-0.1-0.6,0c-0.6,0.2-0.9,0.8-0.2,1
	c0.3,0.1,0.6,0,0.9,0c0.3,0,0.5-0.1,0.8,0c0.1,0,0.1,0.2,0,0.3c-0.2,0.1-0.5,0.1-0.8,0c-0.3-0.1-0.6-0.1-0.8,0.1
	c-0.6,0.4-1,1-1.3,1.6c-0.2,0.4,0.2,0.7,0.5,0.4c0.1-0.1,0.1-0.1,0.1-0.2c0.1-0.1,0.1-0.2,0.2-0.2c0.2-0.1,0.3,0,0.2,0.1
	c-0.1,0.1-0.1,0.1-0.2,0.2c-0.3,0.4-0.6,0.6-0.6,1.1c0,1.1,0,1.9,0.4,2.1c0.2,0.1,0.4,0,0.4-0.2c0.1-0.3,0.1-0.6,0-1
	C56.7,48,56.9,48.1,56.9,48.1z M34.8,75.7c0,0,0.1-0.1,0.1-0.1c0-0.1,0-0.2,0-0.2h-0.1c-0.1,0-0.3,0-0.4,0c0,0-0.1,0-0.1,0
	c-0.2,0-0.3,0-0.3,0.1c0,0.2,0,0.4,0.1,0.6c0.1,0.2,0.2,0.4,0.4,0.5c0.1,0.1,0.2,0.2,0.4,0.2c0,0,0.1,0,0.1,0c0.1,0,0.1,0,0.1-0.1
	c0-0.1,0-0.2-0.1-0.3c0-0.1,0-0.1-0.1-0.2l0,0c0-0.1,0-0.2,0-0.3C34.7,75.8,34.7,75.7,34.8,75.7C34.7,75.7,34.7,75.7,34.8,75.7z
	 M10.2,49.2C10.2,49.3,10.3,49.3,10.2,49.2c0.3-0.4,0.6-0.7,1-0.9c0.4-0.2,0.8-0.3,1.3-0.4c0.1,0,0.3,0,0.4,0c0.4,0,0.4-0.3,0.2-0.4
	c-0.2-0.1-0.4-0.2-0.7-0.2c-0.1,0-0.1,0-0.2,0c0,0,0-0.1,0-0.1c0.1,0,0.1,0,0.2,0c0.3-0.1,0.6,0,1,0c0.6,0.1,1.2,0.2,1.3-0.3
	c0.2-0.6-0.6-1.6-2.2-1.1c0,0-0.1,0-0.1,0c0,0,0,0,0,0C11.2,46.3,10.5,47.7,10.2,49.2L10.2,49.2z M32.1,70.6c-0.1,0.3-0.1,0.5,0,0.8
	c0,0,0,0,0,0c0,0,0,0,0,0c0,0,0,0,0,0c0,0,0,0,0,0c0,0,0,0,0,0c0,0,0,0,0,0c0.1-0.1,0.3-0.2,0.4-0.4c0,0,0,0,0.1,0c0,0,0,0,0.1,0
	s0,0,0.1,0c0,0,0,0,0,0.1c0.2,1.1,0.6,1.9,1.4,1.9c0.2,0,0.3,0,0.4-0.1l0.2-0.1c0.2-0.1,0.2-0.2,0.1-0.3c-0.1,0-0.1,0-0.2,0
	c0,0-0.1-0.1-0.1-0.1c0-0.1,0-0.2,0-0.2s0-0.2,0-0.2c0,0,0-0.1,0-0.1c0,0,0,0,0-0.1c0-0.1,0-0.1,0-0.2c0-0.1,0-0.1-0.1-0.2
	c-0.2-0.2-0.3-0.4-0.4-0.7c-0.1-0.2-0.1-0.4-0.1-0.7c0,0,0-0.1,0.1-0.1c0,0,0.1,0,0.1,0c0.1,0.1,0.1,0.2,0.1,0.3
	c0,0.1,0.1,0.2,0.2,0.3c0,0,0,0,0.1,0c0.2,0.1,0.3,0,0.3-0.2c0-0.2,0-0.5,0-0.7c0-0.2,0-0.4,0-0.7c0,0,0-0.1,0-0.1c0,0,0,0,0.1-0.1
	c0,0,0.1,0,0.1,0c0,0,0.1,0,0.1,0.1c0,0.1,0,0.1,0.1,0.2c0,0,0,0.1,0,0.1c0,0.2,0.1,0.3,0.3,0.4c0.1,0,0.1,0.1,0.2,0.1
	c0.1,0,0.2,0,0.2-0.1c0,0,0,0,0-0.1c0.1-0.1,0.2-0.3,0.3-0.4c0.1-0.2,0.2-0.4,0.3-0.6c0-0.1,0-0.1,0.1-0.2l0,0c0,0,0-0.1,0-0.1
	c0,0,0-0.1-0.1-0.1c-0.1,0-0.2-0.1-0.3-0.1h0c-0.1,0-0.2,0-0.3,0c-0.3,0-0.5,0-0.8,0c-0.2,0-0.4,0-0.6,0.1c-0.2,0.1-0.3,0.1-0.4,0.2
	c-0.2,0.2-0.4,0.4-0.6,0.6c-0.2,0.2-0.3,0.5-0.3,0.8c0,0.1-0.1,0.1-0.1,0c0-0.4,0.1-0.7,0.3-1c0.2-0.3,0.4-0.6,0.7-0.8
	c0.1-0.1,0.3-0.2,0.4-0.2c0.2-0.1,0.4-0.1,0.6-0.1c0.3,0,0.5,0,0.8,0.1c0.1,0,0.1,0,0.2,0c0,0,0.1,0,0.1,0c0.1,0,0.1,0,0.2,0.1
	c0,0,0,0,0,0c0,0,0.1,0,0.1,0c0.1,0,0.2-0.1,0.1-0.3c0,0-0.1-0.1-0.1-0.1c-0.1-0.1-0.2-0.2-0.3-0.2c-0.1-0.1-0.2-0.1-0.3-0.1
	c-0.2-0.1-0.5-0.1-0.8-0.2l-0.6-0.1c-0.2,0-0.3-0.1-0.4-0.2c-0.2-0.1-0.3-0.2-0.5-0.3c-0.1-0.1-0.3,0-0.3,0c0,0.2,0,0.4,0,0.6
	c0,0-0.1,0.1-0.1,0c0,0,0,0,0,0c-0.1-0.1-0.2-0.2-0.4-0.1c0,0,0,0,0,0c0,0,0,0,0,0c-0.2-0.1-0.4-0.2-0.5,0.1c0,0.1,0.1,0.3,0.3,0.5
	l0,0c0,0.1,0,0.2,0,0.2c-0.9,0.2-1.1,0.7-0.7,1.8c0,0,0.1,0.1,0.1,0c0.2-0.1,0.3-0.1,0.4,0c0,0,0,0,0,0.1c0,0,0,0,0,0.1
	C32.3,70.1,32.2,70.4,32.1,70.6z M35.1,74.9c0.1,0,0.1-0.1,0.2-0.1c0.2-0.1,0.3-0.3,0.4-0.4c0,0,0-0.1,0-0.1c0,0,0-0.1,0-0.1
	c0,0,0,0,0,0c-0.1-0.1-0.3-0.3-0.4-0.4c-0.2-0.2-0.4-0.3-0.6-0.4c0,0,0,0-0.1,0c0,0-0.1,0-0.1,0c-0.1,0.1-0.2,0.1-0.3,0.3
	c0,0,0,0,0,0c0,0,0,0,0,0c0,0.1,0,0.1,0,0.2c0,0.1,0,0.1,0,0.1c0.1,0.2,0.3,0.3,0.4,0.4c0.1,0,0.1,0,0.2,0.1c0,0,0,0.1,0,0.1h-0.1
	c-0.2,0-0.3,0-0.4,0c-0.4-0.1-0.6-0.3-0.7-0.6c0-0.2-0.3-0.1-0.6-0.1c-0.1,0-0.2,0-0.2,0.1c0,0,0,0,0,0c0,0,0,0,0,0c0,0,0,0,0,0
	c0,0,0,0,0,0c0.2,0.3,0.5,0.5,0.7,0.8c0,0,0,0,0,0c0,0,0.1,0.1,0.1,0.1v0h0.7c0.2,0,0.3,0,0.4,0h0.1c0.1,0,0.2,0,0.2,0
	C35.1,74.9,35.1,74.9,35.1,74.9z"/>
</svg>
