<svg width="162" height="38" viewBox="0 0 162 38" fill="none" xmlns="http://www.w3.org/2000/svg">
<path d="M11.056 23.304L11.488 31.144C11.552 32.328 11.616 32.808 12.64 32.808V33H9.488V32.808C10.576 32.808 10.656 32.328 10.592 31.144L10.128 22.568L6.368 33H5.984L2.224 22.52L1.808 30.632C1.744 31.976 2.064 32.808 2.992 32.808V33H0.064V32.808C0.928 32.744 1.2 31.96 1.264 30.632L1.648 23.208C1.712 21.848 1.232 21.672 0.496 21.544V21.352H2.768L6.368 31.432L10 21.352H12.16V21.544C11.072 21.64 10.976 21.928 11.056 23.304ZM34.0386 33.192C31.0306 33.192 28.8546 30.68 28.8546 27.208C28.8546 23.624 30.9986 21.16 34.0386 21.16C35.7666 21.16 36.7906 21.656 37.4946 22.04L37.5906 23.608H37.3986C36.6466 22.152 35.7026 21.608 34.0386 21.608C31.6706 21.608 29.8786 23.848 29.8786 27.208C29.8786 30.472 31.7026 32.744 34.0386 32.744C35.7026 32.744 36.8226 32.12 37.4466 30.488H37.6386L37.4146 32.344C36.6946 32.728 35.6546 33.192 34.0386 33.192ZM64.9935 23.304L65.4255 31.144C65.4895 32.328 65.5535 32.808 66.5775 32.808V33H63.4255V32.808C64.5135 32.808 64.5935 32.328 64.5295 31.144L64.0655 22.568L60.3055 33H59.9215L56.1615 22.52L55.7455 30.632C55.6815 31.976 56.0015 32.808 56.9295 32.808V33H54.0015V32.808C54.8655 32.744 55.1375 31.96 55.2015 30.632L55.5855 23.208C55.6495 21.848 55.1695 21.672 54.4335 21.544V21.352H56.7055L60.3055 31.432L63.9375 21.352H66.0975V21.544C65.0095 21.64 64.9135 21.928 64.9935 23.304ZM87.697 27L90.353 31.192C91.105 32.376 91.633 32.712 92.017 32.808V33H89.329V32.808C90.033 32.744 90.081 32.392 89.569 31.592L87.089 27.672L85.281 30.792C84.529 32.104 84.353 32.648 85.345 32.808V33H82.497V32.808C83.297 32.744 84.033 31.864 84.753 30.616L86.753 27.16L84.225 23.16C83.473 21.976 82.945 21.64 82.561 21.544V21.352H85.249V21.544C84.545 21.608 84.497 21.96 85.009 22.76L87.361 26.472L89.057 23.56C89.809 22.248 90.033 21.704 89.041 21.544V21.352H91.761V21.544C90.961 21.608 90.305 22.488 89.585 23.736L87.697 27ZM112.82 33.192C109.812 33.192 107.636 30.68 107.636 27.208C107.636 23.624 109.78 21.16 112.82 21.16C114.548 21.16 115.572 21.656 116.276 22.04L116.372 23.608H116.18C115.428 22.152 114.484 21.608 112.82 21.608C110.452 21.608 108.66 23.848 108.66 27.208C108.66 30.472 110.484 32.744 112.82 32.744C114.484 32.744 115.604 32.12 116.228 30.488H116.42L116.196 32.344C115.476 32.728 114.436 33.192 112.82 33.192ZM139.728 21.544V21.352H142.304V21.544C141.696 21.608 141.296 22.392 140.64 24.328L137.632 33.128H137.28L133.936 23.4C133.456 22.024 133.168 21.608 132.48 21.544V21.352H135.552V21.544C134.656 21.608 134.384 21.944 134.768 23.064L137.664 31.48L140.112 24.2C140.752 22.312 140.912 21.608 139.728 21.544ZM161.567 33H158.367V32.808C159.455 32.808 159.519 32.2 159.519 31.016V23.336C159.519 22.152 159.455 21.544 158.367 21.544V21.352H161.567V21.544C160.479 21.544 160.415 22.152 160.415 23.336V31.016C160.415 32.2 160.479 32.808 161.567 32.808V33Z" fill="white"/>
<path d="M59.776 2.832C59.776 5.136 64.78 3.348 64.78 6.696C64.78 8.268 63.508 9.144 61.768 9.144C60.016 9.144 58.816 8.34 58.456 6.696H59.608C59.872 7.668 60.604 8.196 61.78 8.196C63.004 8.196 63.652 7.656 63.652 6.84C63.652 4.344 58.648 6.204 58.648 2.904C58.648 1.728 59.632 0.696 61.432 0.696C63.004 0.696 64.264 1.452 64.564 3.192H63.4C63.148 2.112 62.452 1.644 61.408 1.644C60.376 1.644 59.776 2.112 59.776 2.832ZM70.9665 9V0.84H72.0705V9H70.9665ZM78.743 9V0.84H79.895L83.651 6.6L84.119 7.404V0.84H85.223V9H84.071L80.327 3.276L79.847 2.436V9H78.743ZM98.6185 3.192H97.4665C97.1665 2.196 96.3145 1.644 95.2705 1.644C93.6745 1.644 92.7265 2.892 92.7265 4.932C92.7265 6.972 93.6625 8.196 95.2705 8.196C96.2785 8.196 97.0945 7.68 97.4425 6.696H98.6065C98.1505 8.244 96.8185 9.144 95.2585 9.144C92.9785 9.144 91.5985 7.548 91.5985 4.932C91.5985 2.328 93.0025 0.696 95.3065 0.696C96.8785 0.696 98.2225 1.56 98.6185 3.192ZM104.866 9V0.84H110.398V1.74H105.97V4.32H109.954V5.22H105.97V8.1H110.398V9H104.866Z" fill="white"/>
</svg>
